<mxfile modified="2021-07-29T16:47:29.205Z" host="app.diagrams.net" agent="5.0 (Windows NT 10.0; Win64; x64) AppleWebKit/537.36 (KHTML, like Gecko) Chrome/92.0.4515.107 Safari/537.36 Edg/92.0.902.55" etag="obOQVRJgvkY82mXwXub7" version="14.9.0" type="github">
  <diagram id="WI9T0HZ2pTsCkuznbFz-" name="Page-1">
    <mxGraphModel dx="1222" dy="1122" grid="1" gridSize="10" guides="1" tooltips="1" connect="1" arrows="1" fold="1" page="1" pageScale="1" pageWidth="827" pageHeight="1169" math="0" shadow="0">
      <root>
        <mxCell id="0" />
        <mxCell id="1" parent="0" />
        <mxCell id="ZaQ2WHesoQ1tdpj846Ri-1" value="" style="whiteSpace=wrap;html=1;rounded=0;fontSize=14;opacity=80;dashed=1;strokeColor=#007FFF;fillColor=#E6E6E6;" vertex="1" parent="1">
          <mxGeometry x="310" y="90" width="90" height="180" as="geometry" />
        </mxCell>
        <mxCell id="ZaQ2WHesoQ1tdpj846Ri-2" value="" style="whiteSpace=wrap;html=1;rounded=0;fontSize=14;fillColor=#ffffff;opacity=80;dashed=1;strokeColor=#007FFF;" vertex="1" parent="1">
          <mxGeometry x="120" y="90" width="190" height="180" as="geometry" />
        </mxCell>
        <mxCell id="ZaQ2WHesoQ1tdpj846Ri-3" value="PaaS/Serverless" style="text;html=1;resizable=0;autosize=1;align=center;verticalAlign=middle;points=[];fillColor=#dae8fc;rounded=0;fontSize=14;opacity=80;fontFamily=Lucida Console;" vertex="1" parent="1">
          <mxGeometry x="130" y="100" width="140" height="20" as="geometry" />
        </mxCell>
        <mxCell id="ZaQ2WHesoQ1tdpj846Ri-4" value="" style="aspect=fixed;html=1;points=[];align=center;image;fontSize=12;image=img/lib/mscae/CosmosDB.svg;rounded=1;fontFamily=Lucida Console;strokeColor=#007FFF;fillColor=#ffffff;opacity=80;" vertex="1" parent="1">
          <mxGeometry x="140" y="140" width="50" height="50" as="geometry" />
        </mxCell>
        <mxCell id="ZaQ2WHesoQ1tdpj846Ri-5" value="" style="shape=image;verticalLabelPosition=bottom;labelBackgroundColor=#ffffff;verticalAlign=top;aspect=fixed;imageAspect=0;image=data:image/svg+xml,PHN2ZyB4bWxuczpkYz0iaHR0cDovL3B1cmwub3JnL2RjL2VsZW1lbnRzLzEuMS8iIHhtbG5zOmNjPSJodHRwOi8vY3JlYXRpdmVjb21tb25zLm9yZy9ucyMiIHhtbG5zOnJkZj0iaHR0cDovL3d3dy53My5vcmcvMTk5OS8wMi8yMi1yZGYtc3ludGF4LW5zIyIgeG1sbnM6c3ZnPSJodHRwOi8vd3d3LnczLm9yZy8yMDAwL3N2ZyIgeG1sbnM9Imh0dHA6Ly93d3cudzMub3JnLzIwMDAvc3ZnIiB4bWxuczpzb2RpcG9kaT0iaHR0cDovL3NvZGlwb2RpLnNvdXJjZWZvcmdlLm5ldC9EVEQvc29kaXBvZGktMC5kdGQiIHhtbG5zOmlua3NjYXBlPSJodHRwOi8vd3d3Lmlua3NjYXBlLm9yZy9uYW1lc3BhY2VzL2lua3NjYXBlIiB2ZXJzaW9uPSIxLjEiIGlkPSJzdmc2MTMyMyIgaW5rc2NhcGU6dmVyc2lvbj0iMC45Mi4zICgyNDA1NTQ2LCAyMDE4LTAzLTExKSIgc29kaXBvZGk6ZG9jbmFtZT0iYXp1cmVfcG9ydGFsX3dlYl9hcHBzLnN2ZyIgeD0iMHB4IiB5PSIwcHgiIHZpZXdCb3g9IjAgMCA1MS4wMjkzMTcgNTEuMDIiIHhtbDpzcGFjZT0icHJlc2VydmUiIHdpZHRoPSI1MS4wMjkzMTYiIGhlaWdodD0iNTEuMDIiPjxtZXRhZGF0YSBpZD0ibWV0YWRhdGExMTY1NSI+PHJkZjpSREY+PGNjOldvcmsgcmRmOmFib3V0PSIiPjxkYzpmb3JtYXQ+aW1hZ2Uvc3ZnK3htbDwvZGM6Zm9ybWF0PjxkYzp0eXBlIHJkZjpyZXNvdXJjZT0iaHR0cDovL3B1cmwub3JnL2RjL2RjbWl0eXBlL1N0aWxsSW1hZ2UiLz48ZGM6dGl0bGUvPjwvY2M6V29yaz48L3JkZjpSREY+PC9tZXRhZGF0YT48ZGVmcyBpZD0iZGVmczExNjUzIi8+JiN4YTs8ZmlsdGVyIGlkPSJmaWx0ZXJfMiI+JiN4YTsJPGZlR2F1c3NpYW5CbHVyIGlkPSJmZUdhdXNzaWFuQmx1cjYxMjk2IiBzdGREZXZpYXRpb249IjIiLz4mI3hhOzwvZmlsdGVyPiYjeGE7PHNvZGlwb2RpOm5hbWVkdmlldyBib3JkZXJjb2xvcj0iIzY2NjY2NiIgYm9yZGVyb3BhY2l0eT0iMSIgZml0LW1hcmdpbi1ib3R0b209IjAiIGZpdC1tYXJnaW4tbGVmdD0iMCIgZml0LW1hcmdpbi1yaWdodD0iMCIgZml0LW1hcmdpbi10b3A9IjAiIGdyaWR0b2xlcmFuY2U9IjEwIiBndWlkZXRvbGVyYW5jZT0iMTAiIGlkPSJuYW1lZHZpZXc2MTMyNSIgaW5rc2NhcGU6Y3VycmVudC1sYXllcj0ic3ZnNjEzMjMiIGlua3NjYXBlOmN4PSItNDUuMDA0ODE4IiBpbmtzY2FwZTpjeT0iMzkuNDkwNjM4IiBpbmtzY2FwZTpwYWdlb3BhY2l0eT0iMCIgaW5rc2NhcGU6cGFnZXNoYWRvdz0iMiIgaW5rc2NhcGU6d2luZG93LWhlaWdodD0iMTAxNyIgaW5rc2NhcGU6d2luZG93LW1heGltaXplZD0iMSIgaW5rc2NhcGU6d2luZG93LXdpZHRoPSIxOTIwIiBpbmtzY2FwZTp3aW5kb3cteD0iLTgiIGlua3NjYXBlOndpbmRvdy15PSItOCIgaW5rc2NhcGU6em9vbT0iNC4zMDY1ODM0IiBvYmplY3R0b2xlcmFuY2U9IjEwIiBwYWdlY29sb3I9IiNmZmZmZmYiIHNob3dncmlkPSJmYWxzZSI+JiN4YTsJPC9zb2RpcG9kaTpuYW1lZHZpZXc+JiN4YTsmI3hhOzxwYXRoIGlkPSJwYXRoNjEzMDkiIGlua3NjYXBlOmNvbm5lY3Rvci1jdXJ2YXR1cmU9IjAiIHN0eWxlPSJmaWxsOiM1OWI0ZDkiIGQ9Im0gNDEuMDE0NTI2LDQ1Ljc2IGMgLTQuNjIsMy41MyAtMTAuMDcsNS4yNiAtMTUuNDcsNS4yNiAtNy42OCwwIC0xNS4yNywtMy40NSAtMjAuMjc5OTk5OSwtMTAuMDEgLTguNTcsLTExLjE5IC02LjQ2LC0yNy4xOCA0Ljc0OTk5OTksLTM1Ljc2IDQuNjIsLTMuNTUgMTAuMDgsLTUuMjUgMTUuNDgsLTUuMjUgNy42NywwIDE1LjI2LDMuNDUgMjAuMjgsMTAuMDEgOC41NywxMS4xOCA2LjQzLDI3LjE5IC00Ljc2LDM1Ljc1IHoiLz4mI3hhOyYjeGE7PHBhdGggaWQ9InBhdGg2MTMxNyIgaW5rc2NhcGU6Y29ubmVjdG9yLWN1cnZhdHVyZT0iMCIgc3R5bGU9ImZpbGw6I2ZmZmZmZiIgZD0ibSAzNi4zMzQ1MjYsMjkuOTggYyAxLjg1LDIuNDEgNS4yOSwyLjg1IDcuNywxLjAyIDAuMTIsLTAuMDkgMC4yMiwtMC4yMSAwLjMzLC0wLjMxIDIuNDYsMS43MyA0LjE3LDIuODcgNS4xMywzLjUzIDAuMjgsLTAuNzQgMC40OCwtMS40NSAwLjY4LC0yLjE5IC0xLjAxLC0wLjc2IC0yLjM5LC0xLjgxIC00LjM3LC0zLjQyIDAuNjUsLTEuNzIgMC40NCwtMy43MiAtMC43NSwtNS4yOCAtMS43LC0yLjIxIC00LjcyLC0yLjc3IC03LjA4LC0xLjQxIC0yLjYsLTIuMzMgLTUuNDUsLTUgLTguNDYsLTcuOTkgOS4zNSwtNS4wMyAxNiwtNC4yOSAxNiwtNC4yOSAtMS4xMSwtMS40MiAtMi4zNiwtMi42NiAtMy42OCwtMy43OCAtMy45NSwtMC42MSAtMTAuMDcsLTAuNTQgLTE3LjA3LDMuMTkgbCAtMC4wMSwtMC4wMSB2IDAgYyAtMi4zMywtMi40NCAtNC43MSwtNS4wNiAtNy4xMiwtNy44NyAtMS4xNiwwLjM3IC0yLjI5LDAuODMgLTMuMzgsMS4zOCAxLjc4LDIuOTIgNC4xOCw1Ljg3IDYuODksOC43NCAwLDAuMDEgMC4wMSwwLjAxIDAuMDIsMC4wMiAtMi4yNiwxLjU3IC00Ljc3LDMuNjggLTcuMDksNi4xMyAtMC4zLDAuMzIgLTAuNTgsMC42NCAtMC44NiwwLjk1IC0xLjM4LC0wLjI5IC0yLjg0LC0wLjIgLTQuMTk5OTk5OSwwLjI5IC0yLjMxLC00Ljk4IC0yLjEzLC04Ljk5IC0xLjc2LC0xMS4wNSAtMSwxLjA1IC0xLjk0LDIuMTUgLTIuNzUsMy4zMyAtMC42LDIuNDcgLTAuNzcsNi4wMiAxLjAxLDEwLjMgLTIuMDYsMi43IC0yLjE2LDYuNTIgLTAuMDEsOS4zNSAwLjE4LDAuMjMgMC4zNywwLjQ1IDAuNTcsMC42NSAtMC45NCwzLjIgLTEuMzYsNi4yOSAtMS40OSw4Ljk0IDAuMjQsMC4zMyAwLjI0LDAuNiAwLjQ4LDAuOTIgMS4yMywxLjU3IDIuNzYsMi44OSA0LjI1LDQuMDkgLTAuMTgsLTIuODEgMC4wMSwtNi45NSAxLjc0OTk5OTksLTExLjYxIDEuMiwwLjA5IDIuNDEsLTAuMDkgMy41NSwtMC41NyAwLjY2LDAuNTcgMS4zNCwxLjE1IDIuMDcsMS43NCAyLjUsMS45OCA1LDMuNTMgNy40Myw0Ljc0IC0wLjEyLDEuMjQgMC4xOSwyLjUyIDAuOTksMy41OSAxLjcyLDIuMjIgNC45MSwyLjY0IDcuMTMsMC45NCAwLjQ2LC0wLjM2IDAuODMsLTAuNzggMS4xMywtMS4yNCAzLjk3LDAuODggNy40NCwxLjA0IDEwLjAxLDEuMDQgMC4zOSwwIDIuMjIsLTIuNDkgMy4yNiwtNC4wMyAtMS41NiwwLjMzIC02LjIsMC45NyAtMTIuNTUsLTAuODYgLTAuMTUsLTAuNzEgLTAuNDQsLTEuNCAtMC45MSwtMi4wMiAtMS42MiwtMi4xMSAtNC41NiwtMi41NyAtNi43NiwtMS4xNSAtMi4yLC0xLjIgLTQuNTEsLTIuNyAtNi44OSwtNC41OSAtMC40OCwtMC4zOCAtMC45NSwtMC43NiAtMS4zOSwtMS4xNCAxLjQ1LC0yLjI5IDEuNjEsLTUuMjMgMC4zMiwtNy43IDAuMywtMC4yOSAwLjU4LC0wLjU5IDAuODksLTAuODggMi4zNiwtMi4yIDQuNTgsLTMuOTYgNi42NiwtNS4zOCAtMC4wOSwtMC4wOCAtMC4xNiwtMC4xNiAtMC4yNSwtMC4yNCAwLjA5LDAuMDggMC4xNiwwLjE2IDAuMjUsMC4yNCB2IDAgYyAzLjE4LDIuOTQgNi41Niw1LjczIDkuNzYsOC4yMyAtMC44NSwxLjc5IC0wLjcyLDMuOTggMC41Nyw1LjY2IHoiLz4mI3hhOzwvc3ZnPg==;rounded=1;fontFamily=Lucida Console;fontSize=14;strokeColor=#007FFF;fillColor=#ffffff;opacity=80;" vertex="1" parent="1">
          <mxGeometry x="219.0000000000001" y="139" width="51" height="51" as="geometry" />
        </mxCell>
        <mxCell id="ZaQ2WHesoQ1tdpj846Ri-6" value="" style="shape=image;verticalLabelPosition=bottom;labelBackgroundColor=#ffffff;verticalAlign=top;aspect=fixed;imageAspect=0;image=data:image/svg+xml,PHN2ZyB4bWxuczpkYz0iaHR0cDovL3B1cmwub3JnL2RjL2VsZW1lbnRzLzEuMS8iIHhtbG5zOmNjPSJodHRwOi8vY3JlYXRpdmVjb21tb25zLm9yZy9ucyMiIHhtbG5zOnJkZj0iaHR0cDovL3d3dy53My5vcmcvMTk5OS8wMi8yMi1yZGYtc3ludGF4LW5zIyIgeG1sbnM6c3ZnPSJodHRwOi8vd3d3LnczLm9yZy8yMDAwL3N2ZyIgeG1sbnM9Imh0dHA6Ly93d3cudzMub3JnLzIwMDAvc3ZnIiB4bWxuczpzb2RpcG9kaT0iaHR0cDovL3NvZGlwb2RpLnNvdXJjZWZvcmdlLm5ldC9EVEQvc29kaXBvZGktMC5kdGQiIHhtbG5zOmlua3NjYXBlPSJodHRwOi8vd3d3Lmlua3NjYXBlLm9yZy9uYW1lc3BhY2VzL2lua3NjYXBlIiB2ZXJzaW9uPSIxLjEiIGlkPSJzdmc2MjQ1MSIgaW5rc2NhcGU6dmVyc2lvbj0iMC45Mi4zICgyNDA1NTQ2LCAyMDE4LTAzLTExKSIgc29kaXBvZGk6ZG9jbmFtZT0iYXp1cmVfc2VydmljZV9idXNfcXVldWVzLnN2ZyIgeD0iMHB4IiB5PSIwcHgiIHZpZXdCb3g9IjAgMCAzNy41IDM3LjUiIHhtbDpzcGFjZT0icHJlc2VydmUiIHdpZHRoPSIzNy41IiBoZWlnaHQ9IjM3LjUiPjxtZXRhZGF0YSBpZD0ibWV0YWRhdGExNjY5MyI+PHJkZjpSREY+PGNjOldvcmsgcmRmOmFib3V0PSIiPjxkYzpmb3JtYXQ+aW1hZ2Uvc3ZnK3htbDwvZGM6Zm9ybWF0PjxkYzp0eXBlIHJkZjpyZXNvdXJjZT0iaHR0cDovL3B1cmwub3JnL2RjL2RjbWl0eXBlL1N0aWxsSW1hZ2UiLz48ZGM6dGl0bGUvPjwvY2M6V29yaz48L3JkZjpSREY+PC9tZXRhZGF0YT48ZGVmcyBpZD0iZGVmczE2NjkxIi8+JiN4YTs8ZmlsdGVyIGlkPSJmaWx0ZXJfMiI+JiN4YTsJPGZlR2F1c3NpYW5CbHVyIGlkPSJmZUdhdXNzaWFuQmx1cjYyMzc2IiBzdGREZXZpYXRpb249IjIiLz4mI3hhOzwvZmlsdGVyPiYjeGE7PHNvZGlwb2RpOm5hbWVkdmlldyBib3JkZXJjb2xvcj0iIzY2NjY2NiIgYm9yZGVyb3BhY2l0eT0iMSIgZml0LW1hcmdpbi1ib3R0b209IjAiIGZpdC1tYXJnaW4tbGVmdD0iMCIgZml0LW1hcmdpbi1yaWdodD0iMCIgZml0LW1hcmdpbi10b3A9IjAiIGdyaWR0b2xlcmFuY2U9IjEwIiBndWlkZXRvbGVyYW5jZT0iMTAiIGlkPSJuYW1lZHZpZXc2MjQ1MyIgaW5rc2NhcGU6Y3VycmVudC1sYXllcj0ic3ZnNjI0NTEiIGlua3NjYXBlOmN4PSItNS4zNzMxNTMyIiBpbmtzY2FwZTpjeT0iMTUuMTYxNjczIiBpbmtzY2FwZTpwYWdlb3BhY2l0eT0iMCIgaW5rc2NhcGU6cGFnZXNoYWRvdz0iMiIgaW5rc2NhcGU6d2luZG93LWhlaWdodD0iMTAxNyIgaW5rc2NhcGU6d2luZG93LW1heGltaXplZD0iMSIgaW5rc2NhcGU6d2luZG93LXdpZHRoPSIxOTIwIiBpbmtzY2FwZTp3aW5kb3cteD0iLTgiIGlua3NjYXBlOndpbmRvdy15PSItOCIgaW5rc2NhcGU6em9vbT0iMTAuNTcwMDIyIiBvYmplY3R0b2xlcmFuY2U9IjEwIiBwYWdlY29sb3I9IiNmZmZmZmYiIHNob3dncmlkPSJmYWxzZSI+JiN4YTsJPC9zb2RpcG9kaTpuYW1lZHZpZXc+JiN4YTsmI3hhOzxwYXRoIGlkPSJwYXRoNjIzODkiIGlua3NjYXBlOmNvbm5lY3Rvci1jdXJ2YXR1cmU9IjAiIHN0eWxlPSJmaWxsOiMwMDcyYzYiIGQ9Ik0gMC42MiwwIEMgMC4yNSwwIDAsMC4yNSAwLDAuNjIgdiA3LjUgQyAwLDguNSAwLjI1LDguNzUgMC42Miw4Ljc1IEggNC4zNyBDIDQuNzUsOC43NSA1LDguNSA1LDguMTIgViA1IGggMjcuNSB2IDMuMTMgYyAwLDAuMzcgMC4yNSwwLjYyIDAuNzUsMC42MiBoIDMuNjIgYyAwLjM4LDAgMC42MywtMC4yNSAwLjYzLC0wLjYyIFYgNC4zOCAwLjYzIEMgMzcuNSwwLjI1IDM3LjI1LDAgMzYuODgsMCBaIi8+JiN4YTsmI3hhOzxwYXRoIGlkPSJwYXRoNjIzOTciIGlua3NjYXBlOmNvbm5lY3Rvci1jdXJ2YXR1cmU9IjAiIHN0eWxlPSJmaWxsOiMwMDcyYzYiIGQ9Im0gMzYuODgsMzcuNSBjIDAuMzcsMCAwLjYyLC0wLjI1IDAuNjIsLTAuNjIgViAyOS41IGMgMCwtMC4zNyAtMC4yNSwtMC42MiAtMC42MiwtMC42MiBoIC0zLjYzIGMgLTAuMzcsMCAtMC42MiwwLjI1IC0wLjYyLDAuNjIgdiAzIEggNSBWIDI5LjM4IEMgNSwyOSA0Ljc1LDI4Ljc1IDQuMjUsMjguNzUgSCAwLjYyIEMgMC4yNSwyOC43NSAwLDI5IDAsMjkuNSB2IDcuMzggYyAwLDAuMzcgMC4yNSwwLjYyIDAuNjIsMC42MiB6Ii8+JiN4YTsmI3hhOzxwYXRoIGlkPSJwYXRoNjI0MDUiIGlua3NjYXBlOmNvbm5lY3Rvci1jdXJ2YXR1cmU9IjAiIHN0eWxlPSJmaWxsOiM1OWI0ZDkiIGQ9Im0gOS4yNCwxOS4yOCBjIC0wLjYzLDAuNjMgLTEuNDcsMC45OCAtMi4zNiwwLjk4IC0wLjg5LDAgLTEuNzMsLTAuMzUgLTIuMzYsLTAuOTggTCAwLDE0Ljc2IHYgOS4xOSBoIDEzLjc3IHYgLTkuMTkgeiIvPiYjeGE7JiN4YTs8cGF0aCBpZD0icGF0aDYyNDEzIiBpbmtzY2FwZTpjb25uZWN0b3ItY3VydmF0dXJlPSIwIiBzdHlsZT0iZmlsbDojNTliNGQ5IiBkPSJtIDYuODgsMTkuNTkgYyAwLjcyLDAgMS4zOCwtMC4yOCAxLjg5LC0wLjc4IGwgNSwtNSBWIDEzLjU1IEggMCB2IDAuMjYgbCA1LDUgYyAwLjUsMC41IDEuMTcsMC43OCAxLjg4LDAuNzggeiIvPiYjeGE7JiN4YTs8cGF0aCBpZD0icGF0aDYyNDIxIiBpbmtzY2FwZTpjb25uZWN0b3ItY3VydmF0dXJlPSIwIiBzdHlsZT0iZmlsbDojNTliNGQ5IiBkPSJtIDMyLjk3LDE5LjI4IGMgLTAuNjMsMC42MyAtMS40NywwLjk4IC0yLjM2LDAuOTggLTAuODksMCAtMS43MywtMC4zNSAtMi4zNiwtMC45OCBsIC00LjUyLC00LjUyIHYgOS4xOSBIIDM3LjUgdiAtOS4xOSB6Ii8+JiN4YTsmI3hhOzxwYXRoIGlkPSJwYXRoNjI0MjkiIGlua3NjYXBlOmNvbm5lY3Rvci1jdXJ2YXR1cmU9IjAiIHN0eWxlPSJmaWxsOiM1OWI0ZDkiIGQ9Im0gMzAuNjEsMTkuNTkgYyAwLjcyLDAgMS4zOCwtMC4yOCAxLjg5LC0wLjc4IGwgNSwtNSBWIDEzLjU1IEggMjMuNzMgdiAwLjI2IGwgNSw1IGMgMC41LDAuNSAxLjE3LDAuNzggMS44OCwwLjc4IHoiLz4mI3hhOyYjeGE7PHJlY3QgaWQ9InJlY3Q2MjQzNyIgeD0iMTkuMzYwMDAxIiB5PSIxNy44MyIgc3R5bGU9ImZpbGw6I2I4ZDQzMiIgd2lkdGg9IjIuMzA5OTk5OSIgaGVpZ2h0PSIxLjgzIi8+JiN4YTsmI3hhOzxyZWN0IGlkPSJyZWN0NjI0NDUiIHg9IjE1Ljc3OTk5OSIgeT0iMTcuODMiIHN0eWxlPSJmaWxsOiNiOGQ0MzIiIHdpZHRoPSIyLjQ1IiBoZWlnaHQ9IjEuODMiLz4mI3hhOzwvc3ZnPg==;rounded=1;fontFamily=Lucida Console;fontSize=14;strokeColor=#007FFF;fillColor=#ffffff;opacity=80;" vertex="1" parent="1">
          <mxGeometry x="330" y="140" width="44.5" height="44.5" as="geometry" />
        </mxCell>
        <mxCell id="ZaQ2WHesoQ1tdpj846Ri-7" value="" style="shape=image;verticalLabelPosition=bottom;labelBackgroundColor=#ffffff;verticalAlign=top;aspect=fixed;imageAspect=0;image=data:image/svg+xml,PHN2ZyB4bWxuczpjYz0iaHR0cDovL2NyZWF0aXZlY29tbW9ucy5vcmcvbnMjIiB4bWxuczpkYz0iaHR0cDovL3B1cmwub3JnL2RjL2VsZW1lbnRzLzEuMS8iIHhtbG5zOmlua3NjYXBlPSJodHRwOi8vd3d3Lmlua3NjYXBlLm9yZy9uYW1lc3BhY2VzL2lua3NjYXBlIiB4bWxuczpyZGY9Imh0dHA6Ly93d3cudzMub3JnLzE5OTkvMDIvMjItcmRmLXN5bnRheC1ucyMiIHhtbG5zOnNvZGlwb2RpPSJodHRwOi8vc29kaXBvZGkuc291cmNlZm9yZ2UubmV0L0RURC9zb2RpcG9kaS0wLmR0ZCIgeG1sbnM6c3ZnPSJodHRwOi8vd3d3LnczLm9yZy8yMDAwL3N2ZyIgeG1sbnM9Imh0dHA6Ly93d3cudzMub3JnLzIwMDAvc3ZnIiB4bWxuczp4bGluaz0iaHR0cDovL3d3dy53My5vcmcvMTk5OS94bGluayIgdmVyc2lvbj0iMS4xIiBpZD0ic3ZnMTE0MjUwIiBpbmtzY2FwZTp2ZXJzaW9uPSIwLjkyLjMgKDI0MDU1NDYsIDIwMTgtMDMtMTEpIiBzb2RpcG9kaTpkb2NuYW1lPSJ3ZWJwYWdlXzEuc3ZnIiB4PSIwcHgiIHk9IjBweCIgdmlld0JveD0iMCAwIDYxLjQ2IDQ1IiBzdHlsZT0iZW5hYmxlLWJhY2tncm91bmQ6bmV3IDAgMCA2MS40NiA0NTsiIHhtbDpzcGFjZT0icHJlc2VydmUiPiYjeGE7PHNvZGlwb2RpOm5hbWVkdmlldyBib3JkZXJjb2xvcj0iIzY2NjY2NiIgYm9yZGVyb3BhY2l0eT0iMSIgZml0LW1hcmdpbi1ib3R0b209IjAiIGZpdC1tYXJnaW4tbGVmdD0iMCIgZml0LW1hcmdpbi1yaWdodD0iMCIgZml0LW1hcmdpbi10b3A9IjAiIGdyaWR0b2xlcmFuY2U9IjEwIiBndWlkZXRvbGVyYW5jZT0iMTAiIGlkPSJuYW1lZHZpZXcxMTQyNTIiIGlua3NjYXBlOmN1cnJlbnQtbGF5ZXI9InN2ZzExNDI1MCIgaW5rc2NhcGU6Y3g9IjQwLjk3MDU5MiIgaW5rc2NhcGU6Y3k9IjI5Ljk5OTk5NSIgaW5rc2NhcGU6cGFnZW9wYWNpdHk9IjAiIGlua3NjYXBlOnBhZ2VzaGFkb3c9IjIiIGlua3NjYXBlOndpbmRvdy1oZWlnaHQ9IjEwMTciIGlua3NjYXBlOndpbmRvdy1tYXhpbWl6ZWQ9IjEiIGlua3NjYXBlOndpbmRvdy13aWR0aD0iMTkyMCIgaW5rc2NhcGU6d2luZG93LXg9Ii04IiBpbmtzY2FwZTp3aW5kb3cteT0iLTgiIGlua3NjYXBlOnpvb209IjE0LjQ1IiBvYmplY3R0b2xlcmFuY2U9IjEwIiBwYWdlY29sb3I9IiNmZmZmZmYiIHNob3dncmlkPSJmYWxzZSI+JiN4YTsJPC9zb2RpcG9kaTpuYW1lZHZpZXc+JiN4YTs8ZyBpZD0iZzExNDI0OCI+JiN4YTsJPHRpdGxlIGlkPSJ0aXRsZTExNDE1OSI+UGFnZS0xPC90aXRsZT4mI3hhOwk8ZyBpZD0iZ3JvdXA1NDk2LTEiPiYjeGE7CQk8dGl0bGUgaWQ9InRpdGxlMTE0MTYxIj5XZWJwYWdlICMxPC90aXRsZT4mI3hhOwkJPGcgaWQ9Imdyb3VwNTQ5Ny0yIj4mI3hhOwkJCTx0aXRsZSBpZD0idGl0bGUxMTQxNjMiPk1hbmFnZW1lbnQgUm9sZXMvUGVybWlzc2lvbnMuNzQ1MzwvdGl0bGU+JiN4YTsJCQk8ZyBpZD0iZ3JvdXA1NDk4LTMiPiYjeGE7CQkJCTx0aXRsZSBpZD0idGl0bGUxMTQxNjUiPldlYnNpdGVzICMyPC90aXRsZT4mI3hhOwkJCQk8ZyBpZD0ic2hhcGU1NDk5LTQiPiYjeGE7CQkJCQk8dGl0bGUgaWQ9InRpdGxlMTE0MTY3Ij5TaGVldC41NDk5PC90aXRsZT4mI3hhOwkJCQkJPHBhdGggaWQ9InBhdGgxMTQxNjkiIGlua3NjYXBlOmNvbm5lY3Rvci1jdXJ2YXR1cmU9IjAiIHN0eWxlPSJmaWxsOiMzRjU3NjU7IiBkPSJNNTkuMTEsMEMyLjI3LDAsMi4yNywwLDIuMjcsMCAgICAgICBDMC4zOCwwLDAsMC40NSwwLDIuMzRjMCw0MC4zOSwwLDQwLjM5LDAsNDAuMzlDMCw0NC42MiwwLjM4LDQ1LDIuMjcsNDVjNTYuODQsMCw1Ni44NCwwLDU2Ljg0LDBjMS45NywwLDIuMzUtMC4zOCwyLjM1LTIuMjcgICAgICAgYzAtNDAuMzksMC00MC4zOSwwLTQwLjM5QzYxLjQ2LDAuNDUsNjEuMDgsMCw1OS4xMSwweiIvPiYjeGE7CQkJCTwvZz4mI3hhOwkJCQk8ZyBpZD0ic2hhcGU1NTAwLTYiIHRyYW5zZm9ybT0idHJhbnNsYXRlKDEuNTg3NDIsLTM3Ljc1MTcpIj4mI3hhOwkJCQkJPHRpdGxlIGlkPSJ0aXRsZTExNDE3MiI+U2hlZXQuNTUwMDwvdGl0bGU+JiN4YTsJCQkJCTxwYXRoIGlkPSJwYXRoMTE0MTc0IiBpbmtzY2FwZTpjb25uZWN0b3ItY3VydmF0dXJlPSIwIiBzdHlsZT0iZmlsbDojMjZBOUUwOyIgZD0iTTYuMTIsNDEuOThDNi4xMiw0My43Miw0Ljc2LDQ1LDMuMSw0NSAgICAgICBTMCw0My43MiwwLDQxLjk4YzAtMS42NiwxLjQ0LTMuMDIsMy4xLTMuMDJTNi4xMiw0MC4zMiw2LjEyLDQxLjk4eiIvPiYjeGE7CQkJCTwvZz4mI3hhOwkJCQk8ZyBpZD0ic2hhcGU1NTAxLTgiIHRyYW5zZm9ybT0idHJhbnNsYXRlKDIuODcyNDgsLTM5LjQxMjgpIj4mI3hhOwkJCQkJPHRpdGxlIGlkPSJ0aXRsZTExNDE3NyI+U2hlZXQuNTUwMTwvdGl0bGU+JiN4YTsJCQkJCTxwYXRoIGlkPSJwYXRoMTE0MTc5IiBpbmtzY2FwZTpjb25uZWN0b3ItY3VydmF0dXJlPSIwIiBzdHlsZT0iZmlsbDojRkZGRkZGOyIgZD0iTTEuMjEsNDMuMzRsMS4wNi0wLjk4SDEuNDRMMCw0My42NEwxLjQ0LDQ1ICAgICAgIGgwLjgzbC0xLjA2LTEuMDZoMi40MnYtMC42SDEuMjF6Ii8+JiN4YTsJCQkJPC9nPiYjeGE7CQkJCTxnIGlkPSJzaGFwZTU1MDItMTAiIHRyYW5zZm9ybT0idHJhbnNsYXRlKDguODQ0MjEsLTM5LjQxMjgpIj4mI3hhOwkJCQkJPHRpdGxlIGlkPSJ0aXRsZTExNDE4MiI+U2hlZXQuNTUwMjwvdGl0bGU+JiN4YTsJCQkJCTxwYXRoIGlkPSJwYXRoMTE0MTg0IiBpbmtzY2FwZTpjb25uZWN0b3ItY3VydmF0dXJlPSIwIiBzdHlsZT0iZmlsbDojRkZGRkZGOyIgZD0iTTAsNDIuMTNWNDVoNTEuMTh2LTIuODdIMHoiLz4mI3hhOwkJCQk8L2c+JiN4YTsJCQkJPGcgaWQ9InNoYXBlNTUwMy0xMiIgdHJhbnNmb3JtPSJ0cmFuc2xhdGUoMTUuNzk4NiwtMTMuMTM3NikiPiYjeGE7CQkJCQk8dGl0bGUgaWQ9InRpdGxlMTE0MTg3Ij5TaGVldC41NTAzPC90aXRsZT4mI3hhOwkJCQkJPHBhdGggaWQ9InBhdGgxMTQxODkiIGlua3NjYXBlOmNvbm5lY3Rvci1jdXJ2YXR1cmU9IjAiIHN0eWxlPSJmaWxsOiNGRkZGRkY7IiBkPSJNMjguOCwzOC40M2MwLTEuNTEtMS4yMS0yLjc5LTIuOC0yLjc5ICAgICAgIGMtNC4yMywwLTQuMjMsMC00LjIzLDBjLTMuNy0zLjYzLTMuNy0zLjYzLTMuNy0zLjYzYy05LjA3LDAtOS4wNywwLTkuMDcsMGMtMy44NiwzLjctMy44NiwzLjctMy44NiwzLjcgICAgICAgYy0yLjM0LDAuMjMtNC4yMywyLjE5LTQuMjMsNC42MWMwLDAuOSwwLDAuOSwwLDAuOWMtMC45MSwwLTAuOTEsMC0wLjkxLDBjMCwxLjgyLDAsMS44MiwwLDEuODJjMy45MywwLDMuOTMsMCwzLjkzLDAgICAgICAgQzQuMzEsNDQuMTcsNS4zNyw0NSw2LjU4LDQ1czIuMTktMC44MywyLjU3LTEuOTZjMTEuNDksMCwxMS40OSwwLDExLjQ5LDBjMC40NSwxLjEzLDEuNDMsMS45NiwyLjY0LDEuOTZzMi4xOS0wLjgzLDIuNjUtMS45NiAgICAgICBjMy43OCwwLDMuNzgsMCwzLjc4LDBjMC0xLjgyLDAtMS44MiwwLTEuODJjLTAuOTEsMC0wLjkxLDAtMC45MSwwVjM4LjQzeiBNMjYuOTksMzguNDNjMCwyLjc5LDAsMi43OSwwLDIuNzkgICAgICAgYy0xLjA2LDAtMS4wNiwwLTEuMDYsMGMtMC40Ni0xLjA1LTEuNDQtMS44OC0yLjY1LTEuODhjLTEuMjEsMC0yLjE5LDAuODMtMi42NCwxLjg4Yy03LjY0LDAtNy42NCwwLTcuNjQsMCAgICAgICBjMC0zLjY5LDAtMy42OSwwLTMuNjljMTMsMCwxMywwLDEzLDBDMjYuNjEsMzcuNTMsMjYuOTksMzcuOSwyNi45OSwzOC40M3ogTTE5LjEyLDM1LjY0Yy02LjEyLDAtNi4xMiwwLTYuMTIsMCAgICAgICBjMC0xLjgxLDAtMS44MSwwLTEuODFjNC4zMSwwLDQuMzEsMCw0LjMxLDBMMTkuMTIsMzUuNjR6IE05LjY4LDMzLjgzYzEuNTEsMCwxLjUxLDAsMS41MSwwYzAsMS44MSwwLDEuODEsMCwxLjgxICAgICAgIGMtMy4zMywwLTMuMzMsMC0zLjMzLDBMOS42OCwzMy44M3ogTTIuOCw0MC4zMmMwLTEuNTksMS4yMS0yLjc5LDIuODctMi43OWM1LjUyLDAsNS41MiwwLDUuNTIsMGMwLDMuNjksMCwzLjY5LDAsMy42OSAgICAgICBjLTIuMDQsMC0yLjA0LDAtMi4wNCwwYy0wLjM4LTEuMDUtMS4zNi0xLjg4LTIuNTctMS44OHMtMi4yNywwLjgzLTIuNjUsMS44OGMtMS4xMywwLTEuMTMsMC0xLjEzLDBMMi44LDQwLjMyeiBNNi41OCw0My4wNCAgICAgICBjLTAuNTMsMC0wLjkxLTAuMzgtMC45MS0wLjkxYzAtMC40NSwwLjM4LTAuOTEsMC45MS0wLjkxYzAuNDUsMCwwLjksMC40NiwwLjksMC45MUM3LjQ4LDQyLjY2LDcuMDMsNDMuMDQsNi41OCw0My4wNHogICAgICAgIE0yMy4yOCw0My4wNGMtMC41MywwLTAuOS0wLjM4LTAuOS0wLjkxYzAtMC40NSwwLjM3LTAuOTEsMC45LTAuOTFjMC41MywwLDAuOTEsMC40NiwwLjkxLDAuOTEgICAgICAgQzI0LjE5LDQyLjY2LDIzLjgxLDQzLjA0LDIzLjI4LDQzLjA0eiIvPiYjeGE7CQkJCTwvZz4mI3hhOwkJCQk8ZyBpZD0ic2hhcGU1NTA0LTE0IiB0cmFuc2Zvcm09InRyYW5zbGF0ZSgxLjMxNzczLC0yLjEzMjg3KSI+JiN4YTsJCQkJCTx0aXRsZSBpZD0idGl0bGUxMTQxOTIiPlNoZWV0LjU1MDQ8L3RpdGxlPiYjeGE7CQkJCQk8cGF0aCBpZD0icGF0aDExNDE5NCIgaW5rc2NhcGU6Y29ubmVjdG9yLWN1cnZhdHVyZT0iMCIgc3R5bGU9ImZpbGw6IzAwQjBGMDsiIGQ9Ik0wLDEwLjU2VjQ1aDU4LjUyVjEwLjU2SDB6Ii8+JiN4YTsJCQkJPC9nPiYjeGE7CQkJPC9nPiYjeGE7CQk8L2c+JiN4YTsJCTxnIGlkPSJncm91cDU1MDUtMTYiIHRyYW5zZm9ybT0idHJhbnNsYXRlKDQuMjkwNDUsLTYuNzUwMDEpIj4mI3hhOwkJCTx0aXRsZSBpZD0idGl0bGUxMTQxOTkiPldlYjwvdGl0bGU+JiN4YTsJCQk8ZyBpZD0ic2hhcGU1NTA2LTE3Ij4mI3hhOwkJCQk8dGl0bGUgaWQ9InRpdGxlMTE0MjAxIj5TaGVldC41NTA2PC90aXRsZT4mI3hhOwkJCQk8cGF0aCBpZD0icGF0aDExNDIwMyIgaW5rc2NhcGU6Y29ubmVjdG9yLWN1cnZhdHVyZT0iMCIgc3R5bGU9ImZpbGw6I0ZGRkZGRjsiIGQ9Ik0wLDIxLjg3VjQ1aDUyLjg3VjIxLjg3SDB6Ii8+JiN4YTsJCQk8L2c+JiN4YTsJCQk8ZyBpZD0ic2hhcGU1NTA3LTE5IiB0cmFuc2Zvcm09InRyYW5zbGF0ZSgwLC0yMy4xMzA5KSI+JiN4YTsJCQkJPHRpdGxlIGlkPSJ0aXRsZTExNDIwNiI+U2hlZXQuNTUwNzwvdGl0bGU+JiN4YTsJCQkJPHBhdGggaWQ9InBhdGgxMTQyMDgiIGlua3NjYXBlOmNvbm5lY3Rvci1jdXJ2YXR1cmU9IjAiIHN0eWxlPSJmaWxsOiM1MDUwNTA7IiBkPSJNMCw0Mi41NVY0NWg1Mi44N3YtMi40NUgweiIvPiYjeGE7CQkJPC9nPiYjeGE7CQkJPGcgaWQ9InNoYXBlNTUwOC0yMSIgdHJhbnNmb3JtPSJ0cmFuc2xhdGUoNTAuNzc0LC0yMy44MzE5KSI+JiN4YTsJCQkJPHRpdGxlIGlkPSJ0aXRsZTExNDIxMSI+U2hlZXQuNTUwODwvdGl0bGU+JiN4YTsJCQkJPHBhdGggaWQ9InBhdGgxMTQyMTMiIGlua3NjYXBlOmNvbm5lY3Rvci1jdXJ2YXR1cmU9IjAiIHN0eWxlPSJmaWxsOiNGOUY3Rjg7IiBkPSJNMS4wNSw0NWMtMC4zMSwwLTAuMzEsMC0wLjMxLDAgICAgICBjLTAuMTUtMC4zMy0wLjE1LTAuMzMtMC4xNS0wLjMzYy0wLjA2LTAuMDQtMC4wNi0wLjA0LTAuMDYtMC4wOWwwLDBjMCwwLjA1LDAsMC4wNSwwLDAuMDlDMC4zMyw0NSwwLjMzLDQ1LDAuMzMsNDUgICAgICBDMCw0NSwwLDQ1LDAsNDVjMC4zNy0wLjUzLDAuMzctMC41MywwLjM3LTAuNTNjLTAuMy0wLjUyLTAuMy0wLjUyLTAuMy0wLjUyYzAuMywwLDAuMywwLDAuMywwYzAuMTYsMC4zNSwwLjE2LDAuMzUsMC4xNiwwLjM1ICAgICAgdjAuMDRsMCwwbDAuMDYtMC4wNGMwLjE1LTAuMzUsMC4xNS0wLjM1LDAuMTUtMC4zNWMwLjMxLDAsMC4zMSwwLDAuMzEsMEMwLjcsNDQuNDcsMC43LDQ0LjQ3LDAuNyw0NC40N0wxLjA1LDQ1eiIvPiYjeGE7CQkJPC9nPiYjeGE7CQkJPGcgaWQ9InNoYXBlNTUwOS0yMyIgdHJhbnNmb3JtPSJ0cmFuc2xhdGUoNC45MDIzMiwtMTcuODczOSkiPiYjeGE7CQkJCTx0aXRsZSBpZD0idGl0bGUxMTQyMTYiPlNoZWV0LjU1MDk8L3RpdGxlPiYjeGE7CQkJCTxwYXRoIGlkPSJwYXRoMTE0MjE4IiBpbmtzY2FwZTpjb25uZWN0b3ItY3VydmF0dXJlPSIwIiBzdHlsZT0iZmlsbDojREZERkRGOyIgZD0iTTAsNDMuMjVWNDVoMjMuODF2LTEuNzVIMHoiLz4mI3hhOwkJCTwvZz4mI3hhOwkJCTxnIGlkPSJzaGFwZTU1MTAtMjUiIHRyYW5zZm9ybT0idHJhbnNsYXRlKDQuOTAyMzIsLTE0LjM2OTIpIj4mI3hhOwkJCQk8dGl0bGUgaWQ9InRpdGxlMTE0MjIxIj5TaGVldC41NTEwPC90aXRsZT4mI3hhOwkJCQk8cGF0aCBpZD0icGF0aDExNDIyMyIgaW5rc2NhcGU6Y29ubmVjdG9yLWN1cnZhdHVyZT0iMCIgc3R5bGU9ImZpbGw6I0RGREZERjsiIGQ9Ik0wLDQzLjZWNDVoMjMuODF2LTEuNEgweiIvPiYjeGE7CQkJPC9nPiYjeGE7CQkJPGcgaWQ9InNoYXBlNTUxMS0yNyIgdHJhbnNmb3JtPSJ0cmFuc2xhdGUoNC45MDIzMiwtMTAuODY0NSkiPiYjeGE7CQkJCTx0aXRsZSBpZD0idGl0bGUxMTQyMjYiPlNoZWV0LjU1MTE8L3RpdGxlPiYjeGE7CQkJCTxwYXRoIGlkPSJwYXRoMTE0MjI4IiBpbmtzY2FwZTpjb25uZWN0b3ItY3VydmF0dXJlPSIwIiBzdHlsZT0iZmlsbDojREZERkRGOyIgZD0iTTAsNDMuNlY0NWgyMy44MXYtMS40SDB6Ii8+JiN4YTsJCQk8L2c+JiN4YTsJCQk8ZyBpZD0ic2hhcGU1NTEyLTI5IiB0cmFuc2Zvcm09InRyYW5zbGF0ZSg0LjkwMjMyLC03LjM1OTg0KSI+JiN4YTsJCQkJPHRpdGxlIGlkPSJ0aXRsZTExNDIzMSI+U2hlZXQuNTUxMjwvdGl0bGU+JiN4YTsJCQkJPHBhdGggaWQ9InBhdGgxMTQyMzMiIGlua3NjYXBlOmNvbm5lY3Rvci1jdXJ2YXR1cmU9IjAiIHN0eWxlPSJmaWxsOiNERkRGREY7IiBkPSJNMCw0My42VjQ1aDIzLjgxdi0xLjRIMHoiLz4mI3hhOwkJCTwvZz4mI3hhOwkJCTxnIGlkPSJzaGFwZTU1MTMtMzEiIHRyYW5zZm9ybT0idHJhbnNsYXRlKDQuOTAyMzIsLTMuODU1MTUpIj4mI3hhOwkJCQk8dGl0bGUgaWQ9InRpdGxlMTE0MjM2Ij5TaGVldC41NTEzPC90aXRsZT4mI3hhOwkJCQk8cGF0aCBpZD0icGF0aDExNDIzOCIgaW5rc2NhcGU6Y29ubmVjdG9yLWN1cnZhdHVyZT0iMCIgc3R5bGU9ImZpbGw6I0RGREZERjsiIGQ9Ik0wLDQzLjZWNDVoMjMuODF2LTEuNEgweiIvPiYjeGE7CQkJPC9nPiYjeGE7CQkJPGcgaWQ9InNoYXBlNTUxNC0zMyIgdHJhbnNmb3JtPSJ0cmFuc2xhdGUoMzAuODE0NiwtMy44NTUxNSkiPiYjeGE7CQkJCTx0aXRsZSBpZD0idGl0bGUxMTQyNDEiPlNoZWV0LjU1MTQ8L3RpdGxlPiYjeGE7CQkJCTxwYXRoIGlkPSJwYXRoMTE0MjQzIiBpbmtzY2FwZTpjb25uZWN0b3ItY3VydmF0dXJlPSIwIiBzdHlsZT0iZmlsbDojREZERkRGOyIgZD0iTTAsMjkuMjNWNDVoMTguNTZWMjkuMjNIMHoiLz4mI3hhOwkJCTwvZz4mI3hhOwkJPC9nPiYjeGE7CTwvZz4mI3hhOzwvZz4mI3hhOzwvc3ZnPg==;rounded=1;fontFamily=Lucida Console;fontSize=14;strokeColor=#007FFF;fillColor=#ffffff;opacity=80;" vertex="1" parent="1">
          <mxGeometry x="170" y="205" width="61" height="45" as="geometry" />
        </mxCell>
        <mxCell id="ZaQ2WHesoQ1tdpj846Ri-8" value="Integration" style="text;html=1;resizable=0;autosize=1;align=center;verticalAlign=middle;points=[];fillColor=none;strokeColor=none;rounded=0;fontFamily=Helvetica;fontSize=12;opacity=80;" vertex="1" parent="1">
          <mxGeometry x="317.25" y="100" width="70" height="20" as="geometry" />
        </mxCell>
        <mxCell id="ZaQ2WHesoQ1tdpj846Ri-9" value="" style="shape=image;verticalLabelPosition=bottom;labelBackgroundColor=#ffffff;verticalAlign=top;aspect=fixed;imageAspect=0;image=data:image/png,iVBORw0KGgoAAAANSUhEUgAAAH8AAAB/CAYAAADGvR0TAAASJElEQVR4Ae2d688dRRnA+X/8pJ/8YvxmTLzFKInwwZAYNQEvGJUgpMaS4AVSC8GSVrBS0wbSkr4kRasNVikotYW20Bbsa9NCaZUCSilYS7ms+R19js953pnZmd2Z2T31bLLv7rntZX7PbZ55Zt8rmsXyf9sCV1yud37p0tvNkeVTza49B5utDz8+We97cHfzvTse8K4/vX/X9LsP/3b/5Pevvf7m5dpEzWUB/+VXzzW/e+JwI3C/eOO65sprb8u2Xv31H08EBuFAmE6/9PfLQiDmEr7AXveLXzXXrtqQDXKKwCBgd2zcMdfCMDfwMb+Y4utX3zsI7DbBQAi3PPRog2DOyzJq+Pjtx/c/29y2YSkZODDw7wDB54sPJw6Qdd+hPzePPnFwZl3a+Vjzs/t3TtbvrtncXL/6nuRz33T75olFePPCxVHLwSjh02gAu+abd0Y1vDbByyfORDf4+fPnmzNnzkSt+w4caXbs+kOz9t6l5iur1kddF7ECrmms1mBU8DHtBG00WsjMIhQ5/G0KfCskzx07PhWGL990d/B6uZcxCsEo4MdCx/zjBnAHOZY+8K0wPLJnf3P7+gebq762JigI3MPJF8/muPzexxgc/tJv9gbNO74bf12iv50TvgjDCy+caogbvnXrxqAQYOGGjgkGg49vDkXu3/7+fZO+e2/xDhygBHwRArYEk9/50SavEBCrkJ8YaqkOHw3G//l8OtD3HVqu0h6l4YsgIAS33Hm/957pHQyROKoKny6WL/uGFagFXSSrFnwRAnoMPndAkEv2sOZSDT5dN5e2c9N8liuIS2m82vBFCIgJvnDDXc72oBdTKxYoDh8zj1lzgb/1J9sG7QMPBR8hOH7i+Wbdph3OdsEK1ugRFIWPmXclatD2IQMdsQ5DwhcrgCtwJY1qtFEx+PTHuQGr8Uj1EMGNANfbMcAXK/CDdVtXtBVth0sstRSBT7/cQuc1Uf4Qvt3XeGOBL1Zg247fO5NEtFuJJTt8khcWfA0T1qVxxgYfIcANfP4ba1e0IfFRbsXJCt/Vf8fn4/vHuIwRPgJw+OixxjVeQA4kZ08gG3yXxtOnrxG1dhWsscKXOMA1nJzTAmSBT37emnoCu7EOZYqwjBm+CAA1BbZtyQXkWHrDJ6q3Fwf4nOYpx426jjF2+AgAA0UuAaCesO/SC/7BoydWdOcYhRu7xkujzQN8sQAuF9C3G9gZPoBtAofXY/bxAl228wIfAaB4xBUEooBdl87wbcqW7txYo3pf48wTfASAXoAdEyCo7lrr0Am+a5BmDOlaH2Tf+/MGHwEgD2CrhShU7bIkw0e7bYBXKgPV5YZSfjOP8BEARgUtA3pcqUsSfMyLHY8nsg9lnhAWLMUY183bd0/LtKVceyzbX+/eG6wqpl5QCwBuN6VyGUFJgk//0p6wbZDG5SL0MRb77mllwEXLfStDwjYAJAMYUkRrGaLhu8x9jJ9fwHfDbRP6NvgIxR/3Pb3C/6eY/yj4SBPmXV8wJcgxywJ+OfgIAG5Kc8H8x+ZZouDb9C0niO1eWPhMn8KKjGF1Tdey07dqvd6y/ZEZiDGaD3wygLYYJDb6b4WPFAFbS1eKabHwY1xFjEXJ8Z0xRfsImW7jWPgIgP0tx4lp51b4drQuNahYwPcHbYCT1QJMgc8x+L4WHnplbcFfED6m3Wp9ajpxAf9/gAW0a9sXPulfWwTCoFtoCcJ3aX3oYK7PFvDrwEegbDUwVjq0eOG7tL7LpIoF/Hrw0X6b+g0x88LPofVI3QJ+Pfip2u+ET6BgfX1IgkKmZQG/LnyX9tOtdi1O+HQTdOTY5jtcB5b3FvDrwndpv2/gzQmfJIGG32cC4QJ+ffgHnnluhh9FNq5u3wr4JHU0eMx/n3q8Bfz68NF+W/bl6vatgG9h9a0UtceLyTyJyyi9vVwyfMC266Ztu2aU2DUWswK+HcBJTepYYAv4K8FYULzum+SxxyTwa7PgM/ApvtQ/iEkRWtj29QL+MPARBlvyba3uDHw7wdIXJVrAodcL+MPBt+VelucMfPyC1nwrKSHIvs8W8IeDT7Wv5smcCr3MwLd1+LFFAfqAdn8Bfzj4mH5b6qWZTuFbf2+lxEKNfb2APyx8O9SrczZT+CX8PQKygD8sfOv3dZdvCt9W5ubw9wv4ceBLdPWk62f9Pj04Wabwyd/r4KCtJFsO0LZdaH6cAOTu5wt8tnaKl2Rsp/B1sEdKN9eygD88fNvfl8m0E/gUbmit7zOKZ4VmAX94+LbCR/L8E/ikcDX8vvl8LQBDw2cKE9XGBDp2qpncM90hHpBMDTxPxGIyhDabNfZLmn3uSe6VLeXzLBP4NtKXDzXErvtDwEeybcJK33zMPn5yw+ZfTqZFzzt8/heAvmeJ+CfwecSH/jBXpI/A1IKP60LDfdqt7y91n4cl8y9WSgpBSc23ET+DdywT+OR8dYOIT+iq7fp3peFTpICl0tdfap/AiYYsIQQl4dsRPkngTeDbPr6v5ktDjd0vCb/tHzYgBPIftqhB1KlNrl/G85nxSuPjG/kHSrb+XQsT1bGMlecWgJLwuVZ9D9LXn8C3ZVvzAN8Klb45JBsXgCsILQLfBRIzb7tI+hy4gpxWoCZ87oPFCT9XgocTWEh94wkSFPZ5QAKF91NcVgi+CASAfQ9FppeQSwBKw7eJnil8W71jzeNETDr+yQkf8DYTKeBTJo/KrcTAFyEgYrYNyLlzCUBp+HZ0D6s40XzMpDQi2zHC94FHcFMfR9IFPkLAdGibMMklALXhw3gu4PvA930ObYrmiwVgax+IIAJA4Ki/l7I/GHwb8I1N863roLH7gkf7u8L3CUDqtGotHLXhc//OgG+M0b7OReQA3xe+TwC6JoNKw0dh9DqFb1OhY4TPxSIAucDngI8A2P+XR46ApIrW6pj9mvAZwZ3C11qFdHSdlDk5ovljTXbfrp5r2pE5ZevLVy691+x7/Z1mx+nzzQ+ffbV56PjZZueJs83yi39NhgZo2wtAIGKA6++UhE8sorV+JsNn4fcFpFs/N3x97NT9B1661Fxz9F/N+55407t+6elzzZbll5Pg2YGTiQIdOJJ0jJLwyUV44dNH1h926TP7QIwB/mOvvdN85MAFL3CXMHzyqdebR06+FA3Qmn+6hFqz2/ZLwmeIWvPFdbJMAj7MvP4wx4P8RRiGhr/21KUk6FYQ7nrulSiItoEZAyAv0AZdPi8JnyBU8+XBG1P4tmybNGmuZUj4Nx9/qxd4EYRVR/8RBdHOjOXZegK3bVsSPnUJGj71G1P4BFH6Q4kGcwjAUPDvOZ0HvAjAz5fbLYAtk2bwpw26fF4SvnVJMvl2YvaBbPP7bSNisYIxBPxDb7yTReMFPNv3732jeeqFvwVhYub1cHCK6S8J3z6hU9hO4Zfq6w8B/zPPpAV3GnJon56AaKpvSy2gtqJA9X1Xv18KPt08/YQubdWn8C0kXudY7HFzdiNd10dkHwLY97O9z4e13/rX2MKPUvB5br8WRlL5skzhk9XzfUm+3GVbG36uIM8nJCSFtMbafdvYsQmfUvDtKKRW6il8gj79+DX2c2TTasP/4P5/FtV8+v8WuH5ts2mMo+vPfful4NseiE7dT+Gj1XZ0T3+xi9bzGwufwJLzlFhvXLdUFDzWgMDPB5CKn4nPv+725sr/rigR77WtFlKfEUK5PiuI+Hut0DPwLShtInLB164l9/4nbt5YHD4C4BsDsNUyfe4vB3zrgqReX1jOwLd+P8e0LStQfRqk7bcfW725Cnxfl29s8O3cfEnuOOFjEjANupFlUp/8IHVbE/6nblhfBb6YVbsdE3ybc4CpLcyd0XzA2tk7kgdOhS7fpyoIi1JjPXDsxeLwP7TP7/PJ79vA7XNfXTN5j/dTVp6iaYUr5bXN57tS9ivgUwypNV8K/AXm2LdXHw4P2fq6cLHvX/fMa0Eo9tGnBHIp0HJ916Z0rcmH4wr4vGmreSUXPHbwXF/unL4ViraxfqtxOQK3VIGgwERn9VBmSelqhk741k/bKFEfYGz7VOl84E/+Yg0LM+U1Jv/k6XC1j83wpYzspUL2fd/+py4Zv7esnPDx09r0s9838LMnLvm67xi+TyA2HGsf2WMkT7cdVT4+SCXeJ9CzZWW+lLoTPmDsQM88af/Fd5vm44fyDu58tiWzB0j+w7UGj+kl0VICsu+YVuuJ2XRiRyudF74t8Jg37T9x4d0mV6oXc3/4VNjcA8Pm0WPz+j6Qqe+7tN4V6IkAeOG7tL9vt09OWmtLhW5fAQD8nohaPlfD1zb5NqMX0noYBOHbjB95alfUWAtml/Ocvvhe07X7d82hc95UrtVK2/D4Xfud0q/t+EBbIW4QPo1tZ8XmfFhTF5hdf7P08tvNh5+MG/H76JPnm61/ORsND79ugyyi/tKw9fGtr49R1Fb49kld+H4swrwuuIJbTrw1qd//9KH/dAkJ5q46cK6hUDPGxOtGZ5+neehAr+usHXvc2Nf063X5GNcS81CtVvhAtpE/1sAXQZYUCoLQnAmnPhM1BYwt2abhebyLfF5jax8eQZIuhk8UfPw8ZkRLdyiKLCEAgGfQievIJQB94TMTxg7mpFTs5hAMO5YAo9jpdlHwgWln9QAh51TukMAIeBE+zh17g6Hj9oGPqbXg6df3HZBJEQh6GLYyNyUfEw0fM2LLuxkpijEvIQAxnwHaWh4EwZe5ijkm3+kKnwDPRtZcT2yxZgrg0HfteD1tlNIbi4ZPY7mCv1p9f86dWwC6wEezXeB5WkcIVO7P7AQRhC/VFSfBRwCALeZXtjlMcIy2+gSAWcY8uiV1SYVPIGdHy2iD1EmZfQUBAbTXoUuyY9shGT5mHnMv4NkSiNXy/3QzbbUR10A2K9UNxMLHv/ueyVd7yNbl57n3FHMvwpEMnx8C2gKge9FF++RCUrY2ANSCiAbwLL6YWKQNPgM1wLVaJuerncgBvEsIu+ZdOsEHFKZeGkG2Nfv/1KMBWs5ttwgnJWkIim9xwaf7hj+1Q7P6+ET59O/7mu/U39v+PNfUp8K6M3wa1BZ9cDE5n5njg6bfx9RbK6RBsU+giKAgDFyzrJu37548Vo1gjRE4m6K1x+E1lqD2MC1CYrOIXIuvSEO3T2i/F3wObB/pwkXxXs0Ff0dDuGDleg9LUHuUTiyD67l/WNm+brY3fHyrq+ERgBi/m1NIiEXIadsaxK4CgK9H42ombgS4bF3gub8uAZ5t697wOSCQ7egfDV7bBeibo1uIALquKyQMZMww7XTrhjDvAp2ty9Tj4nL1rLLAp9GRRJfG5TBPGmrXfUrSiQ/E37PVPp/xeLp0uvGH2ieqdwV3gA8FsKltkw0+J0YiXZpGWjiXtKbeYOj7rmh/KOByXl93Ljd42iUrfA5IEOLqgpGIwBSPaRkbfGILO1CDi8KillCe7PCBSwxgawDEz8YUGdQSkDHBJ7fgSiZhSXMEd642LQJfTuTqBiIEpIdLSLKcN3Y7BviYeQJMUQ69JWDu250LtUVR+JyYIMs1GocPS83Fh26ky2dDwydL6DLzCEANC1kcPlBIxboCQbECdupwF5BdfjMUfHoVPm2vGRtVgQ8Y4gDXcDACgGVA0msnhYaAT/7AFluKqSdQLuXfXcpRDb6cnIgf6ZYb1luiWgoSaglBTfjkEVxFICL8bTX20n45t9Xhc/EEMT4rQGMgHAhByWCH66gBnyje1vppgSeoGyr4HQS+SG/bf8QkKCQTV8oUloJPWrgNOgJeqwJK2ttuB4UvF4PJA7TWCLuPhtA7yOkScsPHtJOWdfXX5X4kvilt1aRtQ9tRwOcCaQxMvS8e0I1H/gCt6duAfeHTR2eYlwGYtloAhJugtpQVC0H2fTYa+HKBaPauPQedg0QiAHpLF5L4gUAy1Sp0gc8kCYZZ7QOW9TXpfXFdfQVV2ifndnTw9c1Ri+dLE+sG1vtkD5lMSqyAdQj9t80QfOr30GpA0ycHdsic62tgn+tAiMcIXdp41PDlImlAGtJWDdsGj32NtaBPvWrNluljUWN/G/oeo5fEL0NF79Jesdu5gK9vhoYlNsAiuNLGITglPkOIsDI5x9n1/Zbcnzv4tjEw62ibaxi5BGysD4FblxjDXvvQr+cevm1ALAN17AgE1boIRRcLwe/oVaDVgB5q/MHeX87Xlx382MbBTCMkoYAw9ljz+r1/A0CGDvrgWJN2AAAAAElFTkSuQmCC;rounded=1;fontFamily=Lucida Console;fontSize=14;strokeColor=#007FFF;fillColor=#ffffff;opacity=80;" vertex="1" parent="1">
          <mxGeometry x="330" y="200" width="50" height="50" as="geometry" />
        </mxCell>
        <mxCell id="ZaQ2WHesoQ1tdpj846Ri-10" value="" style="whiteSpace=wrap;html=1;rounded=0;fontSize=14;opacity=80;dashed=1;strokeColor=#007FFF;fillColor=#E6E6E6;" vertex="1" parent="1">
          <mxGeometry x="310" y="320" width="90" height="180" as="geometry" />
        </mxCell>
        <mxCell id="ZaQ2WHesoQ1tdpj846Ri-11" value="" style="whiteSpace=wrap;html=1;rounded=0;fontSize=14;fillColor=#ffffff;opacity=80;dashed=1;strokeColor=#007FFF;" vertex="1" parent="1">
          <mxGeometry x="120" y="320" width="190" height="180" as="geometry" />
        </mxCell>
        <mxCell id="ZaQ2WHesoQ1tdpj846Ri-12" value="CaaS+PaaS" style="text;html=1;resizable=0;autosize=1;align=center;verticalAlign=middle;points=[];fillColor=#dae8fc;rounded=0;fontSize=14;opacity=80;fontFamily=Lucida Console;" vertex="1" parent="1">
          <mxGeometry x="155" y="330" width="90" height="20" as="geometry" />
        </mxCell>
        <mxCell id="ZaQ2WHesoQ1tdpj846Ri-13" value="" style="shape=image;verticalLabelPosition=bottom;labelBackgroundColor=#ffffff;verticalAlign=top;aspect=fixed;imageAspect=0;image=data:image/svg+xml,PHN2ZyB4bWxuczpkYz0iaHR0cDovL3B1cmwub3JnL2RjL2VsZW1lbnRzLzEuMS8iIHhtbG5zOmNjPSJodHRwOi8vY3JlYXRpdmVjb21tb25zLm9yZy9ucyMiIHhtbG5zOnJkZj0iaHR0cDovL3d3dy53My5vcmcvMTk5OS8wMi8yMi1yZGYtc3ludGF4LW5zIyIgeG1sbnM6c3ZnPSJodHRwOi8vd3d3LnczLm9yZy8yMDAwL3N2ZyIgeG1sbnM9Imh0dHA6Ly93d3cudzMub3JnLzIwMDAvc3ZnIiB4bWxuczpzb2RpcG9kaT0iaHR0cDovL3NvZGlwb2RpLnNvdXJjZWZvcmdlLm5ldC9EVEQvc29kaXBvZGktMC5kdGQiIHhtbG5zOmlua3NjYXBlPSJodHRwOi8vd3d3Lmlua3NjYXBlLm9yZy9uYW1lc3BhY2VzL2lua3NjYXBlIiB2ZXJzaW9uPSIxLjEiIGlkPSJzdmc2MjQ1MSIgaW5rc2NhcGU6dmVyc2lvbj0iMC45Mi4zICgyNDA1NTQ2LCAyMDE4LTAzLTExKSIgc29kaXBvZGk6ZG9jbmFtZT0iYXp1cmVfc2VydmljZV9idXNfcXVldWVzLnN2ZyIgeD0iMHB4IiB5PSIwcHgiIHZpZXdCb3g9IjAgMCAzNy41IDM3LjUiIHhtbDpzcGFjZT0icHJlc2VydmUiIHdpZHRoPSIzNy41IiBoZWlnaHQ9IjM3LjUiPjxtZXRhZGF0YSBpZD0ibWV0YWRhdGExNjY5MyI+PHJkZjpSREY+PGNjOldvcmsgcmRmOmFib3V0PSIiPjxkYzpmb3JtYXQ+aW1hZ2Uvc3ZnK3htbDwvZGM6Zm9ybWF0PjxkYzp0eXBlIHJkZjpyZXNvdXJjZT0iaHR0cDovL3B1cmwub3JnL2RjL2RjbWl0eXBlL1N0aWxsSW1hZ2UiLz48ZGM6dGl0bGUvPjwvY2M6V29yaz48L3JkZjpSREY+PC9tZXRhZGF0YT48ZGVmcyBpZD0iZGVmczE2NjkxIi8+JiN4YTs8ZmlsdGVyIGlkPSJmaWx0ZXJfMiI+JiN4YTsJPGZlR2F1c3NpYW5CbHVyIGlkPSJmZUdhdXNzaWFuQmx1cjYyMzc2IiBzdGREZXZpYXRpb249IjIiLz4mI3hhOzwvZmlsdGVyPiYjeGE7PHNvZGlwb2RpOm5hbWVkdmlldyBib3JkZXJjb2xvcj0iIzY2NjY2NiIgYm9yZGVyb3BhY2l0eT0iMSIgZml0LW1hcmdpbi1ib3R0b209IjAiIGZpdC1tYXJnaW4tbGVmdD0iMCIgZml0LW1hcmdpbi1yaWdodD0iMCIgZml0LW1hcmdpbi10b3A9IjAiIGdyaWR0b2xlcmFuY2U9IjEwIiBndWlkZXRvbGVyYW5jZT0iMTAiIGlkPSJuYW1lZHZpZXc2MjQ1MyIgaW5rc2NhcGU6Y3VycmVudC1sYXllcj0ic3ZnNjI0NTEiIGlua3NjYXBlOmN4PSItNS4zNzMxNTMyIiBpbmtzY2FwZTpjeT0iMTUuMTYxNjczIiBpbmtzY2FwZTpwYWdlb3BhY2l0eT0iMCIgaW5rc2NhcGU6cGFnZXNoYWRvdz0iMiIgaW5rc2NhcGU6d2luZG93LWhlaWdodD0iMTAxNyIgaW5rc2NhcGU6d2luZG93LW1heGltaXplZD0iMSIgaW5rc2NhcGU6d2luZG93LXdpZHRoPSIxOTIwIiBpbmtzY2FwZTp3aW5kb3cteD0iLTgiIGlua3NjYXBlOndpbmRvdy15PSItOCIgaW5rc2NhcGU6em9vbT0iMTAuNTcwMDIyIiBvYmplY3R0b2xlcmFuY2U9IjEwIiBwYWdlY29sb3I9IiNmZmZmZmYiIHNob3dncmlkPSJmYWxzZSI+JiN4YTsJPC9zb2RpcG9kaTpuYW1lZHZpZXc+JiN4YTsmI3hhOzxwYXRoIGlkPSJwYXRoNjIzODkiIGlua3NjYXBlOmNvbm5lY3Rvci1jdXJ2YXR1cmU9IjAiIHN0eWxlPSJmaWxsOiMwMDcyYzYiIGQ9Ik0gMC42MiwwIEMgMC4yNSwwIDAsMC4yNSAwLDAuNjIgdiA3LjUgQyAwLDguNSAwLjI1LDguNzUgMC42Miw4Ljc1IEggNC4zNyBDIDQuNzUsOC43NSA1LDguNSA1LDguMTIgViA1IGggMjcuNSB2IDMuMTMgYyAwLDAuMzcgMC4yNSwwLjYyIDAuNzUsMC42MiBoIDMuNjIgYyAwLjM4LDAgMC42MywtMC4yNSAwLjYzLC0wLjYyIFYgNC4zOCAwLjYzIEMgMzcuNSwwLjI1IDM3LjI1LDAgMzYuODgsMCBaIi8+JiN4YTsmI3hhOzxwYXRoIGlkPSJwYXRoNjIzOTciIGlua3NjYXBlOmNvbm5lY3Rvci1jdXJ2YXR1cmU9IjAiIHN0eWxlPSJmaWxsOiMwMDcyYzYiIGQ9Im0gMzYuODgsMzcuNSBjIDAuMzcsMCAwLjYyLC0wLjI1IDAuNjIsLTAuNjIgViAyOS41IGMgMCwtMC4zNyAtMC4yNSwtMC42MiAtMC42MiwtMC42MiBoIC0zLjYzIGMgLTAuMzcsMCAtMC42MiwwLjI1IC0wLjYyLDAuNjIgdiAzIEggNSBWIDI5LjM4IEMgNSwyOSA0Ljc1LDI4Ljc1IDQuMjUsMjguNzUgSCAwLjYyIEMgMC4yNSwyOC43NSAwLDI5IDAsMjkuNSB2IDcuMzggYyAwLDAuMzcgMC4yNSwwLjYyIDAuNjIsMC42MiB6Ii8+JiN4YTsmI3hhOzxwYXRoIGlkPSJwYXRoNjI0MDUiIGlua3NjYXBlOmNvbm5lY3Rvci1jdXJ2YXR1cmU9IjAiIHN0eWxlPSJmaWxsOiM1OWI0ZDkiIGQ9Im0gOS4yNCwxOS4yOCBjIC0wLjYzLDAuNjMgLTEuNDcsMC45OCAtMi4zNiwwLjk4IC0wLjg5LDAgLTEuNzMsLTAuMzUgLTIuMzYsLTAuOTggTCAwLDE0Ljc2IHYgOS4xOSBoIDEzLjc3IHYgLTkuMTkgeiIvPiYjeGE7JiN4YTs8cGF0aCBpZD0icGF0aDYyNDEzIiBpbmtzY2FwZTpjb25uZWN0b3ItY3VydmF0dXJlPSIwIiBzdHlsZT0iZmlsbDojNTliNGQ5IiBkPSJtIDYuODgsMTkuNTkgYyAwLjcyLDAgMS4zOCwtMC4yOCAxLjg5LC0wLjc4IGwgNSwtNSBWIDEzLjU1IEggMCB2IDAuMjYgbCA1LDUgYyAwLjUsMC41IDEuMTcsMC43OCAxLjg4LDAuNzggeiIvPiYjeGE7JiN4YTs8cGF0aCBpZD0icGF0aDYyNDIxIiBpbmtzY2FwZTpjb25uZWN0b3ItY3VydmF0dXJlPSIwIiBzdHlsZT0iZmlsbDojNTliNGQ5IiBkPSJtIDMyLjk3LDE5LjI4IGMgLTAuNjMsMC42MyAtMS40NywwLjk4IC0yLjM2LDAuOTggLTAuODksMCAtMS43MywtMC4zNSAtMi4zNiwtMC45OCBsIC00LjUyLC00LjUyIHYgOS4xOSBIIDM3LjUgdiAtOS4xOSB6Ii8+JiN4YTsmI3hhOzxwYXRoIGlkPSJwYXRoNjI0MjkiIGlua3NjYXBlOmNvbm5lY3Rvci1jdXJ2YXR1cmU9IjAiIHN0eWxlPSJmaWxsOiM1OWI0ZDkiIGQ9Im0gMzAuNjEsMTkuNTkgYyAwLjcyLDAgMS4zOCwtMC4yOCAxLjg5LC0wLjc4IGwgNSwtNSBWIDEzLjU1IEggMjMuNzMgdiAwLjI2IGwgNSw1IGMgMC41LDAuNSAxLjE3LDAuNzggMS44OCwwLjc4IHoiLz4mI3hhOyYjeGE7PHJlY3QgaWQ9InJlY3Q2MjQzNyIgeD0iMTkuMzYwMDAxIiB5PSIxNy44MyIgc3R5bGU9ImZpbGw6I2I4ZDQzMiIgd2lkdGg9IjIuMzA5OTk5OSIgaGVpZ2h0PSIxLjgzIi8+JiN4YTsmI3hhOzxyZWN0IGlkPSJyZWN0NjI0NDUiIHg9IjE1Ljc3OTk5OSIgeT0iMTcuODMiIHN0eWxlPSJmaWxsOiNiOGQ0MzIiIHdpZHRoPSIyLjQ1IiBoZWlnaHQ9IjEuODMiLz4mI3hhOzwvc3ZnPg==;rounded=1;fontFamily=Lucida Console;fontSize=14;strokeColor=#007FFF;fillColor=#ffffff;opacity=80;" vertex="1" parent="1">
          <mxGeometry x="330" y="370" width="44.5" height="44.5" as="geometry" />
        </mxCell>
        <mxCell id="ZaQ2WHesoQ1tdpj846Ri-14" value="" style="shape=image;verticalLabelPosition=bottom;labelBackgroundColor=#ffffff;verticalAlign=top;aspect=fixed;imageAspect=0;image=data:image/svg+xml,PHN2ZyB4bWxuczpjYz0iaHR0cDovL2NyZWF0aXZlY29tbW9ucy5vcmcvbnMjIiB4bWxuczpkYz0iaHR0cDovL3B1cmwub3JnL2RjL2VsZW1lbnRzLzEuMS8iIHhtbG5zOmlua3NjYXBlPSJodHRwOi8vd3d3Lmlua3NjYXBlLm9yZy9uYW1lc3BhY2VzL2lua3NjYXBlIiB4bWxuczpyZGY9Imh0dHA6Ly93d3cudzMub3JnLzE5OTkvMDIvMjItcmRmLXN5bnRheC1ucyMiIHhtbG5zOnNvZGlwb2RpPSJodHRwOi8vc29kaXBvZGkuc291cmNlZm9yZ2UubmV0L0RURC9zb2RpcG9kaS0wLmR0ZCIgeG1sbnM6c3ZnPSJodHRwOi8vd3d3LnczLm9yZy8yMDAwL3N2ZyIgeG1sbnM9Imh0dHA6Ly93d3cudzMub3JnLzIwMDAvc3ZnIiB4bWxuczp4bGluaz0iaHR0cDovL3d3dy53My5vcmcvMTk5OS94bGluayIgdmVyc2lvbj0iMS4xIiBpZD0ic3ZnMTE0MjUwIiBpbmtzY2FwZTp2ZXJzaW9uPSIwLjkyLjMgKDI0MDU1NDYsIDIwMTgtMDMtMTEpIiBzb2RpcG9kaTpkb2NuYW1lPSJ3ZWJwYWdlXzEuc3ZnIiB4PSIwcHgiIHk9IjBweCIgdmlld0JveD0iMCAwIDYxLjQ2IDQ1IiBzdHlsZT0iZW5hYmxlLWJhY2tncm91bmQ6bmV3IDAgMCA2MS40NiA0NTsiIHhtbDpzcGFjZT0icHJlc2VydmUiPiYjeGE7PHNvZGlwb2RpOm5hbWVkdmlldyBib3JkZXJjb2xvcj0iIzY2NjY2NiIgYm9yZGVyb3BhY2l0eT0iMSIgZml0LW1hcmdpbi1ib3R0b209IjAiIGZpdC1tYXJnaW4tbGVmdD0iMCIgZml0LW1hcmdpbi1yaWdodD0iMCIgZml0LW1hcmdpbi10b3A9IjAiIGdyaWR0b2xlcmFuY2U9IjEwIiBndWlkZXRvbGVyYW5jZT0iMTAiIGlkPSJuYW1lZHZpZXcxMTQyNTIiIGlua3NjYXBlOmN1cnJlbnQtbGF5ZXI9InN2ZzExNDI1MCIgaW5rc2NhcGU6Y3g9IjQwLjk3MDU5MiIgaW5rc2NhcGU6Y3k9IjI5Ljk5OTk5NSIgaW5rc2NhcGU6cGFnZW9wYWNpdHk9IjAiIGlua3NjYXBlOnBhZ2VzaGFkb3c9IjIiIGlua3NjYXBlOndpbmRvdy1oZWlnaHQ9IjEwMTciIGlua3NjYXBlOndpbmRvdy1tYXhpbWl6ZWQ9IjEiIGlua3NjYXBlOndpbmRvdy13aWR0aD0iMTkyMCIgaW5rc2NhcGU6d2luZG93LXg9Ii04IiBpbmtzY2FwZTp3aW5kb3cteT0iLTgiIGlua3NjYXBlOnpvb209IjE0LjQ1IiBvYmplY3R0b2xlcmFuY2U9IjEwIiBwYWdlY29sb3I9IiNmZmZmZmYiIHNob3dncmlkPSJmYWxzZSI+JiN4YTsJPC9zb2RpcG9kaTpuYW1lZHZpZXc+JiN4YTs8ZyBpZD0iZzExNDI0OCI+JiN4YTsJPHRpdGxlIGlkPSJ0aXRsZTExNDE1OSI+UGFnZS0xPC90aXRsZT4mI3hhOwk8ZyBpZD0iZ3JvdXA1NDk2LTEiPiYjeGE7CQk8dGl0bGUgaWQ9InRpdGxlMTE0MTYxIj5XZWJwYWdlICMxPC90aXRsZT4mI3hhOwkJPGcgaWQ9Imdyb3VwNTQ5Ny0yIj4mI3hhOwkJCTx0aXRsZSBpZD0idGl0bGUxMTQxNjMiPk1hbmFnZW1lbnQgUm9sZXMvUGVybWlzc2lvbnMuNzQ1MzwvdGl0bGU+JiN4YTsJCQk8ZyBpZD0iZ3JvdXA1NDk4LTMiPiYjeGE7CQkJCTx0aXRsZSBpZD0idGl0bGUxMTQxNjUiPldlYnNpdGVzICMyPC90aXRsZT4mI3hhOwkJCQk8ZyBpZD0ic2hhcGU1NDk5LTQiPiYjeGE7CQkJCQk8dGl0bGUgaWQ9InRpdGxlMTE0MTY3Ij5TaGVldC41NDk5PC90aXRsZT4mI3hhOwkJCQkJPHBhdGggaWQ9InBhdGgxMTQxNjkiIGlua3NjYXBlOmNvbm5lY3Rvci1jdXJ2YXR1cmU9IjAiIHN0eWxlPSJmaWxsOiMzRjU3NjU7IiBkPSJNNTkuMTEsMEMyLjI3LDAsMi4yNywwLDIuMjcsMCAgICAgICBDMC4zOCwwLDAsMC40NSwwLDIuMzRjMCw0MC4zOSwwLDQwLjM5LDAsNDAuMzlDMCw0NC42MiwwLjM4LDQ1LDIuMjcsNDVjNTYuODQsMCw1Ni44NCwwLDU2Ljg0LDBjMS45NywwLDIuMzUtMC4zOCwyLjM1LTIuMjcgICAgICAgYzAtNDAuMzksMC00MC4zOSwwLTQwLjM5QzYxLjQ2LDAuNDUsNjEuMDgsMCw1OS4xMSwweiIvPiYjeGE7CQkJCTwvZz4mI3hhOwkJCQk8ZyBpZD0ic2hhcGU1NTAwLTYiIHRyYW5zZm9ybT0idHJhbnNsYXRlKDEuNTg3NDIsLTM3Ljc1MTcpIj4mI3hhOwkJCQkJPHRpdGxlIGlkPSJ0aXRsZTExNDE3MiI+U2hlZXQuNTUwMDwvdGl0bGU+JiN4YTsJCQkJCTxwYXRoIGlkPSJwYXRoMTE0MTc0IiBpbmtzY2FwZTpjb25uZWN0b3ItY3VydmF0dXJlPSIwIiBzdHlsZT0iZmlsbDojMjZBOUUwOyIgZD0iTTYuMTIsNDEuOThDNi4xMiw0My43Miw0Ljc2LDQ1LDMuMSw0NSAgICAgICBTMCw0My43MiwwLDQxLjk4YzAtMS42NiwxLjQ0LTMuMDIsMy4xLTMuMDJTNi4xMiw0MC4zMiw2LjEyLDQxLjk4eiIvPiYjeGE7CQkJCTwvZz4mI3hhOwkJCQk8ZyBpZD0ic2hhcGU1NTAxLTgiIHRyYW5zZm9ybT0idHJhbnNsYXRlKDIuODcyNDgsLTM5LjQxMjgpIj4mI3hhOwkJCQkJPHRpdGxlIGlkPSJ0aXRsZTExNDE3NyI+U2hlZXQuNTUwMTwvdGl0bGU+JiN4YTsJCQkJCTxwYXRoIGlkPSJwYXRoMTE0MTc5IiBpbmtzY2FwZTpjb25uZWN0b3ItY3VydmF0dXJlPSIwIiBzdHlsZT0iZmlsbDojRkZGRkZGOyIgZD0iTTEuMjEsNDMuMzRsMS4wNi0wLjk4SDEuNDRMMCw0My42NEwxLjQ0LDQ1ICAgICAgIGgwLjgzbC0xLjA2LTEuMDZoMi40MnYtMC42SDEuMjF6Ii8+JiN4YTsJCQkJPC9nPiYjeGE7CQkJCTxnIGlkPSJzaGFwZTU1MDItMTAiIHRyYW5zZm9ybT0idHJhbnNsYXRlKDguODQ0MjEsLTM5LjQxMjgpIj4mI3hhOwkJCQkJPHRpdGxlIGlkPSJ0aXRsZTExNDE4MiI+U2hlZXQuNTUwMjwvdGl0bGU+JiN4YTsJCQkJCTxwYXRoIGlkPSJwYXRoMTE0MTg0IiBpbmtzY2FwZTpjb25uZWN0b3ItY3VydmF0dXJlPSIwIiBzdHlsZT0iZmlsbDojRkZGRkZGOyIgZD0iTTAsNDIuMTNWNDVoNTEuMTh2LTIuODdIMHoiLz4mI3hhOwkJCQk8L2c+JiN4YTsJCQkJPGcgaWQ9InNoYXBlNTUwMy0xMiIgdHJhbnNmb3JtPSJ0cmFuc2xhdGUoMTUuNzk4NiwtMTMuMTM3NikiPiYjeGE7CQkJCQk8dGl0bGUgaWQ9InRpdGxlMTE0MTg3Ij5TaGVldC41NTAzPC90aXRsZT4mI3hhOwkJCQkJPHBhdGggaWQ9InBhdGgxMTQxODkiIGlua3NjYXBlOmNvbm5lY3Rvci1jdXJ2YXR1cmU9IjAiIHN0eWxlPSJmaWxsOiNGRkZGRkY7IiBkPSJNMjguOCwzOC40M2MwLTEuNTEtMS4yMS0yLjc5LTIuOC0yLjc5ICAgICAgIGMtNC4yMywwLTQuMjMsMC00LjIzLDBjLTMuNy0zLjYzLTMuNy0zLjYzLTMuNy0zLjYzYy05LjA3LDAtOS4wNywwLTkuMDcsMGMtMy44NiwzLjctMy44NiwzLjctMy44NiwzLjcgICAgICAgYy0yLjM0LDAuMjMtNC4yMywyLjE5LTQuMjMsNC42MWMwLDAuOSwwLDAuOSwwLDAuOWMtMC45MSwwLTAuOTEsMC0wLjkxLDBjMCwxLjgyLDAsMS44MiwwLDEuODJjMy45MywwLDMuOTMsMCwzLjkzLDAgICAgICAgQzQuMzEsNDQuMTcsNS4zNyw0NSw2LjU4LDQ1czIuMTktMC44MywyLjU3LTEuOTZjMTEuNDksMCwxMS40OSwwLDExLjQ5LDBjMC40NSwxLjEzLDEuNDMsMS45NiwyLjY0LDEuOTZzMi4xOS0wLjgzLDIuNjUtMS45NiAgICAgICBjMy43OCwwLDMuNzgsMCwzLjc4LDBjMC0xLjgyLDAtMS44MiwwLTEuODJjLTAuOTEsMC0wLjkxLDAtMC45MSwwVjM4LjQzeiBNMjYuOTksMzguNDNjMCwyLjc5LDAsMi43OSwwLDIuNzkgICAgICAgYy0xLjA2LDAtMS4wNiwwLTEuMDYsMGMtMC40Ni0xLjA1LTEuNDQtMS44OC0yLjY1LTEuODhjLTEuMjEsMC0yLjE5LDAuODMtMi42NCwxLjg4Yy03LjY0LDAtNy42NCwwLTcuNjQsMCAgICAgICBjMC0zLjY5LDAtMy42OSwwLTMuNjljMTMsMCwxMywwLDEzLDBDMjYuNjEsMzcuNTMsMjYuOTksMzcuOSwyNi45OSwzOC40M3ogTTE5LjEyLDM1LjY0Yy02LjEyLDAtNi4xMiwwLTYuMTIsMCAgICAgICBjMC0xLjgxLDAtMS44MSwwLTEuODFjNC4zMSwwLDQuMzEsMCw0LjMxLDBMMTkuMTIsMzUuNjR6IE05LjY4LDMzLjgzYzEuNTEsMCwxLjUxLDAsMS41MSwwYzAsMS44MSwwLDEuODEsMCwxLjgxICAgICAgIGMtMy4zMywwLTMuMzMsMC0zLjMzLDBMOS42OCwzMy44M3ogTTIuOCw0MC4zMmMwLTEuNTksMS4yMS0yLjc5LDIuODctMi43OWM1LjUyLDAsNS41MiwwLDUuNTIsMGMwLDMuNjksMCwzLjY5LDAsMy42OSAgICAgICBjLTIuMDQsMC0yLjA0LDAtMi4wNCwwYy0wLjM4LTEuMDUtMS4zNi0xLjg4LTIuNTctMS44OHMtMi4yNywwLjgzLTIuNjUsMS44OGMtMS4xMywwLTEuMTMsMC0xLjEzLDBMMi44LDQwLjMyeiBNNi41OCw0My4wNCAgICAgICBjLTAuNTMsMC0wLjkxLTAuMzgtMC45MS0wLjkxYzAtMC40NSwwLjM4LTAuOTEsMC45MS0wLjkxYzAuNDUsMCwwLjksMC40NiwwLjksMC45MUM3LjQ4LDQyLjY2LDcuMDMsNDMuMDQsNi41OCw0My4wNHogICAgICAgIE0yMy4yOCw0My4wNGMtMC41MywwLTAuOS0wLjM4LTAuOS0wLjkxYzAtMC40NSwwLjM3LTAuOTEsMC45LTAuOTFjMC41MywwLDAuOTEsMC40NiwwLjkxLDAuOTEgICAgICAgQzI0LjE5LDQyLjY2LDIzLjgxLDQzLjA0LDIzLjI4LDQzLjA0eiIvPiYjeGE7CQkJCTwvZz4mI3hhOwkJCQk8ZyBpZD0ic2hhcGU1NTA0LTE0IiB0cmFuc2Zvcm09InRyYW5zbGF0ZSgxLjMxNzczLC0yLjEzMjg3KSI+JiN4YTsJCQkJCTx0aXRsZSBpZD0idGl0bGUxMTQxOTIiPlNoZWV0LjU1MDQ8L3RpdGxlPiYjeGE7CQkJCQk8cGF0aCBpZD0icGF0aDExNDE5NCIgaW5rc2NhcGU6Y29ubmVjdG9yLWN1cnZhdHVyZT0iMCIgc3R5bGU9ImZpbGw6IzAwQjBGMDsiIGQ9Ik0wLDEwLjU2VjQ1aDU4LjUyVjEwLjU2SDB6Ii8+JiN4YTsJCQkJPC9nPiYjeGE7CQkJPC9nPiYjeGE7CQk8L2c+JiN4YTsJCTxnIGlkPSJncm91cDU1MDUtMTYiIHRyYW5zZm9ybT0idHJhbnNsYXRlKDQuMjkwNDUsLTYuNzUwMDEpIj4mI3hhOwkJCTx0aXRsZSBpZD0idGl0bGUxMTQxOTkiPldlYjwvdGl0bGU+JiN4YTsJCQk8ZyBpZD0ic2hhcGU1NTA2LTE3Ij4mI3hhOwkJCQk8dGl0bGUgaWQ9InRpdGxlMTE0MjAxIj5TaGVldC41NTA2PC90aXRsZT4mI3hhOwkJCQk8cGF0aCBpZD0icGF0aDExNDIwMyIgaW5rc2NhcGU6Y29ubmVjdG9yLWN1cnZhdHVyZT0iMCIgc3R5bGU9ImZpbGw6I0ZGRkZGRjsiIGQ9Ik0wLDIxLjg3VjQ1aDUyLjg3VjIxLjg3SDB6Ii8+JiN4YTsJCQk8L2c+JiN4YTsJCQk8ZyBpZD0ic2hhcGU1NTA3LTE5IiB0cmFuc2Zvcm09InRyYW5zbGF0ZSgwLC0yMy4xMzA5KSI+JiN4YTsJCQkJPHRpdGxlIGlkPSJ0aXRsZTExNDIwNiI+U2hlZXQuNTUwNzwvdGl0bGU+JiN4YTsJCQkJPHBhdGggaWQ9InBhdGgxMTQyMDgiIGlua3NjYXBlOmNvbm5lY3Rvci1jdXJ2YXR1cmU9IjAiIHN0eWxlPSJmaWxsOiM1MDUwNTA7IiBkPSJNMCw0Mi41NVY0NWg1Mi44N3YtMi40NUgweiIvPiYjeGE7CQkJPC9nPiYjeGE7CQkJPGcgaWQ9InNoYXBlNTUwOC0yMSIgdHJhbnNmb3JtPSJ0cmFuc2xhdGUoNTAuNzc0LC0yMy44MzE5KSI+JiN4YTsJCQkJPHRpdGxlIGlkPSJ0aXRsZTExNDIxMSI+U2hlZXQuNTUwODwvdGl0bGU+JiN4YTsJCQkJPHBhdGggaWQ9InBhdGgxMTQyMTMiIGlua3NjYXBlOmNvbm5lY3Rvci1jdXJ2YXR1cmU9IjAiIHN0eWxlPSJmaWxsOiNGOUY3Rjg7IiBkPSJNMS4wNSw0NWMtMC4zMSwwLTAuMzEsMC0wLjMxLDAgICAgICBjLTAuMTUtMC4zMy0wLjE1LTAuMzMtMC4xNS0wLjMzYy0wLjA2LTAuMDQtMC4wNi0wLjA0LTAuMDYtMC4wOWwwLDBjMCwwLjA1LDAsMC4wNSwwLDAuMDlDMC4zMyw0NSwwLjMzLDQ1LDAuMzMsNDUgICAgICBDMCw0NSwwLDQ1LDAsNDVjMC4zNy0wLjUzLDAuMzctMC41MywwLjM3LTAuNTNjLTAuMy0wLjUyLTAuMy0wLjUyLTAuMy0wLjUyYzAuMywwLDAuMywwLDAuMywwYzAuMTYsMC4zNSwwLjE2LDAuMzUsMC4xNiwwLjM1ICAgICAgdjAuMDRsMCwwbDAuMDYtMC4wNGMwLjE1LTAuMzUsMC4xNS0wLjM1LDAuMTUtMC4zNWMwLjMxLDAsMC4zMSwwLDAuMzEsMEMwLjcsNDQuNDcsMC43LDQ0LjQ3LDAuNyw0NC40N0wxLjA1LDQ1eiIvPiYjeGE7CQkJPC9nPiYjeGE7CQkJPGcgaWQ9InNoYXBlNTUwOS0yMyIgdHJhbnNmb3JtPSJ0cmFuc2xhdGUoNC45MDIzMiwtMTcuODczOSkiPiYjeGE7CQkJCTx0aXRsZSBpZD0idGl0bGUxMTQyMTYiPlNoZWV0LjU1MDk8L3RpdGxlPiYjeGE7CQkJCTxwYXRoIGlkPSJwYXRoMTE0MjE4IiBpbmtzY2FwZTpjb25uZWN0b3ItY3VydmF0dXJlPSIwIiBzdHlsZT0iZmlsbDojREZERkRGOyIgZD0iTTAsNDMuMjVWNDVoMjMuODF2LTEuNzVIMHoiLz4mI3hhOwkJCTwvZz4mI3hhOwkJCTxnIGlkPSJzaGFwZTU1MTAtMjUiIHRyYW5zZm9ybT0idHJhbnNsYXRlKDQuOTAyMzIsLTE0LjM2OTIpIj4mI3hhOwkJCQk8dGl0bGUgaWQ9InRpdGxlMTE0MjIxIj5TaGVldC41NTEwPC90aXRsZT4mI3hhOwkJCQk8cGF0aCBpZD0icGF0aDExNDIyMyIgaW5rc2NhcGU6Y29ubmVjdG9yLWN1cnZhdHVyZT0iMCIgc3R5bGU9ImZpbGw6I0RGREZERjsiIGQ9Ik0wLDQzLjZWNDVoMjMuODF2LTEuNEgweiIvPiYjeGE7CQkJPC9nPiYjeGE7CQkJPGcgaWQ9InNoYXBlNTUxMS0yNyIgdHJhbnNmb3JtPSJ0cmFuc2xhdGUoNC45MDIzMiwtMTAuODY0NSkiPiYjeGE7CQkJCTx0aXRsZSBpZD0idGl0bGUxMTQyMjYiPlNoZWV0LjU1MTE8L3RpdGxlPiYjeGE7CQkJCTxwYXRoIGlkPSJwYXRoMTE0MjI4IiBpbmtzY2FwZTpjb25uZWN0b3ItY3VydmF0dXJlPSIwIiBzdHlsZT0iZmlsbDojREZERkRGOyIgZD0iTTAsNDMuNlY0NWgyMy44MXYtMS40SDB6Ii8+JiN4YTsJCQk8L2c+JiN4YTsJCQk8ZyBpZD0ic2hhcGU1NTEyLTI5IiB0cmFuc2Zvcm09InRyYW5zbGF0ZSg0LjkwMjMyLC03LjM1OTg0KSI+JiN4YTsJCQkJPHRpdGxlIGlkPSJ0aXRsZTExNDIzMSI+U2hlZXQuNTUxMjwvdGl0bGU+JiN4YTsJCQkJPHBhdGggaWQ9InBhdGgxMTQyMzMiIGlua3NjYXBlOmNvbm5lY3Rvci1jdXJ2YXR1cmU9IjAiIHN0eWxlPSJmaWxsOiNERkRGREY7IiBkPSJNMCw0My42VjQ1aDIzLjgxdi0xLjRIMHoiLz4mI3hhOwkJCTwvZz4mI3hhOwkJCTxnIGlkPSJzaGFwZTU1MTMtMzEiIHRyYW5zZm9ybT0idHJhbnNsYXRlKDQuOTAyMzIsLTMuODU1MTUpIj4mI3hhOwkJCQk8dGl0bGUgaWQ9InRpdGxlMTE0MjM2Ij5TaGVldC41NTEzPC90aXRsZT4mI3hhOwkJCQk8cGF0aCBpZD0icGF0aDExNDIzOCIgaW5rc2NhcGU6Y29ubmVjdG9yLWN1cnZhdHVyZT0iMCIgc3R5bGU9ImZpbGw6I0RGREZERjsiIGQ9Ik0wLDQzLjZWNDVoMjMuODF2LTEuNEgweiIvPiYjeGE7CQkJPC9nPiYjeGE7CQkJPGcgaWQ9InNoYXBlNTUxNC0zMyIgdHJhbnNmb3JtPSJ0cmFuc2xhdGUoMzAuODE0NiwtMy44NTUxNSkiPiYjeGE7CQkJCTx0aXRsZSBpZD0idGl0bGUxMTQyNDEiPlNoZWV0LjU1MTQ8L3RpdGxlPiYjeGE7CQkJCTxwYXRoIGlkPSJwYXRoMTE0MjQzIiBpbmtzY2FwZTpjb25uZWN0b3ItY3VydmF0dXJlPSIwIiBzdHlsZT0iZmlsbDojREZERkRGOyIgZD0iTTAsMjkuMjNWNDVoMTguNTZWMjkuMjNIMHoiLz4mI3hhOwkJCTwvZz4mI3hhOwkJPC9nPiYjeGE7CTwvZz4mI3hhOzwvZz4mI3hhOzwvc3ZnPg==;rounded=1;fontFamily=Lucida Console;fontSize=14;strokeColor=#007FFF;fillColor=#ffffff;opacity=80;" vertex="1" parent="1">
          <mxGeometry x="170" y="435" width="61" height="45" as="geometry" />
        </mxCell>
        <mxCell id="ZaQ2WHesoQ1tdpj846Ri-15" value="Integration" style="text;html=1;resizable=0;autosize=1;align=center;verticalAlign=middle;points=[];fillColor=none;strokeColor=none;rounded=0;fontFamily=Helvetica;fontSize=12;opacity=80;" vertex="1" parent="1">
          <mxGeometry x="317.25" y="330" width="70" height="20" as="geometry" />
        </mxCell>
        <mxCell id="ZaQ2WHesoQ1tdpj846Ri-16" value="" style="shape=image;verticalLabelPosition=bottom;labelBackgroundColor=#ffffff;verticalAlign=top;aspect=fixed;imageAspect=0;image=data:image/png,iVBORw0KGgoAAAANSUhEUgAAAH8AAAB/CAYAAADGvR0TAAASJElEQVR4Ae2d688dRRnA+X/8pJ/8YvxmTLzFKInwwZAYNQEvGJUgpMaS4AVSC8GSVrBS0wbSkr4kRasNVikotYW20Bbsa9NCaZUCSilYS7ms+R19js953pnZmd2Z2T31bLLv7rntZX7PbZ55Zt8rmsXyf9sCV1yud37p0tvNkeVTza49B5utDz8+We97cHfzvTse8K4/vX/X9LsP/3b/5Pevvf7m5dpEzWUB/+VXzzW/e+JwI3C/eOO65sprb8u2Xv31H08EBuFAmE6/9PfLQiDmEr7AXveLXzXXrtqQDXKKwCBgd2zcMdfCMDfwMb+Y4utX3zsI7DbBQAi3PPRog2DOyzJq+Pjtx/c/29y2YSkZODDw7wDB54sPJw6Qdd+hPzePPnFwZl3a+Vjzs/t3TtbvrtncXL/6nuRz33T75olFePPCxVHLwSjh02gAu+abd0Y1vDbByyfORDf4+fPnmzNnzkSt+w4caXbs+kOz9t6l5iur1kddF7ECrmms1mBU8DHtBG00WsjMIhQ5/G0KfCskzx07PhWGL990d/B6uZcxCsEo4MdCx/zjBnAHOZY+8K0wPLJnf3P7+gebq762JigI3MPJF8/muPzexxgc/tJv9gbNO74bf12iv50TvgjDCy+caogbvnXrxqAQYOGGjgkGg49vDkXu3/7+fZO+e2/xDhygBHwRArYEk9/50SavEBCrkJ8YaqkOHw3G//l8OtD3HVqu0h6l4YsgIAS33Hm/957pHQyROKoKny6WL/uGFagFXSSrFnwRAnoMPndAkEv2sOZSDT5dN5e2c9N8liuIS2m82vBFCIgJvnDDXc72oBdTKxYoDh8zj1lzgb/1J9sG7QMPBR8hOH7i+Wbdph3OdsEK1ugRFIWPmXclatD2IQMdsQ5DwhcrgCtwJY1qtFEx+PTHuQGr8Uj1EMGNANfbMcAXK/CDdVtXtBVth0sstRSBT7/cQuc1Uf4Qvt3XeGOBL1Zg247fO5NEtFuJJTt8khcWfA0T1qVxxgYfIcANfP4ba1e0IfFRbsXJCt/Vf8fn4/vHuIwRPgJw+OixxjVeQA4kZ08gG3yXxtOnrxG1dhWsscKXOMA1nJzTAmSBT37emnoCu7EOZYqwjBm+CAA1BbZtyQXkWHrDJ6q3Fwf4nOYpx426jjF2+AgAA0UuAaCesO/SC/7BoydWdOcYhRu7xkujzQN8sQAuF9C3G9gZPoBtAofXY/bxAl228wIfAaB4xBUEooBdl87wbcqW7txYo3pf48wTfASAXoAdEyCo7lrr0Am+a5BmDOlaH2Tf+/MGHwEgD2CrhShU7bIkw0e7bYBXKgPV5YZSfjOP8BEARgUtA3pcqUsSfMyLHY8nsg9lnhAWLMUY183bd0/LtKVceyzbX+/eG6wqpl5QCwBuN6VyGUFJgk//0p6wbZDG5SL0MRb77mllwEXLfStDwjYAJAMYUkRrGaLhu8x9jJ9fwHfDbRP6NvgIxR/3Pb3C/6eY/yj4SBPmXV8wJcgxywJ+OfgIAG5Kc8H8x+ZZouDb9C0niO1eWPhMn8KKjGF1Tdey07dqvd6y/ZEZiDGaD3wygLYYJDb6b4WPFAFbS1eKabHwY1xFjEXJ8Z0xRfsImW7jWPgIgP0tx4lp51b4drQuNahYwPcHbYCT1QJMgc8x+L4WHnplbcFfED6m3Wp9ajpxAf9/gAW0a9sXPulfWwTCoFtoCcJ3aX3oYK7PFvDrwEegbDUwVjq0eOG7tL7LpIoF/Hrw0X6b+g0x88LPofVI3QJ+Pfip2u+ET6BgfX1IgkKmZQG/LnyX9tOtdi1O+HQTdOTY5jtcB5b3FvDrwndpv2/gzQmfJIGG32cC4QJ+ffgHnnluhh9FNq5u3wr4JHU0eMx/n3q8Bfz68NF+W/bl6vatgG9h9a0UtceLyTyJyyi9vVwyfMC266Ztu2aU2DUWswK+HcBJTepYYAv4K8FYULzum+SxxyTwa7PgM/ApvtQ/iEkRWtj29QL+MPARBlvyba3uDHw7wdIXJVrAodcL+MPBt+VelucMfPyC1nwrKSHIvs8W8IeDT7Wv5smcCr3MwLd1+LFFAfqAdn8Bfzj4mH5b6qWZTuFbf2+lxEKNfb2APyx8O9SrczZT+CX8PQKygD8sfOv3dZdvCt9W5ubw9wv4ceBLdPWk62f9Pj04Wabwyd/r4KCtJFsO0LZdaH6cAOTu5wt8tnaKl2Rsp/B1sEdKN9eygD88fNvfl8m0E/gUbmit7zOKZ4VmAX94+LbCR/L8E/ikcDX8vvl8LQBDw2cKE9XGBDp2qpncM90hHpBMDTxPxGIyhDabNfZLmn3uSe6VLeXzLBP4NtKXDzXErvtDwEeybcJK33zMPn5yw+ZfTqZFzzt8/heAvmeJ+CfwecSH/jBXpI/A1IKP60LDfdqt7y91n4cl8y9WSgpBSc23ET+DdywT+OR8dYOIT+iq7fp3peFTpICl0tdfap/AiYYsIQQl4dsRPkngTeDbPr6v5ktDjd0vCb/tHzYgBPIftqhB1KlNrl/G85nxSuPjG/kHSrb+XQsT1bGMlecWgJLwuVZ9D9LXn8C3ZVvzAN8Klb45JBsXgCsILQLfBRIzb7tI+hy4gpxWoCZ87oPFCT9XgocTWEh94wkSFPZ5QAKF91NcVgi+CASAfQ9FppeQSwBKw7eJnil8W71jzeNETDr+yQkf8DYTKeBTJo/KrcTAFyEgYrYNyLlzCUBp+HZ0D6s40XzMpDQi2zHC94FHcFMfR9IFPkLAdGibMMklALXhw3gu4PvA930ObYrmiwVgax+IIAJA4Ki/l7I/GHwb8I1N863roLH7gkf7u8L3CUDqtGotHLXhc//OgG+M0b7OReQA3xe+TwC6JoNKw0dh9DqFb1OhY4TPxSIAucDngI8A2P+XR46ApIrW6pj9mvAZwZ3C11qFdHSdlDk5ovljTXbfrp5r2pE5ZevLVy691+x7/Z1mx+nzzQ+ffbV56PjZZueJs83yi39NhgZo2wtAIGKA6++UhE8sorV+JsNn4fcFpFs/N3x97NT9B1661Fxz9F/N+55407t+6elzzZbll5Pg2YGTiQIdOJJ0jJLwyUV44dNH1h926TP7QIwB/mOvvdN85MAFL3CXMHzyqdebR06+FA3Qmn+6hFqz2/ZLwmeIWvPFdbJMAj7MvP4wx4P8RRiGhr/21KUk6FYQ7nrulSiItoEZAyAv0AZdPi8JnyBU8+XBG1P4tmybNGmuZUj4Nx9/qxd4EYRVR/8RBdHOjOXZegK3bVsSPnUJGj71G1P4BFH6Q4kGcwjAUPDvOZ0HvAjAz5fbLYAtk2bwpw26fF4SvnVJMvl2YvaBbPP7bSNisYIxBPxDb7yTReMFPNv3732jeeqFvwVhYub1cHCK6S8J3z6hU9hO4Zfq6w8B/zPPpAV3GnJon56AaKpvSy2gtqJA9X1Xv18KPt08/YQubdWn8C0kXudY7HFzdiNd10dkHwLY97O9z4e13/rX2MKPUvB5br8WRlL5skzhk9XzfUm+3GVbG36uIM8nJCSFtMbafdvYsQmfUvDtKKRW6il8gj79+DX2c2TTasP/4P5/FtV8+v8WuH5ts2mMo+vPfful4NseiE7dT+Gj1XZ0T3+xi9bzGwufwJLzlFhvXLdUFDzWgMDPB5CKn4nPv+725sr/rigR77WtFlKfEUK5PiuI+Hut0DPwLShtInLB164l9/4nbt5YHD4C4BsDsNUyfe4vB3zrgqReX1jOwLd+P8e0LStQfRqk7bcfW725Cnxfl29s8O3cfEnuOOFjEjANupFlUp/8IHVbE/6nblhfBb6YVbsdE3ybc4CpLcyd0XzA2tk7kgdOhS7fpyoIi1JjPXDsxeLwP7TP7/PJ79vA7XNfXTN5j/dTVp6iaYUr5bXN57tS9ivgUwypNV8K/AXm2LdXHw4P2fq6cLHvX/fMa0Eo9tGnBHIp0HJ916Z0rcmH4wr4vGmreSUXPHbwXF/unL4ViraxfqtxOQK3VIGgwERn9VBmSelqhk741k/bKFEfYGz7VOl84E/+Yg0LM+U1Jv/k6XC1j83wpYzspUL2fd/+py4Zv7esnPDx09r0s9838LMnLvm67xi+TyA2HGsf2WMkT7cdVT4+SCXeJ9CzZWW+lLoTPmDsQM88af/Fd5vm44fyDu58tiWzB0j+w7UGj+kl0VICsu+YVuuJ2XRiRyudF74t8Jg37T9x4d0mV6oXc3/4VNjcA8Pm0WPz+j6Qqe+7tN4V6IkAeOG7tL9vt09OWmtLhW5fAQD8nohaPlfD1zb5NqMX0noYBOHbjB95alfUWAtml/Ocvvhe07X7d82hc95UrtVK2/D4Xfud0q/t+EBbIW4QPo1tZ8XmfFhTF5hdf7P08tvNh5+MG/H76JPnm61/ORsND79ugyyi/tKw9fGtr49R1Fb49kld+H4swrwuuIJbTrw1qd//9KH/dAkJ5q46cK6hUDPGxOtGZ5+neehAr+usHXvc2Nf063X5GNcS81CtVvhAtpE/1sAXQZYUCoLQnAmnPhM1BYwt2abhebyLfF5jax8eQZIuhk8UfPw8ZkRLdyiKLCEAgGfQievIJQB94TMTxg7mpFTs5hAMO5YAo9jpdlHwgWln9QAh51TukMAIeBE+zh17g6Hj9oGPqbXg6df3HZBJEQh6GLYyNyUfEw0fM2LLuxkpijEvIQAxnwHaWh4EwZe5ijkm3+kKnwDPRtZcT2yxZgrg0HfteD1tlNIbi4ZPY7mCv1p9f86dWwC6wEezXeB5WkcIVO7P7AQRhC/VFSfBRwCALeZXtjlMcIy2+gSAWcY8uiV1SYVPIGdHy2iD1EmZfQUBAbTXoUuyY9shGT5mHnMv4NkSiNXy/3QzbbUR10A2K9UNxMLHv/ueyVd7yNbl57n3FHMvwpEMnx8C2gKge9FF++RCUrY2ANSCiAbwLL6YWKQNPgM1wLVaJuerncgBvEsIu+ZdOsEHFKZeGkG2Nfv/1KMBWs5ttwgnJWkIim9xwaf7hj+1Q7P6+ET59O/7mu/U39v+PNfUp8K6M3wa1BZ9cDE5n5njg6bfx9RbK6RBsU+giKAgDFyzrJu37548Vo1gjRE4m6K1x+E1lqD2MC1CYrOIXIuvSEO3T2i/F3wObB/pwkXxXs0Ff0dDuGDleg9LUHuUTiyD67l/WNm+brY3fHyrq+ERgBi/m1NIiEXIadsaxK4CgK9H42ombgS4bF3gub8uAZ5t697wOSCQ7egfDV7bBeibo1uIALquKyQMZMww7XTrhjDvAp2ty9Tj4nL1rLLAp9GRRJfG5TBPGmrXfUrSiQ/E37PVPp/xeLp0uvGH2ieqdwV3gA8FsKltkw0+J0YiXZpGWjiXtKbeYOj7rmh/KOByXl93Ljd42iUrfA5IEOLqgpGIwBSPaRkbfGILO1CDi8KillCe7PCBSwxgawDEz8YUGdQSkDHBJ7fgSiZhSXMEd642LQJfTuTqBiIEpIdLSLKcN3Y7BviYeQJMUQ69JWDu250LtUVR+JyYIMs1GocPS83Fh26ky2dDwydL6DLzCEANC1kcPlBIxboCQbECdupwF5BdfjMUfHoVPm2vGRtVgQ8Y4gDXcDACgGVA0msnhYaAT/7AFluKqSdQLuXfXcpRDb6cnIgf6ZYb1luiWgoSaglBTfjkEVxFICL8bTX20n45t9Xhc/EEMT4rQGMgHAhByWCH66gBnyje1vppgSeoGyr4HQS+SG/bf8QkKCQTV8oUloJPWrgNOgJeqwJK2ttuB4UvF4PJA7TWCLuPhtA7yOkScsPHtJOWdfXX5X4kvilt1aRtQ9tRwOcCaQxMvS8e0I1H/gCt6duAfeHTR2eYlwGYtloAhJugtpQVC0H2fTYa+HKBaPauPQedg0QiAHpLF5L4gUAy1Sp0gc8kCYZZ7QOW9TXpfXFdfQVV2ifndnTw9c1Ri+dLE+sG1vtkD5lMSqyAdQj9t80QfOr30GpA0ycHdsic62tgn+tAiMcIXdp41PDlImlAGtJWDdsGj32NtaBPvWrNluljUWN/G/oeo5fEL0NF79Jesdu5gK9vhoYlNsAiuNLGITglPkOIsDI5x9n1/Zbcnzv4tjEw62ibaxi5BGysD4FblxjDXvvQr+cevm1ALAN17AgE1boIRRcLwe/oVaDVgB5q/MHeX87Xlx382MbBTCMkoYAw9ljz+r1/A0CGDvrgWJN2AAAAAElFTkSuQmCC;rounded=1;fontFamily=Lucida Console;fontSize=14;strokeColor=#007FFF;fillColor=#ffffff;opacity=80;" vertex="1" parent="1">
          <mxGeometry x="330" y="430" width="50" height="50" as="geometry" />
        </mxCell>
        <mxCell id="ZaQ2WHesoQ1tdpj846Ri-17" value="" style="shape=image;verticalLabelPosition=bottom;labelBackgroundColor=#ffffff;verticalAlign=top;aspect=fixed;imageAspect=0;image=data:image/svg+xml,PHN2ZyB4bWxuczpkYz0iaHR0cDovL3B1cmwub3JnL2RjL2VsZW1lbnRzLzEuMS8iIHhtbG5zOmNjPSJodHRwOi8vY3JlYXRpdmVjb21tb25zLm9yZy9ucyMiIHhtbG5zOnJkZj0iaHR0cDovL3d3dy53My5vcmcvMTk5OS8wMi8yMi1yZGYtc3ludGF4LW5zIyIgeG1sbnM6c3ZnPSJodHRwOi8vd3d3LnczLm9yZy8yMDAwL3N2ZyIgeG1sbnM9Imh0dHA6Ly93d3cudzMub3JnLzIwMDAvc3ZnIiB4bWxuczpzb2RpcG9kaT0iaHR0cDovL3NvZGlwb2RpLnNvdXJjZWZvcmdlLm5ldC9EVEQvc29kaXBvZGktMC5kdGQiIHhtbG5zOmlua3NjYXBlPSJodHRwOi8vd3d3Lmlua3NjYXBlLm9yZy9uYW1lc3BhY2VzL2lua3NjYXBlIiB2ZXJzaW9uPSIxLjEiIGlkPSJzdmc1NjAxOCIgaW5rc2NhcGU6dmVyc2lvbj0iMC45Mi4zICgyNDA1NTQ2LCAyMDE4LTAzLTExKSIgc29kaXBvZGk6ZG9jbmFtZT0iYXp1cmVfY29udGFpbmVyLnN2ZyIgeD0iMHB4IiB5PSIwcHgiIHZpZXdCb3g9IjAgMCA2NS41MiA0OC40OSIgeG1sOnNwYWNlPSJwcmVzZXJ2ZSIgd2lkdGg9IjY1LjUxOTk5NyIgaGVpZ2h0PSI0OC40OTAwMDIiPjxtZXRhZGF0YSBpZD0ibWV0YWRhdGE1NTM4Ij48cmRmOlJERj48Y2M6V29yayByZGY6YWJvdXQ9IiI+PGRjOmZvcm1hdD5pbWFnZS9zdmcreG1sPC9kYzpmb3JtYXQ+PGRjOnR5cGUgcmRmOnJlc291cmNlPSJodHRwOi8vcHVybC5vcmcvZGMvZGNtaXR5cGUvU3RpbGxJbWFnZSIvPjxkYzp0aXRsZS8+PC9jYzpXb3JrPjwvcmRmOlJERj48L21ldGFkYXRhPjxkZWZzIGlkPSJkZWZzNTUzNiIvPiYjeGE7PGZpbHRlciBpZD0iZmlsdGVyXzIiPiYjeGE7CTxmZUdhdXNzaWFuQmx1ciBpZD0iZmVHYXVzc2lhbkJsdXI1NTgzOSIgc3RkRGV2aWF0aW9uPSIyIi8+JiN4YTs8L2ZpbHRlcj4mI3hhOzxzb2RpcG9kaTpuYW1lZHZpZXcgYm9yZGVyY29sb3I9IiM2NjY2NjYiIGJvcmRlcm9wYWNpdHk9IjEiIGZpdC1tYXJnaW4tYm90dG9tPSIwIiBmaXQtbWFyZ2luLWxlZnQ9IjAiIGZpdC1tYXJnaW4tcmlnaHQ9IjAiIGZpdC1tYXJnaW4tdG9wPSIwIiBncmlkdG9sZXJhbmNlPSIxMCIgZ3VpZGV0b2xlcmFuY2U9IjEwIiBpZD0ibmFtZWR2aWV3NTYwMjAiIGlua3NjYXBlOmN1cnJlbnQtbGF5ZXI9InN2ZzU2MDE4IiBpbmtzY2FwZTpjeD0iLTMuNDYzNzEzOSIgaW5rc2NhcGU6Y3k9IjIwLjQ1NjkyNyIgaW5rc2NhcGU6cGFnZW9wYWNpdHk9IjAiIGlua3NjYXBlOnBhZ2VzaGFkb3c9IjIiIGlua3NjYXBlOndpbmRvdy1oZWlnaHQ9IjEwMTciIGlua3NjYXBlOndpbmRvdy1tYXhpbWl6ZWQ9IjEiIGlua3NjYXBlOndpbmRvdy13aWR0aD0iMTkyMCIgaW5rc2NhcGU6d2luZG93LXg9Ii04IiBpbmtzY2FwZTp3aW5kb3cteT0iLTgiIGlua3NjYXBlOnpvb209IjguOTExNjU1NyIgb2JqZWN0dG9sZXJhbmNlPSIxMCIgcGFnZWNvbG9yPSIjZmZmZmZmIiBzaG93Z3JpZD0iZmFsc2UiPiYjeGE7CTwvc29kaXBvZGk6bmFtZWR2aWV3PiYjeGE7JiN4YTs8cGF0aCBpZD0icGF0aDU1ODUyIiBpbmtzY2FwZTpjb25uZWN0b3ItY3VydmF0dXJlPSIwIiBzdHlsZT0iZmlsbDojODA0OTk4IiBkPSJNIDMwLjAxLDEyLjMyIDE5LjkyLDE2LjI1IFYgMCBsIDEwLjA5LDMuNTQgeiIvPiYjeGE7JiN4YTs8cGF0aCBpZD0icGF0aDU1ODYwIiBpbmtzY2FwZTpjb25uZWN0b3ItY3VydmF0dXJlPSIwIiBzdHlsZT0iZmlsbDojODA0OTk4IiBkPSJtIDEwLjg4LDIuNzUgdiAxMC42MSBsIDcuNDcsMi44OSBWIDAuMTMgWiBtIDAuNzksOS44MyAtMC40LC0wLjEzIFYgMy42NyBsIDAuNCwtMC4xMyAwLjM5LC0wLjE0IDAuMzksLTAuMTMgdiA5LjU3IGwgLTAuMzksLTAuMTMgeiBtIDEuOTYsMC41MiAtMC41MiwtMC4xMyBWIDMuMTQgbCAwLjUyLC0wLjEzIDAuNTMsLTAuMTMgMC41MiwtMC4xMyB2IDEwLjc0IGwgLTAuNTIsLTAuMTMgeiBtIDIuMzYsMC43OSAtMC42NSwtMC4yNiBWIDIuNDkgbCAwLjY1LC0wLjEzIDAuNjYsLTAuMjcgMC43OCwtMC4yNiB2IDEyLjQ1IGwgLTAuNzgsLTAuMjYgeiIvPiYjeGE7JiN4YTs8cGF0aCBpZD0icGF0aDU1ODY4IiBpbmtzY2FwZTpjb25uZWN0b3ItY3VydmF0dXJlPSIwIiBzdHlsZT0iZmlsbDojODA0OTk4IiBkPSJNIDUzLjQ3LDEyLjMyIDQzLjM4LDE2LjI1IFYgMCBsIDEwLjA5LDMuNTQgeiIvPiYjeGE7JiN4YTs8cGF0aCBpZD0icGF0aDU1ODc2IiBpbmtzY2FwZTpjb25uZWN0b3ItY3VydmF0dXJlPSIwIiBzdHlsZT0iZmlsbDojODA0OTk4IiBkPSJtIDM0LjMzLDIuNzUgdiAxMC42MSBsIDcuNDcsMi44OSBWIDAuMTMgWiBtIDAuNzksOS44MyAtMC40LC0wLjEzIFYgMy42NyBMIDM1LjEyLDMuNTQgMzUuNTEsMy40IDM1LjksMy4yNyB2IDkuNTcgbCAtMC4zOSwtMC4xMyB6IG0gMS45NiwwLjUyIC0wLjUyLC0wLjEzIFYgMy4xNCBsIDAuNTIsLTAuMTMgMC41MywtMC4xMyAwLjUyLC0wLjEzIHYgMTAuNzQgbCAtMC41MiwtMC4xMyB6IG0gMi4zNiwwLjc5IC0wLjY1LC0wLjI2IFYgMi40OSBMIDM5LjQ0LDIuMzYgNDAuMSwyLjA5IDQwLjg4LDEuODMgViAxNC4yOCBMIDQwLjEsMTQuMDIgWiIvPiYjeGE7JiN4YTs8cGF0aCBpZD0icGF0aDU1ODg0IiBpbmtzY2FwZTpjb25uZWN0b3ItY3VydmF0dXJlPSIwIiBzdHlsZT0iZmlsbDojODA0OTk4IiBkPSJNIDMwLjAxLDQ0LjU2IDE5LjkyLDQ4LjQ5IFYgMzIuMjQgbCAxMC4wOSwzLjU0IHoiLz4mI3hhOyYjeGE7PHBhdGggaWQ9InBhdGg1NTg5MiIgaW5rc2NhcGU6Y29ubmVjdG9yLWN1cnZhdHVyZT0iMCIgc3R5bGU9ImZpbGw6IzgwNDk5OCIgZD0iTSAxMC44OCwzNC45OSBWIDQ1LjYgbCA3LjQ3LDIuODkgViAzMi4zNyBaIG0gMC43OSw5LjgzIC0wLjQsLTAuMTMgdiAtOC43OCBsIDAuNCwtMC4xMyAwLjM5LC0wLjE0IDAuMzksLTAuMTMgdiA5LjU3IGwgLTAuMzksLTAuMTMgeiBtIDEuOTYsMC41MiAtMC41MiwtMC4xMyB2IC05LjgzIGwgMC41MiwtMC4xMyAwLjUzLC0wLjEzIDAuNTIsLTAuMTMgViA0NS43MyBMIDE0LjE2LDQ1LjYgWiBtIDIuMzYsMC43OSAtMC42NSwtMC4yNiBWIDM0LjczIGwgMC42NSwtMC4xMyAwLjY2LC0wLjI3IDAuNzgsLTAuMjYgdiAxMi40NSBsIC0wLjc4LC0wLjI2IHoiLz4mI3hhOyYjeGE7PHBhdGggaWQ9InBhdGg1NTkwMCIgaW5rc2NhcGU6Y29ubmVjdG9yLWN1cnZhdHVyZT0iMCIgc3R5bGU9ImZpbGw6IzgwNDk5OCIgZD0iTSA1My40Nyw0NC41NiA0My4zOCw0OC40OSBWIDMyLjI0IGwgMTAuMDksMy41NCB6Ii8+JiN4YTsmI3hhOzxwYXRoIGlkPSJwYXRoNTU5MDgiIGlua3NjYXBlOmNvbm5lY3Rvci1jdXJ2YXR1cmU9IjAiIHN0eWxlPSJmaWxsOiM4MDQ5OTgiIGQ9Ik0gMzQuMzMsMzQuOTkgViA0NS42IGwgNy40NywyLjg5IFYgMzIuMzcgWiBtIDAuNzksOS44MyAtMC40LC0wLjEzIHYgLTguNzggbCAwLjQsLTAuMTMgMC4zOSwtMC4xNCAwLjM5LC0wLjEzIHYgOS41NyBsIC0wLjM5LC0wLjEzIHogbSAxLjk2LDAuNTIgLTAuNTIsLTAuMTMgdiAtOS44MyBsIDAuNTIsLTAuMTMgMC41MywtMC4xMyAwLjUyLC0wLjEzIFYgNDUuNzMgTCAzNy42MSw0NS42IFogbSAyLjM2LDAuNzkgLTAuNjUsLTAuMjYgViAzNC43MyBsIDAuNjUsLTAuMTMgMC42NiwtMC4yNyAwLjc4LC0wLjI2IFYgNDYuNTIgTCA0MC4xLDQ2LjI2IFoiLz4mI3hhOyYjeGE7PHBhdGggaWQ9InBhdGg1NTkxNiIgaW5rc2NhcGU6Y29ubmVjdG9yLWN1cnZhdHVyZT0iMCIgc3R5bGU9ImZpbGw6IzgwNDk5OCIgZD0ibSA0Mi40NiwyOC40NCAtOS45NiwzLjggViAxNi4xMiBsIDkuOTYsMy41NCB6Ii8+JiN4YTsmI3hhOzxwYXRoIGlkPSJwYXRoNTU5MjQiIGlua3NjYXBlOmNvbm5lY3Rvci1jdXJ2YXR1cmU9IjAiIHN0eWxlPSJmaWxsOiM4MDQ5OTgiIGQ9Im0gMjMuMzMsMTguNzQgdiAxMC42MSBsIDcuNDcsMi44OSBWIDE2LjEyIFogbSAwLjc5LDkuODMgLTAuNCwtMC4xMyB2IC04Ljc4IGwgMC40LC0wLjEzIDAuMzksLTAuMTQgMC4zOSwtMC4xMyB2IDkuNTcgTCAyNC41MSwyOC43IFogbSAxLjk2LDAuNjUgLTAuNTIsLTAuMTMgdiAtOS44MyBsIDAuNTIsLTAuMTMgMC41MywtMC4xMyAwLjUyLC0wLjEzIHYgMTAuNzUgbCAtMC41MiwtMC4xNCB6IG0gMi4zNiwwLjc5IC0wLjY1LC0wLjI2IFYgMTguNjEgbCAwLjY1LC0wLjEzIDAuNjYsLTAuMjcgMC43OCwtMC4yNiBWIDMwLjQgTCAyOS4xLDMwLjE0IFoiLz4mI3hhOyYjeGE7PHBhdGggaWQ9InBhdGg1NTkzMiIgaW5rc2NhcGU6Y29ubmVjdG9yLWN1cnZhdHVyZT0iMCIgc3R5bGU9ImZpbGw6IzgwNDk5OCIgZD0ibSAxOS4xMywyOC40NCAtOS45NiwzLjggViAxNi4xMiBsIDkuOTYsMy41NCB6Ii8+JiN4YTsmI3hhOzxwYXRoIGlkPSJwYXRoNTU5NDAiIGlua3NjYXBlOmNvbm5lY3Rvci1jdXJ2YXR1cmU9IjAiIHN0eWxlPSJmaWxsOiM4MDQ5OTgiIGQ9Im0gMCwxOC43NCB2IDEwLjYxIGwgNy40NywyLjg5IFYgMTYuMTIgWiBtIDAuNzksOS44MyAtMC40LC0wLjEzIHYgLTguNzggbCAwLjQsLTAuMTMgMC4zOSwtMC4xNCAwLjM5LC0wLjEzIHYgOS41NyBMIDEuMTgsMjguNyBaIE0gMi43NSwyOS4yMiAyLjIzLDI5LjA5IFYgMTkuMjYgTCAyLjc1LDE5LjEzIDMuMjgsMTkgMy44LDE4Ljg3IFYgMjkuNjIgTCAzLjI4LDI5LjQ4IFogTSA1LjExLDMwLjAxIDQuNDYsMjkuNzUgViAxOC42MSBMIDUuMTEsMTguNDggNS43NywxOC4yMSA2LjU1LDE3Ljk1IFYgMzAuNCBMIDUuNzcsMzAuMTQgWiIvPiYjeGE7JiN4YTs8cGF0aCBpZD0icGF0aDU1OTQ4IiBpbmtzY2FwZTpjb25uZWN0b3ItY3VydmF0dXJlPSIwIiBzdHlsZT0iZmlsbDojODA0OTk4IiBkPSJtIDY1LjUyLDI4LjQ0IC05Ljk2LDMuOCBWIDE2LjEyIGwgOS45NiwzLjU0IHoiLz4mI3hhOyYjeGE7JiN4YTsmI3hhOyYjeGE7JiN4YTsmI3hhOyYjeGE7JiN4YTsmI3hhOyYjeGE7JiN4YTsmI3hhOyYjeGE7JiN4YTsmI3hhOzxwYXRoIGlkPSJwYXRoNTYwMTIiIGlua3NjYXBlOmNvbm5lY3Rvci1jdXJ2YXR1cmU9IjAiIHN0eWxlPSJmaWxsOiM4MDQ5OTgiIGQ9Im0gNDYuMzksMTguNzQgdiAxMC42MSBsIDcuNDcsMi44OSBWIDE2LjEyIFogbSAwLjc5LDkuODMgLTAuNCwtMC4xMyB2IC04Ljc4IGwgMC40LC0wLjEzIDAuMzksLTAuMTQgMC4zOSwtMC4xMyB2IDkuNTcgTCA0Ny41NywyOC43IFogbSAxLjk2LDAuNjUgLTAuNTIsLTAuMTMgdiAtOS44MyBsIDAuNTIsLTAuMTMgMC41MywtMC4xMyAwLjUyLC0wLjEzIHYgMTAuNzUgbCAtMC41MiwtMC4xNCB6IG0gMi4zNiwwLjc5IC0wLjY1LC0wLjI2IFYgMTguNjEgbCAwLjY1LC0wLjEzIDAuNjYsLTAuMjcgMC43OCwtMC4yNiBWIDMwLjQgbCAtMC43OCwtMC4yNiB6Ii8+JiN4YTs8L3N2Zz4=;rounded=0;fontFamily=Helvetica;fontSize=12;strokeColor=#007FFF;fillColor=#E6E6E6;opacity=80;" vertex="1" parent="1">
          <mxGeometry x="224.99999999999994" y="370" width="66" height="48" as="geometry" />
        </mxCell>
        <mxCell id="ZaQ2WHesoQ1tdpj846Ri-18" value="" style="shape=image;verticalLabelPosition=bottom;labelBackgroundColor=#ffffff;verticalAlign=top;aspect=fixed;imageAspect=0;image=data:image/svg+xml,PHN2ZyB4bWxuczpjYz0iaHR0cDovL2NyZWF0aXZlY29tbW9ucy5vcmcvbnMjIiB4bWxuczpkYz0iaHR0cDovL3B1cmwub3JnL2RjL2VsZW1lbnRzLzEuMS8iIHhtbG5zOmlua3NjYXBlPSJodHRwOi8vd3d3Lmlua3NjYXBlLm9yZy9uYW1lc3BhY2VzL2lua3NjYXBlIiB4bWxuczpyZGY9Imh0dHA6Ly93d3cudzMub3JnLzE5OTkvMDIvMjItcmRmLXN5bnRheC1ucyMiIHhtbG5zOnNvZGlwb2RpPSJodHRwOi8vc29kaXBvZGkuc291cmNlZm9yZ2UubmV0L0RURC9zb2RpcG9kaS0wLmR0ZCIgeG1sbnM6c3ZnPSJodHRwOi8vd3d3LnczLm9yZy8yMDAwL3N2ZyIgeG1sbnM9Imh0dHA6Ly93d3cudzMub3JnLzIwMDAvc3ZnIiB4bWxuczp4bGluaz0iaHR0cDovL3d3dy53My5vcmcvMTk5OS94bGluayIgdmVyc2lvbj0iMS4xIiBpZD0ic3ZnMTAzMTA4IiBpbmtzY2FwZTp2ZXJzaW9uPSIwLjkyLjMgKDI0MDU1NDYsIDIwMTgtMDMtMTEpIiBzb2RpcG9kaTpkb2NuYW1lPSJwb3N0Z3Jlc3FsXzEuc3ZnIiB4PSIwcHgiIHk9IjBweCIgdmlld0JveD0iMCAwIDUyLjg4IDYwLjA3IiBzdHlsZT0iZW5hYmxlLWJhY2tncm91bmQ6bmV3IDAgMCA1Mi44OCA2MC4wNzsiIHhtbDpzcGFjZT0icHJlc2VydmUiPiYjeGE7PHNvZGlwb2RpOm5hbWVkdmlldyBib3JkZXJjb2xvcj0iIzY2NjY2NiIgYm9yZGVyb3BhY2l0eT0iMSIgZml0LW1hcmdpbi1ib3R0b209IjAiIGZpdC1tYXJnaW4tbGVmdD0iMCIgZml0LW1hcmdpbi1yaWdodD0iMCIgZml0LW1hcmdpbi10b3A9IjAiIGdyaWR0b2xlcmFuY2U9IjEwIiBndWlkZXRvbGVyYW5jZT0iMTAiIGlkPSJuYW1lZHZpZXcxMDMxMTAiIGlua3NjYXBlOmN1cnJlbnQtbGF5ZXI9InN2ZzEwMzEwOCIgaW5rc2NhcGU6Y3g9IjM1LjI1IiBpbmtzY2FwZTpjeT0iNDAuMDQ1MTk5IiBpbmtzY2FwZTpwYWdlb3BhY2l0eT0iMCIgaW5rc2NhcGU6cGFnZXNoYWRvdz0iMiIgaW5rc2NhcGU6d2luZG93LWhlaWdodD0iMTAxNyIgaW5rc2NhcGU6d2luZG93LW1heGltaXplZD0iMSIgaW5rc2NhcGU6d2luZG93LXdpZHRoPSIxOTIwIiBpbmtzY2FwZTp3aW5kb3cteD0iLTgiIGlua3NjYXBlOndpbmRvdy15PSItOCIgaW5rc2NhcGU6em9vbT0iMTAuODI0NDc2IiBvYmplY3R0b2xlcmFuY2U9IjEwIiBwYWdlY29sb3I9IiNmZmZmZmYiIHNob3dncmlkPSJmYWxzZSI+JiN4YTsJPC9zb2RpcG9kaTpuYW1lZHZpZXc+JiN4YTs8ZyBpZD0iZzEwMzEwNiI+JiN4YTsJPHRpdGxlIGlkPSJ0aXRsZTEwMjk2OSI+UGFnZS0xPC90aXRsZT4mI3hhOwk8ZyBpZD0iZ3JvdXAzNzIyLTEiPiYjeGE7CQk8dGl0bGUgaWQ9InRpdGxlMTAyOTcxIj5Qb3N0Z3JlU1FMICMxPC90aXRsZT4mI3hhOwkJPGcgaWQ9InNoYXBlMzcyMy0yIj4mI3hhOwkJCTx0aXRsZSBpZD0idGl0bGUxMDI5NzMiPkRhdGFiYXNlICMyPC90aXRsZT4mI3hhOwkJCTxwYXRoIGlkPSJwYXRoMTAyOTc1IiBpbmtzY2FwZTpjb25uZWN0b3ItY3VydmF0dXJlPSIwIiBzdHlsZT0iZmlsbDojM0Y1NzY1OyIgZD0iTTI2LjcxLDBjMTQuNjQsMCwyNi4xNywzLjkzLDI2LjE3LDguMzEgICAgIGMwLDQzLjU0LDAsNDMuNTQsMCw0My41NGMwLDQuODMtMTEuNTMsOC4yMi0yNi4xNyw4LjIyQzEyLjE1LDYwLjA3LDAsNTYuNjgsMCw1MS44NUMwLDguMzEsMCw4LjMxLDAsOC4zMSAgICAgQzAsMy45MywxMi4xNSwwLDI2LjcxLDB6IE0yNi43MSwxNC4yMWMxMi41OSwwLDIyLjY4LTIuOTUsMjIuNjgtNS45YzAtMi44Ni0xMC4wOS01LjM2LTIyLjY4LTUuMzZjLTEyLjYsMC0yMi42LDIuNS0yMi42LDUuMzYgICAgIEM0LjExLDExLjI2LDE0LjExLDE0LjIxLDI2LjcxLDE0LjIxeiIvPiYjeGE7CQk8L2c+JiN4YTsJCTxnIGlkPSJncm91cDM3MjQtNCIgdHJhbnNmb3JtPSJ0cmFuc2xhdGUoOS44NDcyNCwtNS40NTA1MykiPiYjeGE7CQkJPHRpdGxlIGlkPSJ0aXRsZTEwMjk3OCI+U2hlZXQuMzcyNDwvdGl0bGU+JiN4YTsJCQk8ZyBpZD0ic2hhcGUzNzI1LTUiIHRyYW5zZm9ybT0idHJhbnNsYXRlKDE1LjQ5NikiPiYjeGE7CQkJCTx0aXRsZSBpZD0idGl0bGUxMDI5ODAiPnBhdGgyNDY2LTU8L3RpdGxlPiYjeGE7CQkJCTxwYXRoIGlkPSJwYXRoMTAyOTgyIiBpbmtzY2FwZTpjb25uZWN0b3ItY3VydmF0dXJlPSIwIiBzdHlsZT0iZmlsbDpub25lOyIgZD0iTTAuMTEsNDkuMzFDMCw1My4zOCwwLjMsNTYuNjEsMC42OSw1Ny42ICAgICAgYzAuNCwxLDEuNzIsMi40Nyw0LjY1LDEuODRjMi40NS0wLjUyLDMuNTctMS41NCwzLjk2LTMuNzhjMC4yOC0xLjY1LDAuNjgtNS4wNiwwLjc1LTZMMC4xMSw0OS4zMXoiLz4mI3hhOwkJCQkmI3hhOwkJCQkJPHBhdGggaWQ9InBhdGgxMDI5ODQiIGlua3NjYXBlOmNvbm5lY3Rvci1jdXJ2YXR1cmU9IjAiIHN0eWxlPSJmaWxsOm5vbmU7c3Ryb2tlOiMzRjU3NjU7c3Ryb2tlLWxpbmVjYXA6cm91bmQ7c3Ryb2tlLWxpbmVqb2luOnJvdW5kO3N0cm9rZS1taXRlcmxpbWl0OjM7IiBkPSIgICAgICBNMC4xMSw0OS4zMUMwLDUzLjM4LDAuMyw1Ni42MSwwLjY5LDU3LjZjMC40LDEsMS43MiwyLjQ3LDQuNjUsMS44NGMyLjQ1LTAuNTIsMy41Ny0xLjU0LDMuOTYtMy43OGMwLjI4LTEuNjUsMC42OC01LjA2LDAuNzUtNiIvPiYjeGE7CQkJPC9nPiYjeGE7CQkJPGcgaWQ9InNoYXBlMzcyNi04IiB0cmFuc2Zvcm09InRyYW5zbGF0ZSgwLC00Ljg1MzQ2KSI+JiN4YTsJCQkJPHRpdGxlIGlkPSJ0aXRsZTEwMjk4NyI+cGF0aDI0NjgtMDwvdGl0bGU+JiN4YTsJCQkJPHBhdGggaWQ9InBhdGgxMDI5ODkiIGlua3NjYXBlOmNvbm5lY3Rvci1jdXJ2YXR1cmU9IjAiIHN0eWxlPSJmaWxsOm5vbmU7IiBkPSJNMTMuNSwzMy4zYzAsMC0xMy41LTUuNDItMTIuODgsNi45MSAgICAgIGMwLjEzLDIuNjMsMy45OSwxOS44Niw4LjMyLDE0LjY2YzIuNjItMi40NCwzLjAxLTMuNCwzLjAxLTMuNEwxMy41LDMzLjN6Ii8+JiN4YTsJCQkJJiN4YTsJCQkJCTxwYXRoIGlkPSJwYXRoMTAyOTkxIiBpbmtzY2FwZTpjb25uZWN0b3ItY3VydmF0dXJlPSIwIiBzdHlsZT0iZmlsbDpub25lO3N0cm9rZTojM0Y1NzY1O3N0cm9rZS1saW5lY2FwOnJvdW5kO3N0cm9rZS1saW5lam9pbjpyb3VuZDtzdHJva2UtbWl0ZXJsaW1pdDozOyIgZD0iICAgICAgTTEzLjUsMzMuM2MwLDAtMTMuNS01LjQyLTEyLjg4LDYuOTFjMC4xMywyLjYzLDMuOTksMTkuODYsOC4zMiwxNC42NmMyLjYyLTIuNDQsMy4wMS0zLjQsMy4wMS0zLjQiLz4mI3hhOwkJCTwvZz4mI3hhOwkJCTxnIGlkPSJzaGFwZTM3MjctMTEiIHRyYW5zZm9ybT0idHJhbnNsYXRlKDE5LjI2NjgsLTEzLjA3NjgpIj4mI3hhOwkJCQk8dGl0bGUgaWQ9InRpdGxlMTAyOTk0Ij5wYXRoMjQ3MC03PC90aXRsZT4mI3hhOwkJCQk8cGF0aCBpZD0icGF0aDEwMjk5NiIgaW5rc2NhcGU6Y29ubmVjdG9yLWN1cnZhdHVyZT0iMCIgc3R5bGU9ImZpbGw6IzNGNTc2NTsiIGQ9Ik0wLjQ2LDQwLjU0QzAsNDAuNjgsNy44NCwzNy42NywxMi4zLDQzLjM2ICAgICAgYzEuNTcsMi4wMi0wLjI1LDEwLjI0LTQuNjIsMTYuNzFMMC40Niw0MC41NHoiLz4mI3hhOwkJCQkmI3hhOwkJCQkJPHBhdGggaWQ9InBhdGgxMDI5OTgiIGlua3NjYXBlOmNvbm5lY3Rvci1jdXJ2YXR1cmU9IjAiIHN0eWxlPSJmaWxsOm5vbmU7c3Ryb2tlOiMzRjU3NjU7c3Ryb2tlLWxpbmVjYXA6cm91bmQ7c3Ryb2tlLWxpbmVqb2luOnJvdW5kO3N0cm9rZS1taXRlcmxpbWl0OjM7IiBkPSIgICAgICBNMC40Niw0MC41NEMwLDQwLjY4LDcuODQsMzcuNjcsMTIuMyw0My4zNmMxLjU3LDIuMDItMC4yNSwxMC4yNC00LjYyLDE2LjcxIi8+JiN4YTsJCQk8L2c+JiN4YTsJCQk8ZyBpZD0ic2hhcGUzNzI4LTE0IiB0cmFuc2Zvcm09InRyYW5zbGF0ZSg4LjkxMTY5LC05Ljc0ODU4KSI+JiN4YTsJCQkJPHRpdGxlIGlkPSJ0aXRsZTEwMzAwMSI+cGF0aDI0NzItMjwvdGl0bGU+JiN4YTsJCQkJPHBhdGggaWQ9InBhdGgxMDMwMDMiIGlua3NjYXBlOmNvbm5lY3Rvci1jdXJ2YXR1cmU9IjAiIHN0eWxlPSJmaWxsOm5vbmU7IiBkPSJNMTguMDQsNTUuNDFjMCwwLDAuMjgsMS40LDQuNDIsMC41NSAgICAgIGMxLjgxLTAuMzcsMC43MiwyLjM4LTEuMTIsMy4yM2MtMS41MSwwLjctNC44OCwwLjg4LTQuOTQtMC4wOEMxNi4yNiw1Ni42MSwxOC4xOCw1Ni4wNCwxOC4wNCw1NS40MSAgICAgIGMtMC4xMy0wLjU2LTAuOTgsMC4yMi0xLjU1LTEuMTZjLTAuNS0xLjItNi44MS0xMC40MiwxLjc1LTkuMDVjMC4zMS0wLjA3LTIuMjMtOC4xNC0xMC4yNC04LjI3Yy04LTAuMTMtNy43NCw5Ljg0LTcuNzQsOS44NCAgICAgIEwxOC4wNCw1NS40MXoiLz4mI3hhOwkJCQkmI3hhOwkJCQkJPHBhdGggaWQ9InBhdGgxMDMwMDUiIGlua3NjYXBlOmNvbm5lY3Rvci1jdXJ2YXR1cmU9IjAiIHN0eWxlPSJmaWxsOm5vbmU7c3Ryb2tlOiMzRjU3NjU7c3Ryb2tlLWxpbmVjYXA6cm91bmQ7c3Ryb2tlLWxpbmVqb2luOnJvdW5kO3N0cm9rZS1taXRlcmxpbWl0OjM7IiBkPSIgICAgICBNMTguMDQsNTUuNDFjMCwwLDAuMjgsMS40LDQuNDIsMC41NWMxLjgxLTAuMzcsMC43MiwyLjM4LTEuMTIsMy4yM2MtMS41MSwwLjctNC44OCwwLjg4LTQuOTQtMC4wOCAgICAgIEMxNi4yNiw1Ni42MSwxOC4xOCw1Ni4wNCwxOC4wNCw1NS40MWMtMC4xMy0wLjU2LTAuOTgsMC4yMi0xLjU1LTEuMTZjLTAuNS0xLjItNi44MS0xMC40MiwxLjc1LTkuMDUgICAgICBjMC4zMS0wLjA3LTIuMjMtOC4xNC0xMC4yNC04LjI3Yy04LTAuMTMtNy43NCw5Ljg0LTcuNzQsOS44NCIvPiYjeGE7CQkJPC9nPiYjeGE7CQkJPGcgaWQ9InNoYXBlMzcyOS0xNyIgdHJhbnNmb3JtPSJ0cmFuc2xhdGUoOC41NTcwNCwtOC4yMzMxNykiPiYjeGE7CQkJCTx0aXRsZSBpZD0idGl0bGUxMDMwMDgiPnBhdGgyNDc0LTc8L3RpdGxlPiYjeGE7CQkJCSYjeGE7CQkJCQk8cGF0aCBpZD0icGF0aDEwMzAxMCIgaW5rc2NhcGU6Y29ubmVjdG9yLWN1cnZhdHVyZT0iMCIgc3R5bGU9ImZpbGw6bm9uZTtzdHJva2U6IzNGNTc2NTtzdHJva2UtbGluZWNhcDpyb3VuZDtzdHJva2UtbGluZWpvaW46cm91bmQ7c3Ryb2tlLW1pdGVybGltaXQ6MzsiIGQ9IiAgICAgIE01LjI3LDU2LjA4Yy0xLjExLDEuMjUtMC43OCwxLjQ3LTMuMDEsMS45M0MwLDU4LjQ3LDEuMzMsNTguOTMsMi4xOSw1OS4xOGMxLjg2LDAuMzQsMy4zMiwwLjg5LDUuMTItMS4wMiAgICAgIGMwLjUtMC43LTAuMDEtMi4xMi0wLjY5LTIuNDFDNi4yOSw1NS42Miw1Ljg0LDU1LjQ0LDUuMjcsNTYuMDh6Ii8+JiN4YTsJCQk8L2c+JiN4YTsJCQk8ZyBpZD0ic2hhcGUzNzMwLTE5IiB0cmFuc2Zvcm09InRyYW5zbGF0ZSg4LjY2MjMyLC0xMi4yNDU1KSI+JiN4YTsJCQkJPHRpdGxlIGlkPSJ0aXRsZTEwMzAxMyI+cGF0aDI0NzYtMTwvdGl0bGU+JiN4YTsJCQkJPHBhdGggaWQ9InBhdGgxMDMwMTUiIGlua3NjYXBlOmNvbm5lY3Rvci1jdXJ2YXR1cmU9IjAiIHN0eWxlPSJmaWxsOm5vbmU7IiBkPSJNNS4xLDYwLjA3Yy0wLjEyLTAuNzMsMC4yNC0xLjYsMC42MS0yLjYyICAgICAgYzAuNTctMS41MywxLjg5LTMuMDYsMC44NC03LjkyYy0wLjc5LTMuNjItNi4wMy0wLjc1LTYuMDQtMC4yNmMwLDAuNDksMC4yNCwyLjQ5LTAuMDksNC44MWMtMC40MiwzLjAzLDEuOTMsNS42LDQuNjUsNS4zNCAgICAgIEw1LjEsNjAuMDd6Ii8+JiN4YTsJCQkJJiN4YTsJCQkJCTxwYXRoIGlkPSJwYXRoMTAzMDE3IiBpbmtzY2FwZTpjb25uZWN0b3ItY3VydmF0dXJlPSIwIiBzdHlsZT0iZmlsbDpub25lO3N0cm9rZTojMDAwMDAwO3N0cm9rZS1saW5lY2FwOnJvdW5kO3N0cm9rZS1saW5lam9pbjpyb3VuZDtzdHJva2UtbWl0ZXJsaW1pdDozOyIgZD0iICAgICAgTTUuMSw2MC4wN2MtMC4xMi0wLjczLDAuMjQtMS42LDAuNjEtMi42MmMwLjU3LTEuNTMsMS44OS0zLjA2LDAuODQtNy45MmMtMC43OS0zLjYyLTYuMDMtMC43NS02LjA0LTAuMjYgICAgICBjMCwwLjQ5LDAuMjQsMi40OS0wLjA5LDQuODFjLTAuNDIsMy4wMywxLjkzLDUuNiw0LjY1LDUuMzQiLz4mI3hhOwkJCTwvZz4mI3hhOwkJCTxnIGlkPSJzaGFwZTM3MzEtMjIiIHRyYW5zZm9ybT0idHJhbnNsYXRlKDEyLjQ4NTQsLTIyLjM4OCkiPiYjeGE7CQkJCTx0aXRsZSBpZD0idGl0bGUxMDMwMjAiPnBhdGgyNDc4LTQ8L3RpdGxlPiYjeGE7CQkJCTxwYXRoIGlkPSJwYXRoMTAzMDIyIiBpbmtzY2FwZTpjb25uZWN0b3ItY3VydmF0dXJlPSIwIiBzdHlsZT0iZmlsbDpub25lO3N0cm9rZTojMDAwMDAwO3N0cm9rZS1taXRlcmxpbWl0OjM7IiBkPSJNMC4wMiw1OS4zNCAgICAgIEMwLDU5LjUxLDAuMzMsNTkuOTUsMC43Niw2MC4wMWMwLjQzLDAuMDYsMC44LTAuMjksMC44Mi0wLjQ1YzAuMDMtMC4xNy0wLjMtMC4zNi0wLjczLTAuNDJDMC40MSw1OS4wOCwwLjA1LDU5LjE3LDAuMDIsNTkuMzR6Ii8+JiN4YTsJCQk8L2c+JiN4YTsJCQk8ZyBpZD0ic2hhcGUzNzMyLTI0IiB0cmFuc2Zvcm09InRyYW5zbGF0ZSgyNC4wMjY0LC0yMi43Mjk1KSI+JiN4YTsJCQkJPHRpdGxlIGlkPSJ0aXRsZTEwMzAyNSI+cGF0aDI0ODAtODwvdGl0bGU+JiN4YTsJCQkJPHBhdGggaWQ9InBhdGgxMDMwMjciIGlua3NjYXBlOmNvbm5lY3Rvci1jdXJ2YXR1cmU9IjAiIHN0eWxlPSJmaWxsOm5vbmU7c3Ryb2tlOiMwMDAwMDA7c3Ryb2tlLW1pdGVybGltaXQ6MzsiIGQ9Ik0xLjU4LDU5LjM0ICAgICAgYzAuMDMsMC4xNy0wLjMsMC42MS0wLjc0LDAuNjdjLTAuNDMsMC4wNi0wLjc5LTAuMjktMC44Mi0wLjQ1QzAsNTkuMzksMC4zMyw1OS4yLDAuNzYsNTkuMTRTMS41Niw1OS4xNywxLjU4LDU5LjM0eiIvPiYjeGE7CQkJPC9nPiYjeGE7CQkJPGcgaWQ9InNoYXBlMzczMy0yNiIgdHJhbnNmb3JtPSJ0cmFuc2xhdGUoMjYuMjI5OCwtMTQuMzIzNSkiPiYjeGE7CQkJCTx0aXRsZSBpZD0idGl0bGUxMDMwMzAiPnBhdGgyNDgyLTQ8L3RpdGxlPiYjeGE7CQkJCTxwYXRoIGlkPSJwYXRoMTAzMDMyIiBpbmtzY2FwZTpjb25uZWN0b3ItY3VydmF0dXJlPSIwIiBzdHlsZT0iZmlsbDpub25lOyIgZD0iTTAuOTIsNDkuNzdjMC4wNywxLjMyLTAuMjgsMi4yMS0wLjMzLDMuNjEgICAgICBDMC41Miw1NS40MSwxLjU2LDU3Ljc0LDAsNjAuMDdMMC45Miw0OS43N3oiLz4mI3hhOwkJCQkmI3hhOwkJCQkJPHBhdGggaWQ9InBhdGgxMDMwMzQiIGlua3NjYXBlOmNvbm5lY3Rvci1jdXJ2YXR1cmU9IjAiIHN0eWxlPSJmaWxsOm5vbmU7c3Ryb2tlOiMwMDAwMDA7c3Ryb2tlLWxpbmVjYXA6cm91bmQ7c3Ryb2tlLWxpbmVqb2luOnJvdW5kO3N0cm9rZS1taXRlcmxpbWl0OjM7IiBkPSIgICAgICBNMC45Miw0OS43N2MwLjA3LDEuMzItMC4yOCwyLjIxLTAuMzMsMy42MUMwLjUyLDU1LjQxLDEuNTYsNTcuNzQsMCw2MC4wNyIvPiYjeGE7CQkJPC9nPiYjeGE7CQkJPGcgaWQ9InNoYXBlMzczNC0yOSIgdHJhbnNmb3JtPSJ0cmFuc2xhdGUoMTAuNjE3NiwtMTEuMzI0MSkiPiYjeGE7CQkJCTx0aXRsZSBpZD0idGl0bGUxMDMwMzciPnBhdGgxMTY3ODwvdGl0bGU+JiN4YTsJCQkJJiN4YTsJCQkJCTxwYXRoIGlkPSJwYXRoMTAzMDM5IiBpbmtzY2FwZTpjb25uZWN0b3ItY3VydmF0dXJlPSIwIiBzdHlsZT0iZmlsbDojM0Y1NzY1O3N0cm9rZTojM0Y1NzY1O3N0cm9rZS1saW5lY2FwOnNxdWFyZTtzdHJva2UtbWl0ZXJsaW1pdDozOyIgZD0iICAgICAgTTAuNTEsNTguNDhsMi41Ni0wLjA2bC0xLjEyLDEuNjVMMCw1OS45TDAuNTEsNTguNDh6Ii8+JiN4YTsJCQk8L2c+JiN4YTsJCQk8ZyBpZD0ic2hhcGUzNzM1LTMxIiB0cmFuc2Zvcm09InRyYW5zbGF0ZSgwLjk5ODM3OSwtMC44ODYwNTQpIj4mI3hhOwkJCQk8dGl0bGUgaWQ9InRpdGxlMTAzMDQyIj5wYXRoMjQ2NDwvdGl0bGU+JiN4YTsJCQkJJiN4YTsJCQkJCTxwYXRoIGlkPSJwYXRoMTAzMDQ0IiBpbmtzY2FwZTpjb25uZWN0b3ItY3VydmF0dXJlPSIwIiBzdHlsZT0iZmlsbDojM0Y1NzY1O3N0cm9rZTojRkZGRkZGO3N0cm9rZS1saW5lY2FwOnJvdW5kO3N0cm9rZS1saW5lam9pbjpyb3VuZDtzdHJva2UtbWl0ZXJsaW1pdDozOyIgZD0iICAgICAgTTI5LjU3LDQ3LjgyYy0zLjgxLDAuNzktNC4wNy0wLjUtNC4wNy0wLjVjNC4wMi01Ljk3LDUuNy0xMy41NCw0LjI1LTE1LjRjLTMuOTYtNS4wNi0xMC44MS0yLjY2LTEwLjkyLTIuNmgtMC4wNCAgICAgIGMtMC43NS0wLjE1LTEuNi0wLjI0LTIuNTQtMC4yNmMtMS43My0wLjAzLTMuMDMsMC40NS00LjAzLDEuMmMwLDAtMTIuMjItNS4wMy0xMS42NSw2LjM0YzAuMTIsMi40MiwzLjQ3LDE4LjMsNy40NiwxMy41ICAgICAgYzEuNDUtMS43NSwyLjg2LTMuMjQsMi44Ni0zLjI0YzAuNywwLjQ3LDEuNTQsMC43MSwyLjQyLDAuNjJsMC4wNy0wLjA2Yy0wLjAyLDAuMjItMC4wMSwwLjQzLDAuMDMsMC42OSAgICAgIGMtMS4wMywxLjE0LTAuNzMsMS4zNS0yLjc5LDEuNzdjLTIuMDgsMC40My0wLjg1LDEuMTktMC4wNiwxLjM5YzAuOTcsMC4yNCwzLjIxLDAuNTgsNC43Mi0xLjUzbC0wLjA2LDAuMjQgICAgICBjMC40LDAuMzIsMC42OCwyLjEsMC42NCwzLjcxYy0wLjA1LDEuNjEtMC4wOCwyLjcxLDAuMjQsMy41OGMwLjMxLDAuODYsMC42MywyLjgsMy4zMywyLjIyYzIuMjYtMC40OCwzLjQzLTEuNzMsMy41OS0zLjgzICAgICAgYzAuMTItMS40OCwwLjM4LTEuMjYsMC4zOS0yLjU5bDAuMjEtMC42M2MwLjI1LTIuMDIsMC4wNC0yLjY3LDEuNDMtMi4zNmwwLjM0LDAuMDNjMS4wMiwwLjA0LDIuMzYtMC4xNywzLjE1LTAuNTMgICAgICBDMzAuMjMsNDguNzksMzEuMjQsNDcuNDgsMjkuNTcsNDcuODJ6Ii8+JiN4YTsJCQk8L2c+JiN4YTsJCQk8ZyBpZD0ic2hhcGUzNzM2LTMzIiB0cmFuc2Zvcm09InRyYW5zbGF0ZSgxNi4zMzY1LC0wLjgzMzg5OSkiPiYjeGE7CQkJCTx0aXRsZSBpZD0idGl0bGUxMDMwNDciPnBhdGgyNDY2PC90aXRsZT4mI3hhOwkJCQk8cGF0aCBpZD0icGF0aDEwMzA0OSIgaW5rc2NhcGU6Y29ubmVjdG9yLWN1cnZhdHVyZT0iMCIgc3R5bGU9ImZpbGw6IzNGNTc2NTsiIGQ9Ik0wLjEsNDguOTNjLTAuMSwzLjc1LDAuMDMsNy41MiwwLjQsOC40NCAgICAgIHMxLjE1LDIuNywzLjg1LDIuMTJjMi4yNi0wLjQ4LDMuMDgtMS40MiwzLjQ0LTMuNDhjMC4yNi0xLjUyLDAuNzctNS43NSwwLjgzLTYuNjFMMC4xLDQ4LjkzeiIvPiYjeGE7CQkJCSYjeGE7CQkJCQk8cGF0aCBpZD0icGF0aDEwMzA1MSIgaW5rc2NhcGU6Y29ubmVjdG9yLWN1cnZhdHVyZT0iMCIgc3R5bGU9ImZpbGw6bm9uZTtzdHJva2U6I0ZGRkZGRjtzdHJva2UtbGluZWNhcDpyb3VuZDtzdHJva2UtbGluZWpvaW46cm91bmQ7c3Ryb2tlLW1pdGVybGltaXQ6MzsiIGQ9IiAgICAgIE0wLjEsNDguOTNjLTAuMSwzLjc1LDAuMDMsNy41MiwwLjQsOC40NHMxLjE1LDIuNywzLjg1LDIuMTJjMi4yNi0wLjQ4LDMuMDgtMS40MiwzLjQ0LTMuNDhjMC4yNi0xLjUyLDAuNzctNS43NSwwLjgzLTYuNjEiLz4mI3hhOwkJCTwvZz4mI3hhOwkJCTxnIGlkPSJzaGFwZTM3MzctMzYiIHRyYW5zZm9ybT0idHJhbnNsYXRlKDAuOTcxMjA0LC02LjEwNzUzKSI+JiN4YTsJCQkJPHRpdGxlIGlkPSJ0aXRsZTEwMzA1NCI+cGF0aDI0Njg8L3RpdGxlPiYjeGE7CQkJCTxwYXRoIGlkPSJwYXRoMTAzMDU2IiBpbmtzY2FwZTpjb25uZWN0b3ItY3VydmF0dXJlPSIwIiBzdHlsZT0iZmlsbDojM0Y1NzY1OyIgZD0iTTEyLjIzLDM1LjRjMCwwLTEyLjIzLTUtMTEuNjYsNi4zNyAgICAgIGMwLjEyLDIuNDIsMy40NywxOC4zLDcuNDYsMTMuNWMxLjQ1LTEuNzUsMi43Ny0zLjEzLDIuNzctMy4xM0wxMi4yMywzNS40eiIvPiYjeGE7CQkJCSYjeGE7CQkJCQk8cGF0aCBpZD0icGF0aDEwMzA1OCIgaW5rc2NhcGU6Y29ubmVjdG9yLWN1cnZhdHVyZT0iMCIgc3R5bGU9ImZpbGw6bm9uZTtzdHJva2U6I0ZGRkZGRjtzdHJva2UtbGluZWNhcDpyb3VuZDtzdHJva2UtbGluZWpvaW46cm91bmQ7c3Ryb2tlLW1pdGVybGltaXQ6MzsiIGQ9IiAgICAgIE0xMi4yMywzNS40YzAsMC0xMi4yMy01LTExLjY2LDYuMzdjMC4xMiwyLjQyLDMuNDcsMTguMyw3LjQ2LDEzLjVjMS40NS0xLjc1LDIuNzctMy4xMywyLjc3LTMuMTMiLz4mI3hhOwkJCTwvZz4mI3hhOwkJCTxnIGlkPSJzaGFwZTM3MzgtMzkiIHRyYW5zZm9ybT0idHJhbnNsYXRlKDE5LjM4NjcsLTEzLjY4NjIpIj4mI3hhOwkJCQk8dGl0bGUgaWQ9InRpdGxlMTAzMDYxIj5wYXRoMjQ3MDwvdGl0bGU+JiN4YTsJCQkJPHBhdGggaWQ9InBhdGgxMDMwNjMiIGlua3NjYXBlOmNvbm5lY3Rvci1jdXJ2YXR1cmU9IjAiIHN0eWxlPSJmaWxsOiMzRjU3NjU7IiBkPSJNMC40Miw0Mi4wN0MwLDQyLjIsNy4yMywzOS40MywxMS4zNCw0NC42NyAgICAgIGMxLjQ1LDEuODYtMC4yNCw5LjQzLTQuMjYsMTUuNEwwLjQyLDQyLjA3eiIvPiYjeGE7CQkJCSYjeGE7CQkJCQk8cGF0aCBpZD0icGF0aDEwMzA2NSIgaW5rc2NhcGU6Y29ubmVjdG9yLWN1cnZhdHVyZT0iMCIgc3R5bGU9ImZpbGw6bm9uZTtzdHJva2U6I0ZGRkZGRjtzdHJva2UtbGluZWNhcDpyb3VuZDtzdHJva2UtbGluZWpvaW46cm91bmQ7c3Ryb2tlLW1pdGVybGltaXQ6MzsiIGQ9IiAgICAgIE0wLjQyLDQyLjA3QzAsNDIuMiw3LjIzLDM5LjQzLDExLjM0LDQ0LjY3YzEuNDUsMS44Ni0wLjI0LDkuNDMtNC4yNiwxNS40Ii8+JiN4YTsJCQk8L2c+JiN4YTsJCQk8ZyBpZD0ic2hhcGUzNzM5LTQyIiB0cmFuc2Zvcm09InRyYW5zbGF0ZSg5Ljg0MzI3LC0xMC42MTg5KSI+JiN4YTsJCQkJPHRpdGxlIGlkPSJ0aXRsZTEwMzA2OCI+cGF0aDI0NzI8L3RpdGxlPiYjeGE7CQkJCTxwYXRoIGlkPSJwYXRoMTAzMDcwIiBpbmtzY2FwZTpjb25uZWN0b3ItY3VydmF0dXJlPSIwIiBzdHlsZT0iZmlsbDojM0Y1NzY1OyIgZD0iTTE2LjYzLDU3YzAsMCwwLjI2LDEuMjksNC4wNywwLjUxICAgICAgYzEuNjctMC4zNSwwLjY2LDAuOTctMS4wMywxLjc1Yy0xLjM5LDAuNjUtNC41LDAuODEtNC41Ni0wLjA4QzE0Ljk4LDU2Ljg4LDE2Ljc1LDU3LjU4LDE2LjYzLDU3ICAgICAgYy0wLjEyLTAuNTEtMC45MS0xLjAyLTEuNDMtMi4yOWMtMC40Ni0xLjExLTYuMjctOS42MSwxLjYxLTguMzVjMC4yOS0wLjA2LTIuMDYtNy40OS05LjQ0LTcuNjFDMCwzOC42MiwwLjI0LDQ3LjgxLDAuMjQsNDcuODEgICAgICBMMTYuNjMsNTd6Ii8+JiN4YTsJCQkJJiN4YTsJCQkJCTxwYXRoIGlkPSJwYXRoMTAzMDcyIiBpbmtzY2FwZTpjb25uZWN0b3ItY3VydmF0dXJlPSIwIiBzdHlsZT0iZmlsbDpub25lO3N0cm9rZTojRkZGRkZGO3N0cm9rZS1saW5lY2FwOnJvdW5kO3N0cm9rZS1saW5lam9pbjpyb3VuZDtzdHJva2UtbWl0ZXJsaW1pdDozOyIgZD0iICAgICAgTTE2LjYzLDU3YzAsMCwwLjI2LDEuMjksNC4wNywwLjUxYzEuNjctMC4zNSwwLjY2LDAuOTctMS4wMywxLjc1Yy0xLjM5LDAuNjUtNC41LDAuODEtNC41Ni0wLjA4ICAgICAgQzE0Ljk4LDU2Ljg4LDE2Ljc1LDU3LjU4LDE2LjYzLDU3Yy0wLjEyLTAuNTEtMC45MS0xLjAyLTEuNDMtMi4yOWMtMC40Ni0xLjExLTYuMjctOS42MSwxLjYxLTguMzUgICAgICBjMC4yOS0wLjA2LTIuMDYtNy40OS05LjQ0LTcuNjFDMCwzOC42MiwwLjI0LDQ3LjgxLDAuMjQsNDcuODEiLz4mI3hhOwkJCTwvZz4mI3hhOwkJCTxnIGlkPSJzaGFwZTM3NDAtNDUiIHRyYW5zZm9ybT0idHJhbnNsYXRlKDkuNTE2NDIsLTkuMTUxNSkiPiYjeGE7CQkJCTx0aXRsZSBpZD0idGl0bGUxMDMwNzUiPnBhdGgyNDc0PC90aXRsZT4mI3hhOwkJCQkmI3hhOwkJCQkJPHBhdGggaWQ9InBhdGgxMDMwNzciIGlua3NjYXBlOmNvbm5lY3Rvci1jdXJ2YXR1cmU9IjAiIHN0eWxlPSJmaWxsOiMzRjU3NjU7c3Ryb2tlOiNGRkZGRkY7c3Ryb2tlLWxpbmVjYXA6cm91bmQ7c3Ryb2tlLWxpbmVqb2luOnJvdW5kO3N0cm9rZS1taXRlcmxpbWl0OjM7IiBkPSIgICAgICBNNC44Niw1Ni4zMmMtMS4wMywxLjE1LTAuNzMsMS4zNS0yLjc4LDEuNzhDMCw1OC41MywxLjIyLDU5LjI5LDIuMDIsNTkuNDljMC45NywwLjI0LDMuMiwwLjU4LDQuNzEtMS41MyAgICAgIGMwLjQ2LTAuNjUsMC0xLjY4LTAuNjMtMS45NEM1Ljc5LDU1Ljg5LDUuMzksNTUuNzQsNC44Niw1Ni4zMnoiLz4mI3hhOwkJCTwvZz4mI3hhOwkJCTxnIGlkPSJzaGFwZTM3NDEtNDciIHRyYW5zZm9ybT0idHJhbnNsYXRlKDkuNjEzNCwtMTIuOTIwMSkiPiYjeGE7CQkJCTx0aXRsZSBpZD0idGl0bGUxMDMwODAiPnBhdGgyNDc2PC90aXRsZT4mI3hhOwkJCQk8cGF0aCBpZD0icGF0aDEwMzA4MiIgaW5rc2NhcGU6Y29ubmVjdG9yLWN1cnZhdHVyZT0iMCIgc3R5bGU9ImZpbGw6IzNGNTc2NTsiIGQ9Ik00LjcsNjAuMDdjLTAuMTEtMC42NywwLjIyLTEuNDgsMC41Ny0yLjQyICAgICAgYzAuNTItMS40MSwxLjczLTIuODIsMC43Ni03LjI5Yy0wLjcyLTMuMzQtNS41Ni0wLjctNS41Ni0wLjI0YzAsMC40NSwwLjIyLDIuMjktMC4wOCw0LjQzQzAsNTcuMzQsMi4xNyw1OS43MSw0LjY3LDU5LjQ3ICAgICAgTDQuNyw2MC4wN3oiLz4mI3hhOwkJCQkmI3hhOwkJCQkJPHBhdGggaWQ9InBhdGgxMDMwODQiIGlua3NjYXBlOmNvbm5lY3Rvci1jdXJ2YXR1cmU9IjAiIHN0eWxlPSJmaWxsOm5vbmU7c3Ryb2tlOiNGRkZGRkY7c3Ryb2tlLWxpbmVjYXA6cm91bmQ7c3Ryb2tlLWxpbmVqb2luOnJvdW5kO3N0cm9rZS1taXRlcmxpbWl0OjM7IiBkPSIgICAgICBNNC43LDYwLjA3Yy0wLjExLTAuNjcsMC4yMi0xLjQ4LDAuNTctMi40MmMwLjUyLTEuNDEsMS43My0yLjgyLDAuNzYtNy4yOWMtMC43Mi0zLjM0LTUuNTYtMC43LTUuNTYtMC4yNCAgICAgIGMwLDAuNDUsMC4yMiwyLjI5LTAuMDgsNC40M0MwLDU3LjM0LDIuMTcsNTkuNzEsNC42Nyw1OS40NyIvPiYjeGE7CQkJPC9nPiYjeGE7CQkJPGcgaWQ9InNoYXBlMzc0Mi01MCIgdHJhbnNmb3JtPSJ0cmFuc2xhdGUoMTMuMTM2OCwtMjIuMjY3NikiPiYjeGE7CQkJCTx0aXRsZSBpZD0idGl0bGUxMDMwODciPnBhdGgyNDc4PC90aXRsZT4mI3hhOwkJCQk8cGF0aCBpZD0icGF0aDEwMzA4OSIgaW5rc2NhcGU6Y29ubmVjdG9yLWN1cnZhdHVyZT0iMCIgc3R5bGU9ImZpbGw6I0ZGRkZGRjtzdHJva2U6I0ZGRkZGRjtzdHJva2UtbWl0ZXJsaW1pdDozOyIgZD0iICAgICAgTTAuMDIsNTkuNEMwLDU5LjU1LDAuMyw1OS45NiwwLjcsNjAuMDJjMC40LDAuMDUsMC43NC0wLjI3LDAuNzYtMC40MmMwLjAyLTAuMTYtMC4yOC0wLjMzLTAuNjgtMC4zOCAgICAgIEMwLjM4LDU5LjE2LDAuMDQsNTkuMjQsMC4wMiw1OS40eiIvPiYjeGE7CQkJPC9nPiYjeGE7CQkJPGcgaWQ9InNoYXBlMzc0My01MiIgdHJhbnNmb3JtPSJ0cmFuc2xhdGUoMjMuNzczMywtMjIuNTgyNCkiPiYjeGE7CQkJCTx0aXRsZSBpZD0idGl0bGUxMDMwOTIiPnBhdGgyNDgwPC90aXRsZT4mI3hhOwkJCQk8cGF0aCBpZD0icGF0aDEwMzA5NCIgaW5rc2NhcGU6Y29ubmVjdG9yLWN1cnZhdHVyZT0iMCIgc3R5bGU9ImZpbGw6I0ZGRkZGRjtzdHJva2U6I0ZGRkZGRjtzdHJva2UtbWl0ZXJsaW1pdDozOyIgZD0iICAgICAgTTEuNDYsNTkuNGMwLjAyLDAuMTUtMC4yOCwwLjU2LTAuNjgsMC42MmMtMC40LDAuMDUtMC43NC0wLjI3LTAuNzYtMC40MkMwLDU5LjQ0LDAuMyw1OS4yNywwLjcsNTkuMjIgICAgICBDMS4xLDU5LjE2LDEuNDQsNTkuMjQsMS40Niw1OS40eiIvPiYjeGE7CQkJPC9nPiYjeGE7CQkJPGcgaWQ9InNoYXBlMzc0NC01NCIgdHJhbnNmb3JtPSJ0cmFuc2xhdGUoMjUuODAzOSwtMTQuODM1MikiPiYjeGE7CQkJCTx0aXRsZSBpZD0idGl0bGUxMDMwOTciPnBhdGgyNDgyPC90aXRsZT4mI3hhOwkJCQk8cGF0aCBpZD0icGF0aDEwMzA5OSIgaW5rc2NhcGU6Y29ubmVjdG9yLWN1cnZhdHVyZT0iMCIgc3R5bGU9ImZpbGw6IzMxNjE5MjsiIGQ9Ik0wLjg1LDUwLjU4YzAuMDYsMS4yMS0wLjI2LDIuMDQtMC4zMSwzLjMzICAgICAgYy0wLjA2LDEuODcsMC45LDQuMDEtMC41NCw2LjE2TDAuODUsNTAuNTh6Ii8+JiN4YTsJCQkJJiN4YTsJCQkJCTxwYXRoIGlkPSJwYXRoMTAzMTAxIiBpbmtzY2FwZTpjb25uZWN0b3ItY3VydmF0dXJlPSIwIiBzdHlsZT0iZmlsbDpub25lO3N0cm9rZTojRkZGRkZGO3N0cm9rZS1saW5lY2FwOnJvdW5kO3N0cm9rZS1saW5lam9pbjpyb3VuZDtzdHJva2UtbWl0ZXJsaW1pdDozOyIgZD0iICAgICAgTTAuODUsNTAuNThjMC4wNiwxLjIxLTAuMjYsMi4wNC0wLjMxLDMuMzNjLTAuMDYsMS44NywwLjksNC4wMS0wLjU0LDYuMTYiLz4mI3hhOwkJCTwvZz4mI3hhOwkJPC9nPiYjeGE7CTwvZz4mI3hhOzwvZz4mI3hhOzwvc3ZnPg==;rounded=0;fontFamily=Helvetica;fontSize=12;strokeColor=#007FFF;fillColor=#E6E6E6;opacity=80;" vertex="1" parent="1">
          <mxGeometry x="139" y="364" width="53" height="60" as="geometry" />
        </mxCell>
        <mxCell id="ZaQ2WHesoQ1tdpj846Ri-19" value="" style="whiteSpace=wrap;html=1;rounded=0;fontSize=14;opacity=80;dashed=1;strokeColor=#007FFF;fillColor=#E6E6E6;" vertex="1" parent="1">
          <mxGeometry x="308" y="550" width="90" height="180" as="geometry" />
        </mxCell>
        <mxCell id="ZaQ2WHesoQ1tdpj846Ri-20" value="" style="whiteSpace=wrap;html=1;rounded=0;fontSize=14;fillColor=#ffffff;opacity=80;dashed=1;strokeColor=#007FFF;" vertex="1" parent="1">
          <mxGeometry x="118" y="550" width="190" height="180" as="geometry" />
        </mxCell>
        <mxCell id="ZaQ2WHesoQ1tdpj846Ri-21" value="CaaS" style="text;html=1;resizable=0;autosize=1;align=center;verticalAlign=middle;points=[];fillColor=#dae8fc;rounded=0;fontSize=14;opacity=80;fontFamily=Lucida Console;" vertex="1" parent="1">
          <mxGeometry x="173" y="560" width="50" height="20" as="geometry" />
        </mxCell>
        <mxCell id="ZaQ2WHesoQ1tdpj846Ri-22" value="" style="shape=image;verticalLabelPosition=bottom;labelBackgroundColor=#ffffff;verticalAlign=top;aspect=fixed;imageAspect=0;image=data:image/svg+xml,PHN2ZyB4bWxuczpjYz0iaHR0cDovL2NyZWF0aXZlY29tbW9ucy5vcmcvbnMjIiB4bWxuczpkYz0iaHR0cDovL3B1cmwub3JnL2RjL2VsZW1lbnRzLzEuMS8iIHhtbG5zOmlua3NjYXBlPSJodHRwOi8vd3d3Lmlua3NjYXBlLm9yZy9uYW1lc3BhY2VzL2lua3NjYXBlIiB4bWxuczpyZGY9Imh0dHA6Ly93d3cudzMub3JnLzE5OTkvMDIvMjItcmRmLXN5bnRheC1ucyMiIHhtbG5zOnNvZGlwb2RpPSJodHRwOi8vc29kaXBvZGkuc291cmNlZm9yZ2UubmV0L0RURC9zb2RpcG9kaS0wLmR0ZCIgeG1sbnM6c3ZnPSJodHRwOi8vd3d3LnczLm9yZy8yMDAwL3N2ZyIgeG1sbnM9Imh0dHA6Ly93d3cudzMub3JnLzIwMDAvc3ZnIiB4bWxuczp4bGluaz0iaHR0cDovL3d3dy53My5vcmcvMTk5OS94bGluayIgdmVyc2lvbj0iMS4xIiBpZD0ic3ZnMTE0MjUwIiBpbmtzY2FwZTp2ZXJzaW9uPSIwLjkyLjMgKDI0MDU1NDYsIDIwMTgtMDMtMTEpIiBzb2RpcG9kaTpkb2NuYW1lPSJ3ZWJwYWdlXzEuc3ZnIiB4PSIwcHgiIHk9IjBweCIgdmlld0JveD0iMCAwIDYxLjQ2IDQ1IiBzdHlsZT0iZW5hYmxlLWJhY2tncm91bmQ6bmV3IDAgMCA2MS40NiA0NTsiIHhtbDpzcGFjZT0icHJlc2VydmUiPiYjeGE7PHNvZGlwb2RpOm5hbWVkdmlldyBib3JkZXJjb2xvcj0iIzY2NjY2NiIgYm9yZGVyb3BhY2l0eT0iMSIgZml0LW1hcmdpbi1ib3R0b209IjAiIGZpdC1tYXJnaW4tbGVmdD0iMCIgZml0LW1hcmdpbi1yaWdodD0iMCIgZml0LW1hcmdpbi10b3A9IjAiIGdyaWR0b2xlcmFuY2U9IjEwIiBndWlkZXRvbGVyYW5jZT0iMTAiIGlkPSJuYW1lZHZpZXcxMTQyNTIiIGlua3NjYXBlOmN1cnJlbnQtbGF5ZXI9InN2ZzExNDI1MCIgaW5rc2NhcGU6Y3g9IjQwLjk3MDU5MiIgaW5rc2NhcGU6Y3k9IjI5Ljk5OTk5NSIgaW5rc2NhcGU6cGFnZW9wYWNpdHk9IjAiIGlua3NjYXBlOnBhZ2VzaGFkb3c9IjIiIGlua3NjYXBlOndpbmRvdy1oZWlnaHQ9IjEwMTciIGlua3NjYXBlOndpbmRvdy1tYXhpbWl6ZWQ9IjEiIGlua3NjYXBlOndpbmRvdy13aWR0aD0iMTkyMCIgaW5rc2NhcGU6d2luZG93LXg9Ii04IiBpbmtzY2FwZTp3aW5kb3cteT0iLTgiIGlua3NjYXBlOnpvb209IjE0LjQ1IiBvYmplY3R0b2xlcmFuY2U9IjEwIiBwYWdlY29sb3I9IiNmZmZmZmYiIHNob3dncmlkPSJmYWxzZSI+JiN4YTsJPC9zb2RpcG9kaTpuYW1lZHZpZXc+JiN4YTs8ZyBpZD0iZzExNDI0OCI+JiN4YTsJPHRpdGxlIGlkPSJ0aXRsZTExNDE1OSI+UGFnZS0xPC90aXRsZT4mI3hhOwk8ZyBpZD0iZ3JvdXA1NDk2LTEiPiYjeGE7CQk8dGl0bGUgaWQ9InRpdGxlMTE0MTYxIj5XZWJwYWdlICMxPC90aXRsZT4mI3hhOwkJPGcgaWQ9Imdyb3VwNTQ5Ny0yIj4mI3hhOwkJCTx0aXRsZSBpZD0idGl0bGUxMTQxNjMiPk1hbmFnZW1lbnQgUm9sZXMvUGVybWlzc2lvbnMuNzQ1MzwvdGl0bGU+JiN4YTsJCQk8ZyBpZD0iZ3JvdXA1NDk4LTMiPiYjeGE7CQkJCTx0aXRsZSBpZD0idGl0bGUxMTQxNjUiPldlYnNpdGVzICMyPC90aXRsZT4mI3hhOwkJCQk8ZyBpZD0ic2hhcGU1NDk5LTQiPiYjeGE7CQkJCQk8dGl0bGUgaWQ9InRpdGxlMTE0MTY3Ij5TaGVldC41NDk5PC90aXRsZT4mI3hhOwkJCQkJPHBhdGggaWQ9InBhdGgxMTQxNjkiIGlua3NjYXBlOmNvbm5lY3Rvci1jdXJ2YXR1cmU9IjAiIHN0eWxlPSJmaWxsOiMzRjU3NjU7IiBkPSJNNTkuMTEsMEMyLjI3LDAsMi4yNywwLDIuMjcsMCAgICAgICBDMC4zOCwwLDAsMC40NSwwLDIuMzRjMCw0MC4zOSwwLDQwLjM5LDAsNDAuMzlDMCw0NC42MiwwLjM4LDQ1LDIuMjcsNDVjNTYuODQsMCw1Ni44NCwwLDU2Ljg0LDBjMS45NywwLDIuMzUtMC4zOCwyLjM1LTIuMjcgICAgICAgYzAtNDAuMzksMC00MC4zOSwwLTQwLjM5QzYxLjQ2LDAuNDUsNjEuMDgsMCw1OS4xMSwweiIvPiYjeGE7CQkJCTwvZz4mI3hhOwkJCQk8ZyBpZD0ic2hhcGU1NTAwLTYiIHRyYW5zZm9ybT0idHJhbnNsYXRlKDEuNTg3NDIsLTM3Ljc1MTcpIj4mI3hhOwkJCQkJPHRpdGxlIGlkPSJ0aXRsZTExNDE3MiI+U2hlZXQuNTUwMDwvdGl0bGU+JiN4YTsJCQkJCTxwYXRoIGlkPSJwYXRoMTE0MTc0IiBpbmtzY2FwZTpjb25uZWN0b3ItY3VydmF0dXJlPSIwIiBzdHlsZT0iZmlsbDojMjZBOUUwOyIgZD0iTTYuMTIsNDEuOThDNi4xMiw0My43Miw0Ljc2LDQ1LDMuMSw0NSAgICAgICBTMCw0My43MiwwLDQxLjk4YzAtMS42NiwxLjQ0LTMuMDIsMy4xLTMuMDJTNi4xMiw0MC4zMiw2LjEyLDQxLjk4eiIvPiYjeGE7CQkJCTwvZz4mI3hhOwkJCQk8ZyBpZD0ic2hhcGU1NTAxLTgiIHRyYW5zZm9ybT0idHJhbnNsYXRlKDIuODcyNDgsLTM5LjQxMjgpIj4mI3hhOwkJCQkJPHRpdGxlIGlkPSJ0aXRsZTExNDE3NyI+U2hlZXQuNTUwMTwvdGl0bGU+JiN4YTsJCQkJCTxwYXRoIGlkPSJwYXRoMTE0MTc5IiBpbmtzY2FwZTpjb25uZWN0b3ItY3VydmF0dXJlPSIwIiBzdHlsZT0iZmlsbDojRkZGRkZGOyIgZD0iTTEuMjEsNDMuMzRsMS4wNi0wLjk4SDEuNDRMMCw0My42NEwxLjQ0LDQ1ICAgICAgIGgwLjgzbC0xLjA2LTEuMDZoMi40MnYtMC42SDEuMjF6Ii8+JiN4YTsJCQkJPC9nPiYjeGE7CQkJCTxnIGlkPSJzaGFwZTU1MDItMTAiIHRyYW5zZm9ybT0idHJhbnNsYXRlKDguODQ0MjEsLTM5LjQxMjgpIj4mI3hhOwkJCQkJPHRpdGxlIGlkPSJ0aXRsZTExNDE4MiI+U2hlZXQuNTUwMjwvdGl0bGU+JiN4YTsJCQkJCTxwYXRoIGlkPSJwYXRoMTE0MTg0IiBpbmtzY2FwZTpjb25uZWN0b3ItY3VydmF0dXJlPSIwIiBzdHlsZT0iZmlsbDojRkZGRkZGOyIgZD0iTTAsNDIuMTNWNDVoNTEuMTh2LTIuODdIMHoiLz4mI3hhOwkJCQk8L2c+JiN4YTsJCQkJPGcgaWQ9InNoYXBlNTUwMy0xMiIgdHJhbnNmb3JtPSJ0cmFuc2xhdGUoMTUuNzk4NiwtMTMuMTM3NikiPiYjeGE7CQkJCQk8dGl0bGUgaWQ9InRpdGxlMTE0MTg3Ij5TaGVldC41NTAzPC90aXRsZT4mI3hhOwkJCQkJPHBhdGggaWQ9InBhdGgxMTQxODkiIGlua3NjYXBlOmNvbm5lY3Rvci1jdXJ2YXR1cmU9IjAiIHN0eWxlPSJmaWxsOiNGRkZGRkY7IiBkPSJNMjguOCwzOC40M2MwLTEuNTEtMS4yMS0yLjc5LTIuOC0yLjc5ICAgICAgIGMtNC4yMywwLTQuMjMsMC00LjIzLDBjLTMuNy0zLjYzLTMuNy0zLjYzLTMuNy0zLjYzYy05LjA3LDAtOS4wNywwLTkuMDcsMGMtMy44NiwzLjctMy44NiwzLjctMy44NiwzLjcgICAgICAgYy0yLjM0LDAuMjMtNC4yMywyLjE5LTQuMjMsNC42MWMwLDAuOSwwLDAuOSwwLDAuOWMtMC45MSwwLTAuOTEsMC0wLjkxLDBjMCwxLjgyLDAsMS44MiwwLDEuODJjMy45MywwLDMuOTMsMCwzLjkzLDAgICAgICAgQzQuMzEsNDQuMTcsNS4zNyw0NSw2LjU4LDQ1czIuMTktMC44MywyLjU3LTEuOTZjMTEuNDksMCwxMS40OSwwLDExLjQ5LDBjMC40NSwxLjEzLDEuNDMsMS45NiwyLjY0LDEuOTZzMi4xOS0wLjgzLDIuNjUtMS45NiAgICAgICBjMy43OCwwLDMuNzgsMCwzLjc4LDBjMC0xLjgyLDAtMS44MiwwLTEuODJjLTAuOTEsMC0wLjkxLDAtMC45MSwwVjM4LjQzeiBNMjYuOTksMzguNDNjMCwyLjc5LDAsMi43OSwwLDIuNzkgICAgICAgYy0xLjA2LDAtMS4wNiwwLTEuMDYsMGMtMC40Ni0xLjA1LTEuNDQtMS44OC0yLjY1LTEuODhjLTEuMjEsMC0yLjE5LDAuODMtMi42NCwxLjg4Yy03LjY0LDAtNy42NCwwLTcuNjQsMCAgICAgICBjMC0zLjY5LDAtMy42OSwwLTMuNjljMTMsMCwxMywwLDEzLDBDMjYuNjEsMzcuNTMsMjYuOTksMzcuOSwyNi45OSwzOC40M3ogTTE5LjEyLDM1LjY0Yy02LjEyLDAtNi4xMiwwLTYuMTIsMCAgICAgICBjMC0xLjgxLDAtMS44MSwwLTEuODFjNC4zMSwwLDQuMzEsMCw0LjMxLDBMMTkuMTIsMzUuNjR6IE05LjY4LDMzLjgzYzEuNTEsMCwxLjUxLDAsMS41MSwwYzAsMS44MSwwLDEuODEsMCwxLjgxICAgICAgIGMtMy4zMywwLTMuMzMsMC0zLjMzLDBMOS42OCwzMy44M3ogTTIuOCw0MC4zMmMwLTEuNTksMS4yMS0yLjc5LDIuODctMi43OWM1LjUyLDAsNS41MiwwLDUuNTIsMGMwLDMuNjksMCwzLjY5LDAsMy42OSAgICAgICBjLTIuMDQsMC0yLjA0LDAtMi4wNCwwYy0wLjM4LTEuMDUtMS4zNi0xLjg4LTIuNTctMS44OHMtMi4yNywwLjgzLTIuNjUsMS44OGMtMS4xMywwLTEuMTMsMC0xLjEzLDBMMi44LDQwLjMyeiBNNi41OCw0My4wNCAgICAgICBjLTAuNTMsMC0wLjkxLTAuMzgtMC45MS0wLjkxYzAtMC40NSwwLjM4LTAuOTEsMC45MS0wLjkxYzAuNDUsMCwwLjksMC40NiwwLjksMC45MUM3LjQ4LDQyLjY2LDcuMDMsNDMuMDQsNi41OCw0My4wNHogICAgICAgIE0yMy4yOCw0My4wNGMtMC41MywwLTAuOS0wLjM4LTAuOS0wLjkxYzAtMC40NSwwLjM3LTAuOTEsMC45LTAuOTFjMC41MywwLDAuOTEsMC40NiwwLjkxLDAuOTEgICAgICAgQzI0LjE5LDQyLjY2LDIzLjgxLDQzLjA0LDIzLjI4LDQzLjA0eiIvPiYjeGE7CQkJCTwvZz4mI3hhOwkJCQk8ZyBpZD0ic2hhcGU1NTA0LTE0IiB0cmFuc2Zvcm09InRyYW5zbGF0ZSgxLjMxNzczLC0yLjEzMjg3KSI+JiN4YTsJCQkJCTx0aXRsZSBpZD0idGl0bGUxMTQxOTIiPlNoZWV0LjU1MDQ8L3RpdGxlPiYjeGE7CQkJCQk8cGF0aCBpZD0icGF0aDExNDE5NCIgaW5rc2NhcGU6Y29ubmVjdG9yLWN1cnZhdHVyZT0iMCIgc3R5bGU9ImZpbGw6IzAwQjBGMDsiIGQ9Ik0wLDEwLjU2VjQ1aDU4LjUyVjEwLjU2SDB6Ii8+JiN4YTsJCQkJPC9nPiYjeGE7CQkJPC9nPiYjeGE7CQk8L2c+JiN4YTsJCTxnIGlkPSJncm91cDU1MDUtMTYiIHRyYW5zZm9ybT0idHJhbnNsYXRlKDQuMjkwNDUsLTYuNzUwMDEpIj4mI3hhOwkJCTx0aXRsZSBpZD0idGl0bGUxMTQxOTkiPldlYjwvdGl0bGU+JiN4YTsJCQk8ZyBpZD0ic2hhcGU1NTA2LTE3Ij4mI3hhOwkJCQk8dGl0bGUgaWQ9InRpdGxlMTE0MjAxIj5TaGVldC41NTA2PC90aXRsZT4mI3hhOwkJCQk8cGF0aCBpZD0icGF0aDExNDIwMyIgaW5rc2NhcGU6Y29ubmVjdG9yLWN1cnZhdHVyZT0iMCIgc3R5bGU9ImZpbGw6I0ZGRkZGRjsiIGQ9Ik0wLDIxLjg3VjQ1aDUyLjg3VjIxLjg3SDB6Ii8+JiN4YTsJCQk8L2c+JiN4YTsJCQk8ZyBpZD0ic2hhcGU1NTA3LTE5IiB0cmFuc2Zvcm09InRyYW5zbGF0ZSgwLC0yMy4xMzA5KSI+JiN4YTsJCQkJPHRpdGxlIGlkPSJ0aXRsZTExNDIwNiI+U2hlZXQuNTUwNzwvdGl0bGU+JiN4YTsJCQkJPHBhdGggaWQ9InBhdGgxMTQyMDgiIGlua3NjYXBlOmNvbm5lY3Rvci1jdXJ2YXR1cmU9IjAiIHN0eWxlPSJmaWxsOiM1MDUwNTA7IiBkPSJNMCw0Mi41NVY0NWg1Mi44N3YtMi40NUgweiIvPiYjeGE7CQkJPC9nPiYjeGE7CQkJPGcgaWQ9InNoYXBlNTUwOC0yMSIgdHJhbnNmb3JtPSJ0cmFuc2xhdGUoNTAuNzc0LC0yMy44MzE5KSI+JiN4YTsJCQkJPHRpdGxlIGlkPSJ0aXRsZTExNDIxMSI+U2hlZXQuNTUwODwvdGl0bGU+JiN4YTsJCQkJPHBhdGggaWQ9InBhdGgxMTQyMTMiIGlua3NjYXBlOmNvbm5lY3Rvci1jdXJ2YXR1cmU9IjAiIHN0eWxlPSJmaWxsOiNGOUY3Rjg7IiBkPSJNMS4wNSw0NWMtMC4zMSwwLTAuMzEsMC0wLjMxLDAgICAgICBjLTAuMTUtMC4zMy0wLjE1LTAuMzMtMC4xNS0wLjMzYy0wLjA2LTAuMDQtMC4wNi0wLjA0LTAuMDYtMC4wOWwwLDBjMCwwLjA1LDAsMC4wNSwwLDAuMDlDMC4zMyw0NSwwLjMzLDQ1LDAuMzMsNDUgICAgICBDMCw0NSwwLDQ1LDAsNDVjMC4zNy0wLjUzLDAuMzctMC41MywwLjM3LTAuNTNjLTAuMy0wLjUyLTAuMy0wLjUyLTAuMy0wLjUyYzAuMywwLDAuMywwLDAuMywwYzAuMTYsMC4zNSwwLjE2LDAuMzUsMC4xNiwwLjM1ICAgICAgdjAuMDRsMCwwbDAuMDYtMC4wNGMwLjE1LTAuMzUsMC4xNS0wLjM1LDAuMTUtMC4zNWMwLjMxLDAsMC4zMSwwLDAuMzEsMEMwLjcsNDQuNDcsMC43LDQ0LjQ3LDAuNyw0NC40N0wxLjA1LDQ1eiIvPiYjeGE7CQkJPC9nPiYjeGE7CQkJPGcgaWQ9InNoYXBlNTUwOS0yMyIgdHJhbnNmb3JtPSJ0cmFuc2xhdGUoNC45MDIzMiwtMTcuODczOSkiPiYjeGE7CQkJCTx0aXRsZSBpZD0idGl0bGUxMTQyMTYiPlNoZWV0LjU1MDk8L3RpdGxlPiYjeGE7CQkJCTxwYXRoIGlkPSJwYXRoMTE0MjE4IiBpbmtzY2FwZTpjb25uZWN0b3ItY3VydmF0dXJlPSIwIiBzdHlsZT0iZmlsbDojREZERkRGOyIgZD0iTTAsNDMuMjVWNDVoMjMuODF2LTEuNzVIMHoiLz4mI3hhOwkJCTwvZz4mI3hhOwkJCTxnIGlkPSJzaGFwZTU1MTAtMjUiIHRyYW5zZm9ybT0idHJhbnNsYXRlKDQuOTAyMzIsLTE0LjM2OTIpIj4mI3hhOwkJCQk8dGl0bGUgaWQ9InRpdGxlMTE0MjIxIj5TaGVldC41NTEwPC90aXRsZT4mI3hhOwkJCQk8cGF0aCBpZD0icGF0aDExNDIyMyIgaW5rc2NhcGU6Y29ubmVjdG9yLWN1cnZhdHVyZT0iMCIgc3R5bGU9ImZpbGw6I0RGREZERjsiIGQ9Ik0wLDQzLjZWNDVoMjMuODF2LTEuNEgweiIvPiYjeGE7CQkJPC9nPiYjeGE7CQkJPGcgaWQ9InNoYXBlNTUxMS0yNyIgdHJhbnNmb3JtPSJ0cmFuc2xhdGUoNC45MDIzMiwtMTAuODY0NSkiPiYjeGE7CQkJCTx0aXRsZSBpZD0idGl0bGUxMTQyMjYiPlNoZWV0LjU1MTE8L3RpdGxlPiYjeGE7CQkJCTxwYXRoIGlkPSJwYXRoMTE0MjI4IiBpbmtzY2FwZTpjb25uZWN0b3ItY3VydmF0dXJlPSIwIiBzdHlsZT0iZmlsbDojREZERkRGOyIgZD0iTTAsNDMuNlY0NWgyMy44MXYtMS40SDB6Ii8+JiN4YTsJCQk8L2c+JiN4YTsJCQk8ZyBpZD0ic2hhcGU1NTEyLTI5IiB0cmFuc2Zvcm09InRyYW5zbGF0ZSg0LjkwMjMyLC03LjM1OTg0KSI+JiN4YTsJCQkJPHRpdGxlIGlkPSJ0aXRsZTExNDIzMSI+U2hlZXQuNTUxMjwvdGl0bGU+JiN4YTsJCQkJPHBhdGggaWQ9InBhdGgxMTQyMzMiIGlua3NjYXBlOmNvbm5lY3Rvci1jdXJ2YXR1cmU9IjAiIHN0eWxlPSJmaWxsOiNERkRGREY7IiBkPSJNMCw0My42VjQ1aDIzLjgxdi0xLjRIMHoiLz4mI3hhOwkJCTwvZz4mI3hhOwkJCTxnIGlkPSJzaGFwZTU1MTMtMzEiIHRyYW5zZm9ybT0idHJhbnNsYXRlKDQuOTAyMzIsLTMuODU1MTUpIj4mI3hhOwkJCQk8dGl0bGUgaWQ9InRpdGxlMTE0MjM2Ij5TaGVldC41NTEzPC90aXRsZT4mI3hhOwkJCQk8cGF0aCBpZD0icGF0aDExNDIzOCIgaW5rc2NhcGU6Y29ubmVjdG9yLWN1cnZhdHVyZT0iMCIgc3R5bGU9ImZpbGw6I0RGREZERjsiIGQ9Ik0wLDQzLjZWNDVoMjMuODF2LTEuNEgweiIvPiYjeGE7CQkJPC9nPiYjeGE7CQkJPGcgaWQ9InNoYXBlNTUxNC0zMyIgdHJhbnNmb3JtPSJ0cmFuc2xhdGUoMzAuODE0NiwtMy44NTUxNSkiPiYjeGE7CQkJCTx0aXRsZSBpZD0idGl0bGUxMTQyNDEiPlNoZWV0LjU1MTQ8L3RpdGxlPiYjeGE7CQkJCTxwYXRoIGlkPSJwYXRoMTE0MjQzIiBpbmtzY2FwZTpjb25uZWN0b3ItY3VydmF0dXJlPSIwIiBzdHlsZT0iZmlsbDojREZERkRGOyIgZD0iTTAsMjkuMjNWNDVoMTguNTZWMjkuMjNIMHoiLz4mI3hhOwkJCTwvZz4mI3hhOwkJPC9nPiYjeGE7CTwvZz4mI3hhOzwvZz4mI3hhOzwvc3ZnPg==;rounded=1;fontFamily=Lucida Console;fontSize=14;strokeColor=#007FFF;fillColor=#ffffff;opacity=80;" vertex="1" parent="1">
          <mxGeometry x="168" y="665" width="61" height="45" as="geometry" />
        </mxCell>
        <mxCell id="ZaQ2WHesoQ1tdpj846Ri-23" value="Integration" style="text;html=1;resizable=0;autosize=1;align=center;verticalAlign=middle;points=[];fillColor=none;strokeColor=none;rounded=0;fontFamily=Helvetica;fontSize=12;opacity=80;" vertex="1" parent="1">
          <mxGeometry x="315.25" y="560" width="70" height="20" as="geometry" />
        </mxCell>
        <mxCell id="ZaQ2WHesoQ1tdpj846Ri-24" value="" style="shape=image;verticalLabelPosition=bottom;labelBackgroundColor=#ffffff;verticalAlign=top;aspect=fixed;imageAspect=0;image=data:image/svg+xml,PHN2ZyB4bWxuczpkYz0iaHR0cDovL3B1cmwub3JnL2RjL2VsZW1lbnRzLzEuMS8iIHhtbG5zOmNjPSJodHRwOi8vY3JlYXRpdmVjb21tb25zLm9yZy9ucyMiIHhtbG5zOnJkZj0iaHR0cDovL3d3dy53My5vcmcvMTk5OS8wMi8yMi1yZGYtc3ludGF4LW5zIyIgeG1sbnM6c3ZnPSJodHRwOi8vd3d3LnczLm9yZy8yMDAwL3N2ZyIgeG1sbnM9Imh0dHA6Ly93d3cudzMub3JnLzIwMDAvc3ZnIiB4bWxuczpzb2RpcG9kaT0iaHR0cDovL3NvZGlwb2RpLnNvdXJjZWZvcmdlLm5ldC9EVEQvc29kaXBvZGktMC5kdGQiIHhtbG5zOmlua3NjYXBlPSJodHRwOi8vd3d3Lmlua3NjYXBlLm9yZy9uYW1lc3BhY2VzL2lua3NjYXBlIiB2ZXJzaW9uPSIxLjEiIGlkPSJzdmc1NjAxOCIgaW5rc2NhcGU6dmVyc2lvbj0iMC45Mi4zICgyNDA1NTQ2LCAyMDE4LTAzLTExKSIgc29kaXBvZGk6ZG9jbmFtZT0iYXp1cmVfY29udGFpbmVyLnN2ZyIgeD0iMHB4IiB5PSIwcHgiIHZpZXdCb3g9IjAgMCA2NS41MiA0OC40OSIgeG1sOnNwYWNlPSJwcmVzZXJ2ZSIgd2lkdGg9IjY1LjUxOTk5NyIgaGVpZ2h0PSI0OC40OTAwMDIiPjxtZXRhZGF0YSBpZD0ibWV0YWRhdGE1NTM4Ij48cmRmOlJERj48Y2M6V29yayByZGY6YWJvdXQ9IiI+PGRjOmZvcm1hdD5pbWFnZS9zdmcreG1sPC9kYzpmb3JtYXQ+PGRjOnR5cGUgcmRmOnJlc291cmNlPSJodHRwOi8vcHVybC5vcmcvZGMvZGNtaXR5cGUvU3RpbGxJbWFnZSIvPjxkYzp0aXRsZS8+PC9jYzpXb3JrPjwvcmRmOlJERj48L21ldGFkYXRhPjxkZWZzIGlkPSJkZWZzNTUzNiIvPiYjeGE7PGZpbHRlciBpZD0iZmlsdGVyXzIiPiYjeGE7CTxmZUdhdXNzaWFuQmx1ciBpZD0iZmVHYXVzc2lhbkJsdXI1NTgzOSIgc3RkRGV2aWF0aW9uPSIyIi8+JiN4YTs8L2ZpbHRlcj4mI3hhOzxzb2RpcG9kaTpuYW1lZHZpZXcgYm9yZGVyY29sb3I9IiM2NjY2NjYiIGJvcmRlcm9wYWNpdHk9IjEiIGZpdC1tYXJnaW4tYm90dG9tPSIwIiBmaXQtbWFyZ2luLWxlZnQ9IjAiIGZpdC1tYXJnaW4tcmlnaHQ9IjAiIGZpdC1tYXJnaW4tdG9wPSIwIiBncmlkdG9sZXJhbmNlPSIxMCIgZ3VpZGV0b2xlcmFuY2U9IjEwIiBpZD0ibmFtZWR2aWV3NTYwMjAiIGlua3NjYXBlOmN1cnJlbnQtbGF5ZXI9InN2ZzU2MDE4IiBpbmtzY2FwZTpjeD0iLTMuNDYzNzEzOSIgaW5rc2NhcGU6Y3k9IjIwLjQ1NjkyNyIgaW5rc2NhcGU6cGFnZW9wYWNpdHk9IjAiIGlua3NjYXBlOnBhZ2VzaGFkb3c9IjIiIGlua3NjYXBlOndpbmRvdy1oZWlnaHQ9IjEwMTciIGlua3NjYXBlOndpbmRvdy1tYXhpbWl6ZWQ9IjEiIGlua3NjYXBlOndpbmRvdy13aWR0aD0iMTkyMCIgaW5rc2NhcGU6d2luZG93LXg9Ii04IiBpbmtzY2FwZTp3aW5kb3cteT0iLTgiIGlua3NjYXBlOnpvb209IjguOTExNjU1NyIgb2JqZWN0dG9sZXJhbmNlPSIxMCIgcGFnZWNvbG9yPSIjZmZmZmZmIiBzaG93Z3JpZD0iZmFsc2UiPiYjeGE7CTwvc29kaXBvZGk6bmFtZWR2aWV3PiYjeGE7JiN4YTs8cGF0aCBpZD0icGF0aDU1ODUyIiBpbmtzY2FwZTpjb25uZWN0b3ItY3VydmF0dXJlPSIwIiBzdHlsZT0iZmlsbDojODA0OTk4IiBkPSJNIDMwLjAxLDEyLjMyIDE5LjkyLDE2LjI1IFYgMCBsIDEwLjA5LDMuNTQgeiIvPiYjeGE7JiN4YTs8cGF0aCBpZD0icGF0aDU1ODYwIiBpbmtzY2FwZTpjb25uZWN0b3ItY3VydmF0dXJlPSIwIiBzdHlsZT0iZmlsbDojODA0OTk4IiBkPSJtIDEwLjg4LDIuNzUgdiAxMC42MSBsIDcuNDcsMi44OSBWIDAuMTMgWiBtIDAuNzksOS44MyAtMC40LC0wLjEzIFYgMy42NyBsIDAuNCwtMC4xMyAwLjM5LC0wLjE0IDAuMzksLTAuMTMgdiA5LjU3IGwgLTAuMzksLTAuMTMgeiBtIDEuOTYsMC41MiAtMC41MiwtMC4xMyBWIDMuMTQgbCAwLjUyLC0wLjEzIDAuNTMsLTAuMTMgMC41MiwtMC4xMyB2IDEwLjc0IGwgLTAuNTIsLTAuMTMgeiBtIDIuMzYsMC43OSAtMC42NSwtMC4yNiBWIDIuNDkgbCAwLjY1LC0wLjEzIDAuNjYsLTAuMjcgMC43OCwtMC4yNiB2IDEyLjQ1IGwgLTAuNzgsLTAuMjYgeiIvPiYjeGE7JiN4YTs8cGF0aCBpZD0icGF0aDU1ODY4IiBpbmtzY2FwZTpjb25uZWN0b3ItY3VydmF0dXJlPSIwIiBzdHlsZT0iZmlsbDojODA0OTk4IiBkPSJNIDUzLjQ3LDEyLjMyIDQzLjM4LDE2LjI1IFYgMCBsIDEwLjA5LDMuNTQgeiIvPiYjeGE7JiN4YTs8cGF0aCBpZD0icGF0aDU1ODc2IiBpbmtzY2FwZTpjb25uZWN0b3ItY3VydmF0dXJlPSIwIiBzdHlsZT0iZmlsbDojODA0OTk4IiBkPSJtIDM0LjMzLDIuNzUgdiAxMC42MSBsIDcuNDcsMi44OSBWIDAuMTMgWiBtIDAuNzksOS44MyAtMC40LC0wLjEzIFYgMy42NyBMIDM1LjEyLDMuNTQgMzUuNTEsMy40IDM1LjksMy4yNyB2IDkuNTcgbCAtMC4zOSwtMC4xMyB6IG0gMS45NiwwLjUyIC0wLjUyLC0wLjEzIFYgMy4xNCBsIDAuNTIsLTAuMTMgMC41MywtMC4xMyAwLjUyLC0wLjEzIHYgMTAuNzQgbCAtMC41MiwtMC4xMyB6IG0gMi4zNiwwLjc5IC0wLjY1LC0wLjI2IFYgMi40OSBMIDM5LjQ0LDIuMzYgNDAuMSwyLjA5IDQwLjg4LDEuODMgViAxNC4yOCBMIDQwLjEsMTQuMDIgWiIvPiYjeGE7JiN4YTs8cGF0aCBpZD0icGF0aDU1ODg0IiBpbmtzY2FwZTpjb25uZWN0b3ItY3VydmF0dXJlPSIwIiBzdHlsZT0iZmlsbDojODA0OTk4IiBkPSJNIDMwLjAxLDQ0LjU2IDE5LjkyLDQ4LjQ5IFYgMzIuMjQgbCAxMC4wOSwzLjU0IHoiLz4mI3hhOyYjeGE7PHBhdGggaWQ9InBhdGg1NTg5MiIgaW5rc2NhcGU6Y29ubmVjdG9yLWN1cnZhdHVyZT0iMCIgc3R5bGU9ImZpbGw6IzgwNDk5OCIgZD0iTSAxMC44OCwzNC45OSBWIDQ1LjYgbCA3LjQ3LDIuODkgViAzMi4zNyBaIG0gMC43OSw5LjgzIC0wLjQsLTAuMTMgdiAtOC43OCBsIDAuNCwtMC4xMyAwLjM5LC0wLjE0IDAuMzksLTAuMTMgdiA5LjU3IGwgLTAuMzksLTAuMTMgeiBtIDEuOTYsMC41MiAtMC41MiwtMC4xMyB2IC05LjgzIGwgMC41MiwtMC4xMyAwLjUzLC0wLjEzIDAuNTIsLTAuMTMgViA0NS43MyBMIDE0LjE2LDQ1LjYgWiBtIDIuMzYsMC43OSAtMC42NSwtMC4yNiBWIDM0LjczIGwgMC42NSwtMC4xMyAwLjY2LC0wLjI3IDAuNzgsLTAuMjYgdiAxMi40NSBsIC0wLjc4LC0wLjI2IHoiLz4mI3hhOyYjeGE7PHBhdGggaWQ9InBhdGg1NTkwMCIgaW5rc2NhcGU6Y29ubmVjdG9yLWN1cnZhdHVyZT0iMCIgc3R5bGU9ImZpbGw6IzgwNDk5OCIgZD0iTSA1My40Nyw0NC41NiA0My4zOCw0OC40OSBWIDMyLjI0IGwgMTAuMDksMy41NCB6Ii8+JiN4YTsmI3hhOzxwYXRoIGlkPSJwYXRoNTU5MDgiIGlua3NjYXBlOmNvbm5lY3Rvci1jdXJ2YXR1cmU9IjAiIHN0eWxlPSJmaWxsOiM4MDQ5OTgiIGQ9Ik0gMzQuMzMsMzQuOTkgViA0NS42IGwgNy40NywyLjg5IFYgMzIuMzcgWiBtIDAuNzksOS44MyAtMC40LC0wLjEzIHYgLTguNzggbCAwLjQsLTAuMTMgMC4zOSwtMC4xNCAwLjM5LC0wLjEzIHYgOS41NyBsIC0wLjM5LC0wLjEzIHogbSAxLjk2LDAuNTIgLTAuNTIsLTAuMTMgdiAtOS44MyBsIDAuNTIsLTAuMTMgMC41MywtMC4xMyAwLjUyLC0wLjEzIFYgNDUuNzMgTCAzNy42MSw0NS42IFogbSAyLjM2LDAuNzkgLTAuNjUsLTAuMjYgViAzNC43MyBsIDAuNjUsLTAuMTMgMC42NiwtMC4yNyAwLjc4LC0wLjI2IFYgNDYuNTIgTCA0MC4xLDQ2LjI2IFoiLz4mI3hhOyYjeGE7PHBhdGggaWQ9InBhdGg1NTkxNiIgaW5rc2NhcGU6Y29ubmVjdG9yLWN1cnZhdHVyZT0iMCIgc3R5bGU9ImZpbGw6IzgwNDk5OCIgZD0ibSA0Mi40NiwyOC40NCAtOS45NiwzLjggViAxNi4xMiBsIDkuOTYsMy41NCB6Ii8+JiN4YTsmI3hhOzxwYXRoIGlkPSJwYXRoNTU5MjQiIGlua3NjYXBlOmNvbm5lY3Rvci1jdXJ2YXR1cmU9IjAiIHN0eWxlPSJmaWxsOiM4MDQ5OTgiIGQ9Im0gMjMuMzMsMTguNzQgdiAxMC42MSBsIDcuNDcsMi44OSBWIDE2LjEyIFogbSAwLjc5LDkuODMgLTAuNCwtMC4xMyB2IC04Ljc4IGwgMC40LC0wLjEzIDAuMzksLTAuMTQgMC4zOSwtMC4xMyB2IDkuNTcgTCAyNC41MSwyOC43IFogbSAxLjk2LDAuNjUgLTAuNTIsLTAuMTMgdiAtOS44MyBsIDAuNTIsLTAuMTMgMC41MywtMC4xMyAwLjUyLC0wLjEzIHYgMTAuNzUgbCAtMC41MiwtMC4xNCB6IG0gMi4zNiwwLjc5IC0wLjY1LC0wLjI2IFYgMTguNjEgbCAwLjY1LC0wLjEzIDAuNjYsLTAuMjcgMC43OCwtMC4yNiBWIDMwLjQgTCAyOS4xLDMwLjE0IFoiLz4mI3hhOyYjeGE7PHBhdGggaWQ9InBhdGg1NTkzMiIgaW5rc2NhcGU6Y29ubmVjdG9yLWN1cnZhdHVyZT0iMCIgc3R5bGU9ImZpbGw6IzgwNDk5OCIgZD0ibSAxOS4xMywyOC40NCAtOS45NiwzLjggViAxNi4xMiBsIDkuOTYsMy41NCB6Ii8+JiN4YTsmI3hhOzxwYXRoIGlkPSJwYXRoNTU5NDAiIGlua3NjYXBlOmNvbm5lY3Rvci1jdXJ2YXR1cmU9IjAiIHN0eWxlPSJmaWxsOiM4MDQ5OTgiIGQ9Im0gMCwxOC43NCB2IDEwLjYxIGwgNy40NywyLjg5IFYgMTYuMTIgWiBtIDAuNzksOS44MyAtMC40LC0wLjEzIHYgLTguNzggbCAwLjQsLTAuMTMgMC4zOSwtMC4xNCAwLjM5LC0wLjEzIHYgOS41NyBMIDEuMTgsMjguNyBaIE0gMi43NSwyOS4yMiAyLjIzLDI5LjA5IFYgMTkuMjYgTCAyLjc1LDE5LjEzIDMuMjgsMTkgMy44LDE4Ljg3IFYgMjkuNjIgTCAzLjI4LDI5LjQ4IFogTSA1LjExLDMwLjAxIDQuNDYsMjkuNzUgViAxOC42MSBMIDUuMTEsMTguNDggNS43NywxOC4yMSA2LjU1LDE3Ljk1IFYgMzAuNCBMIDUuNzcsMzAuMTQgWiIvPiYjeGE7JiN4YTs8cGF0aCBpZD0icGF0aDU1OTQ4IiBpbmtzY2FwZTpjb25uZWN0b3ItY3VydmF0dXJlPSIwIiBzdHlsZT0iZmlsbDojODA0OTk4IiBkPSJtIDY1LjUyLDI4LjQ0IC05Ljk2LDMuOCBWIDE2LjEyIGwgOS45NiwzLjU0IHoiLz4mI3hhOyYjeGE7JiN4YTsmI3hhOyYjeGE7JiN4YTsmI3hhOyYjeGE7JiN4YTsmI3hhOyYjeGE7JiN4YTsmI3hhOyYjeGE7JiN4YTsmI3hhOzxwYXRoIGlkPSJwYXRoNTYwMTIiIGlua3NjYXBlOmNvbm5lY3Rvci1jdXJ2YXR1cmU9IjAiIHN0eWxlPSJmaWxsOiM4MDQ5OTgiIGQ9Im0gNDYuMzksMTguNzQgdiAxMC42MSBsIDcuNDcsMi44OSBWIDE2LjEyIFogbSAwLjc5LDkuODMgLTAuNCwtMC4xMyB2IC04Ljc4IGwgMC40LC0wLjEzIDAuMzksLTAuMTQgMC4zOSwtMC4xMyB2IDkuNTcgTCA0Ny41NywyOC43IFogbSAxLjk2LDAuNjUgLTAuNTIsLTAuMTMgdiAtOS44MyBsIDAuNTIsLTAuMTMgMC41MywtMC4xMyAwLjUyLC0wLjEzIHYgMTAuNzUgbCAtMC41MiwtMC4xNCB6IG0gMi4zNiwwLjc5IC0wLjY1LC0wLjI2IFYgMTguNjEgbCAwLjY1LC0wLjEzIDAuNjYsLTAuMjcgMC43OCwtMC4yNiBWIDMwLjQgbCAtMC43OCwtMC4yNiB6Ii8+JiN4YTs8L3N2Zz4=;rounded=0;fontFamily=Helvetica;fontSize=12;strokeColor=#007FFF;fillColor=#E6E6E6;opacity=80;" vertex="1" parent="1">
          <mxGeometry x="222.99999999999994" y="600" width="66" height="48" as="geometry" />
        </mxCell>
        <mxCell id="ZaQ2WHesoQ1tdpj846Ri-25" value="" style="whiteSpace=wrap;html=1;rounded=0;fontSize=14;opacity=80;dashed=1;strokeColor=#007FFF;fillColor=#E6E6E6;" vertex="1" parent="1">
          <mxGeometry x="306" y="760" width="90" height="180" as="geometry" />
        </mxCell>
        <mxCell id="ZaQ2WHesoQ1tdpj846Ri-26" value="" style="whiteSpace=wrap;html=1;rounded=0;fontSize=14;fillColor=#ffffff;opacity=80;dashed=1;strokeColor=#007FFF;" vertex="1" parent="1">
          <mxGeometry x="116" y="760" width="190" height="180" as="geometry" />
        </mxCell>
        <mxCell id="ZaQ2WHesoQ1tdpj846Ri-27" value="PaaS" style="text;html=1;resizable=0;autosize=1;align=center;verticalAlign=middle;points=[];fillColor=#dae8fc;rounded=0;fontSize=14;opacity=80;fontFamily=Lucida Console;" vertex="1" parent="1">
          <mxGeometry x="171" y="770" width="50" height="20" as="geometry" />
        </mxCell>
        <mxCell id="ZaQ2WHesoQ1tdpj846Ri-28" value="Integration" style="text;html=1;resizable=0;autosize=1;align=center;verticalAlign=middle;points=[];fillColor=none;strokeColor=none;rounded=0;fontFamily=Helvetica;fontSize=12;opacity=80;" vertex="1" parent="1">
          <mxGeometry x="313.25" y="770" width="70" height="20" as="geometry" />
        </mxCell>
        <mxCell id="ZaQ2WHesoQ1tdpj846Ri-29" value="" style="shape=image;verticalLabelPosition=bottom;labelBackgroundColor=#ffffff;verticalAlign=top;aspect=fixed;imageAspect=0;image=data:image/svg+xml,PHN2ZyB4bWxuczpjYz0iaHR0cDovL2NyZWF0aXZlY29tbW9ucy5vcmcvbnMjIiB4bWxuczpkYz0iaHR0cDovL3B1cmwub3JnL2RjL2VsZW1lbnRzLzEuMS8iIHhtbG5zOmlua3NjYXBlPSJodHRwOi8vd3d3Lmlua3NjYXBlLm9yZy9uYW1lc3BhY2VzL2lua3NjYXBlIiB4bWxuczpyZGY9Imh0dHA6Ly93d3cudzMub3JnLzE5OTkvMDIvMjItcmRmLXN5bnRheC1ucyMiIHhtbG5zOnNvZGlwb2RpPSJodHRwOi8vc29kaXBvZGkuc291cmNlZm9yZ2UubmV0L0RURC9zb2RpcG9kaS0wLmR0ZCIgeG1sbnM6c3ZnPSJodHRwOi8vd3d3LnczLm9yZy8yMDAwL3N2ZyIgeG1sbnM9Imh0dHA6Ly93d3cudzMub3JnLzIwMDAvc3ZnIiB4bWxuczp4bGluaz0iaHR0cDovL3d3dy53My5vcmcvMTk5OS94bGluayIgdmVyc2lvbj0iMS4xIiBpZD0ic3ZnMTAyMTA3IiBpbmtzY2FwZTp2ZXJzaW9uPSIwLjkyLjMgKDI0MDU1NDYsIDIwMTgtMDMtMTEpIiBzb2RpcG9kaTpkb2NuYW1lPSJteXNxbF8yLnN2ZyIgeD0iMHB4IiB5PSIwcHgiIHZpZXdCb3g9IjAgMCA1Mi44OCA2MC4wNyIgc3R5bGU9ImVuYWJsZS1iYWNrZ3JvdW5kOm5ldyAwIDAgNTIuODggNjAuMDc7IiB4bWw6c3BhY2U9InByZXNlcnZlIj4mI3hhOzxmaWx0ZXIgaWQ9ImZpbHRlcl8yIj4mI3hhOwk8ZmVHYXVzc2lhbkJsdXIgaWQ9ImZlR2F1c3NpYW5CbHVyMTAyMDc1IiBzdGREZXZpYXRpb249IjIiLz4mI3hhOzwvZmlsdGVyPiYjeGE7PHNvZGlwb2RpOm5hbWVkdmlldyBib3JkZXJjb2xvcj0iIzY2NjY2NiIgYm9yZGVyb3BhY2l0eT0iMSIgZml0LW1hcmdpbi1ib3R0b209IjAiIGZpdC1tYXJnaW4tbGVmdD0iMCIgZml0LW1hcmdpbi1yaWdodD0iMCIgZml0LW1hcmdpbi10b3A9IjAiIGdyaWR0b2xlcmFuY2U9IjEwIiBndWlkZXRvbGVyYW5jZT0iMTAiIGlkPSJuYW1lZHZpZXcxMDIxMDkiIGlua3NjYXBlOmN1cnJlbnQtbGF5ZXI9InN2ZzEwMjEwNyIgaW5rc2NhcGU6Y3g9IjM1LjI1IiBpbmtzY2FwZTpjeT0iNDAuMDQ1MjAxIiBpbmtzY2FwZTpwYWdlb3BhY2l0eT0iMCIgaW5rc2NhcGU6cGFnZXNoYWRvdz0iMiIgaW5rc2NhcGU6d2luZG93LWhlaWdodD0iMTAxNyIgaW5rc2NhcGU6d2luZG93LW1heGltaXplZD0iMSIgaW5rc2NhcGU6d2luZG93LXdpZHRoPSIxOTIwIiBpbmtzY2FwZTp3aW5kb3cteD0iLTgiIGlua3NjYXBlOndpbmRvdy15PSItOCIgaW5rc2NhcGU6em9vbT0iMTAuODI0NDc2IiBvYmplY3R0b2xlcmFuY2U9IjEwIiBwYWdlY29sb3I9IiNmZmZmZmYiIHNob3dncmlkPSJmYWxzZSI+JiN4YTsJPC9zb2RpcG9kaTpuYW1lZHZpZXc+JiN4YTs8ZyBpZD0iZzEwMjEwNSI+JiN4YTsJPHRpdGxlIGlkPSJ0aXRsZTEwMjA3OSI+UGFnZS0xPC90aXRsZT4mI3hhOwk8ZyBpZD0iZ3JvdXAzNjM3LTEiPiYjeGE7CQk8dGl0bGUgaWQ9InRpdGxlMTAyMDgxIj5NeVNRTCAjMjwvdGl0bGU+JiN4YTsJCTxnIGlkPSJzaGFwZTM2MzgtMiI+JiN4YTsJCQk8dGl0bGUgaWQ9InRpdGxlMTAyMDgzIj5EYXRhYmFzZSAjMjwvdGl0bGU+JiN4YTsJCQk8cGF0aCBpZD0icGF0aDEwMjA4NSIgaW5rc2NhcGU6Y29ubmVjdG9yLWN1cnZhdHVyZT0iMCIgc3R5bGU9ImZpbGw6IzNGNTc2NTsiIGQ9Ik0yNi43MSwwYzE0LjY0LDAsMjYuMTcsMy45MywyNi4xNyw4LjMxICAgICBjMCw0My41NCwwLDQzLjU0LDAsNDMuNTRjMCw0LjgzLTExLjUzLDguMjItMjYuMTcsOC4yMkMxMi4xNSw2MC4wNywwLDU2LjY4LDAsNTEuODVDMCw4LjMxLDAsOC4zMSwwLDguMzEgICAgIEMwLDMuOTMsMTIuMTUsMCwyNi43MSwweiBNMjYuNzEsMTQuMjFjMTIuNTksMCwyMi42OC0yLjk1LDIyLjY4LTUuOWMwLTIuODYtMTAuMDktNS4zNi0yMi42OC01LjM2Yy0xMi42LDAtMjIuNiwyLjUtMjIuNiw1LjM2ICAgICBDNC4xMSwxMS4yNiwxNC4xMSwxNC4yMSwyNi43MSwxNC4yMXoiLz4mI3hhOwkJPC9nPiYjeGE7CQk8ZyBpZD0ic2hhcGUzNjM5LTQiIHRyYW5zZm9ybT0idHJhbnNsYXRlKDEwLjU4OTIsLTcuMjMwNDkpIj4mI3hhOwkJCTx0aXRsZSBpZD0idGl0bGUxMDIwODgiPlNoZWV0LjM2Mzk8L3RpdGxlPiYjeGE7CQkJPGcgaWQ9InNoYWRvdzM2MzktNSIgdHJhbnNmb3JtPSJ0cmFuc2xhdGUoMC4zNDU2LDEuOTcyOCkiPiYjeGE7CQkJCTxnIGlkPSJwYXRoMTAyMDkwIiBpbmtzY2FwZTpjb25uZWN0b3ItY3VydmF0dXJlPSIwIiBzdHlsZT0iZmlsdGVyOnVybCgjZmlsdGVyXzIpOyI+JiN4YTsJCQkJCTxwYXRoIHN0eWxlPSJvcGFjaXR5OjAuMjI7ZmlsbDojNUI5QkQ1OyIgZD0iTTMyLjY3LDUyLjMyYy0xLjkxLTAuMDUtMy4zNiwwLjEzLTQuNjEsMC42NWMtMC4zNSwwLjE1LTAuOTIsMC4xNS0wLjk3LDAuNiAgICAgICBjMC4xOSwwLjIsMC4yMiwwLjUxLDAuMzgsMC43NmMwLjI5LDAuNDgsMC43OSwxLjEyLDEuMjQsMS40NmMwLjQ5LDAuMzcsMSwwLjc2LDEuNTIsMS4wOGMwLjkzLDAuNTcsMS45NywwLjksMi44NywxLjQ3ICAgICAgIGMwLjUzLDAuMzMsMS4wNiwwLjc2LDEuNTcsMS4xNGMwLjI2LDAuMTgsMC40MywwLjQ3LDAuNzYsMC41OWMwLTAuMDIsMC0wLjAzLDAtMC4wNWMtMC4xNy0wLjIyLTAuMjItMC41My0wLjM4LTAuNzYgICAgICAgYy0wLjIzLTAuMjQtMC40Ny0wLjQ3LTAuNy0wLjcxYy0wLjY5LTAuOTEtMS41Ni0xLjcxLTIuNDktMi4zOGMtMC43NS0wLjUzLTIuNC0xLjI1LTIuNzEtMi4xMWMtMC4wMi0wLjAyLTAuMDQtMC4wNC0wLjA2LTAuMDYgICAgICAgYzAuNTMtMC4wNiwxLjE0LTAuMjUsMS42My0wLjM4YzAuODEtMC4yMiwxLjU0LTAuMTYsMi4zOC0wLjM4YzAuMzgtMC4xMSwwLjc2LTAuMjEsMS4xNC0wLjMyYzAtMC4wNywwLTAuMTUsMC0wLjIyICAgICAgIGMtMC40Mi0wLjQ0LTAuNzMtMS4wMS0xLjE5LTEuNDFjLTEuMjItMS4wMy0yLjU0LTIuMDYtMy45LTIuOTNjLTAuNzYtMC40Ny0xLjctMC43OC0yLjUtMS4xOWMtMC4yNy0wLjEzLTAuNzQtMC4yLTAuOTItMC40MyAgICAgICBjLTAuNDItMC41NC0wLjY1LTEuMjItMC45Ny0xLjg0Yy0wLjY4LTEuMzEtMS4zNS0yLjc1LTEuOTYtNC4xMmMtMC40MS0wLjk0LTAuNjgtMS44Ny0xLjE5LTIuNzEgICAgICAgYy0yLjQ2LTQuMDUtNS4xMS02LjQ5LTkuMjEtOC44OWMtMC44OC0wLjUxLTEuOTMtMC43Mi0zLjA0LTAuOThjLTAuNTktMC4wNC0xLjE5LTAuMDctMS43OS0wLjExICAgICAgIGMtMC4zNi0wLjE1LTAuNzQtMC42LTEuMDgtMC44MWMtMS4zNi0wLjg2LTQuODUtMi43My01Ljg1LTAuMjdDMCwyOC41NiwxLjU5LDMwLjA3LDIuMTUsMzAuODZjMC40LDAuNTUsMC45MSwxLjE3LDEuMiwxLjc5ICAgICAgIGMwLjE4LDAuNCwwLjIyLDAuODEsMC4zOCwxLjI0YzAuMzksMS4wNiwwLjczLDIuMjIsMS4yNCwzLjJjMC4yNiwwLjUsMC41NCwxLjAyLDAuODcsMS40NmMwLjIsMC4yOCwwLjU0LDAuNCwwLjYsMC44MiAgICAgICBjLTAuMzQsMC40Ni0wLjM2LDEuMTktMC41NSwxLjc5Yy0wLjg0LDIuNjctMC41Miw1Ljk5LDAuNzEsNy45NmMwLjM4LDAuNjEsMS4yNywxLjkxLDIuNDksMS40MWMxLjA3LTAuNDMsMC44My0xLjc5LDEuMTQtMi45OCAgICAgICBjMC4wNy0wLjI3LDAuMDMtMC40NywwLjE2LTAuNjVjMCwwLjAyLDAsMC4wNCwwLDAuMDZjMC4zMywwLjY1LDAuNjUsMS4zLDAuOTgsMS45NWMwLjcyLDEuMTYsMiwyLjM3LDMuMDksMy4xOSAgICAgICBjMC41NiwwLjQzLDEsMS4xNywxLjczLDEuNDFjMC0wLjAxLDAtMC4wMywwLTAuMDVjLTAuMDIsMC0wLjAzLDAtMC4wNSwwYy0wLjE0LTAuMjItMC4zNi0wLjMxLTAuNTQtMC40OSAgICAgICBjLTAuNDMtMC40MS0wLjktMC45My0xLjI1LTEuNDFjLTAuOTktMS4zNC0xLjg2LTIuODEtMi42Ni00LjMzYy0wLjM4LTAuNzMtMC43MS0xLjU0LTEuMDMtMi4yOCAgICAgICBjLTAuMTItMC4yOS0wLjEyLTAuNzItMC4zOC0wLjg3Yy0wLjM1LDAuNTUtMC44NiwwLjk5LTEuMTMsMS42M2MtMC40NCwxLjAzLTAuNDksMi4yOC0wLjY1LDMuNTggICAgICAgYy0wLjEsMC4wMy0wLjA2LDAuMDEtMC4xMSwwLjA1Yy0wLjc2LTAuMTgtMS4wMi0wLjk2LTEuMy0xLjYzYy0wLjcxLTEuNjgtMC44NS00LjQtMC4yMi02LjM0YzAuMTYtMC41LDAuODktMi4wOCwwLjU5LTIuNTUgICAgICAgYy0wLjE0LTAuNDYtMC42LTAuNzMtMC44Ni0xLjA4Yy0wLjMyLTAuNDQtMC42NS0xLjAxLTAuODctMS41MmMtMC41OC0xLjMxLTAuODUtMi43OS0xLjQ2LTQuMTJjLTAuMy0wLjYzLTAuNzktMS4yNy0xLjItMS44NCAgICAgICBjLTAuNDQtMC42My0wLjk1LTEuMDktMS4zLTEuODRjLTAuMTItMC4yNy0wLjI5LTAuNy0wLjEtMC45OGMwLjA1LTAuMTgsMC4xNC0wLjI2LDAuMzItMC4zMmMwLjMyLTAuMjUsMS4xOSwwLjA4LDEuNTIsMC4yMSAgICAgICBjMC44NywwLjM2LDEuNTksMC43MSwyLjMzLDEuMmMwLjM1LDAuMjMsMC43MSwwLjY4LDEuMTQsMC44MWMwLjE2LDAsMC4zMiwwLDAuNDgsMGMwLjc3LDAuMTcsMS42MiwwLjA1LDIuMzQsMC4yNyAgICAgICBjMS4yNiwwLjM4LDIuMzgsMC45OCwzLjQxLDEuNjNjMy4xMiwxLjk3LDUuNjgsNC43OCw3LjQzLDguMTNjMC4yOCwwLjU0LDAuNCwxLjA1LDAuNjUsMS42MmMwLjUsMS4xNiwxLjEzLDIuMzQsMS42MiwzLjQ3ICAgICAgIGMwLjUsMS4xMywwLjk4LDIuMjYsMS42OCwzLjJjMC4zNywwLjQ5LDEuOCwwLjc2LDIuNDQsMS4wM2MwLjQ2LDAuMTksMS4yLDAuMzksMS42MywwLjY1YzAuODIsMC40OSwxLjYxLDEuMDgsMi4zOCwxLjYzICAgICAgIEMzMS40Myw1MS4yNCwzMi42MSw1MS44MywzMi42Nyw1Mi4zMnoiLz4mI3hhOwkJCQk8L2c+JiN4YTsJCQk8L2c+JiN4YTsJCQk8cGF0aCBpZD0icGF0aDEwMjA5MyIgaW5rc2NhcGU6Y29ubmVjdG9yLWN1cnZhdHVyZT0iMCIgc3R5bGU9ImZpbGw6I0ZGRkZGRjsiIGQ9Ik0zMi42Nyw1Mi4zMmMtMS45MS0wLjA1LTMuMzYsMC4xMy00LjYxLDAuNjUgICAgIGMtMC4zNSwwLjE1LTAuOTIsMC4xNS0wLjk3LDAuNmMwLjE5LDAuMiwwLjIyLDAuNTEsMC4zOCwwLjc2YzAuMjksMC40OCwwLjc5LDEuMTIsMS4yNCwxLjQ2YzAuNDksMC4zNywxLDAuNzYsMS41MiwxLjA4ICAgICBjMC45MywwLjU3LDEuOTcsMC45LDIuODcsMS40N2MwLjUzLDAuMzMsMS4wNiwwLjc2LDEuNTcsMS4xNGMwLjI2LDAuMTgsMC40MywwLjQ3LDAuNzYsMC41OWMwLTAuMDIsMC0wLjAzLDAtMC4wNSAgICAgYy0wLjE3LTAuMjItMC4yMi0wLjUzLTAuMzgtMC43NmMtMC4yMy0wLjI0LTAuNDctMC40Ny0wLjctMC43MWMtMC42OS0wLjkxLTEuNTYtMS43MS0yLjQ5LTIuMzhjLTAuNzUtMC41My0yLjQtMS4yNS0yLjcxLTIuMTEgICAgIGMtMC4wMi0wLjAyLTAuMDQtMC4wNC0wLjA2LTAuMDZjMC41My0wLjA2LDEuMTQtMC4yNSwxLjYzLTAuMzhjMC44MS0wLjIyLDEuNTQtMC4xNiwyLjM4LTAuMzhjMC4zOC0wLjExLDAuNzYtMC4yMSwxLjE0LTAuMzIgICAgIGMwLTAuMDcsMC0wLjE1LDAtMC4yMmMtMC40Mi0wLjQ0LTAuNzMtMS4wMS0xLjE5LTEuNDFjLTEuMjItMS4wMy0yLjU0LTIuMDYtMy45LTIuOTNjLTAuNzYtMC40Ny0xLjctMC43OC0yLjUtMS4xOSAgICAgYy0wLjI3LTAuMTMtMC43NC0wLjItMC45Mi0wLjQzYy0wLjQyLTAuNTQtMC42NS0xLjIyLTAuOTctMS44NGMtMC42OC0xLjMxLTEuMzUtMi43NS0xLjk2LTQuMTJjLTAuNDEtMC45NC0wLjY4LTEuODctMS4xOS0yLjcxICAgICBjLTIuNDYtNC4wNS01LjExLTYuNDktOS4yMS04Ljg5Yy0wLjg4LTAuNTEtMS45My0wLjcyLTMuMDQtMC45OGMtMC41OS0wLjA0LTEuMTktMC4wNy0xLjc5LTAuMTFjLTAuMzYtMC4xNS0wLjc0LTAuNi0xLjA4LTAuODEgICAgIGMtMS4zNi0wLjg2LTQuODUtMi43My01Ljg1LTAuMjdDMCwyOC41NiwxLjU5LDMwLjA3LDIuMTUsMzAuODZjMC40LDAuNTUsMC45MSwxLjE3LDEuMiwxLjc5YzAuMTgsMC40LDAuMjIsMC44MSwwLjM4LDEuMjQgICAgIGMwLjM5LDEuMDYsMC43MywyLjIyLDEuMjQsMy4yYzAuMjYsMC41LDAuNTQsMS4wMiwwLjg3LDEuNDZjMC4yLDAuMjgsMC41NCwwLjQsMC42LDAuODJjLTAuMzQsMC40Ni0wLjM2LDEuMTktMC41NSwxLjc5ICAgICBjLTAuODQsMi42Ny0wLjUyLDUuOTksMC43MSw3Ljk2YzAuMzgsMC42MSwxLjI3LDEuOTEsMi40OSwxLjQxYzEuMDctMC40MywwLjgzLTEuNzksMS4xNC0yLjk4YzAuMDctMC4yNywwLjAzLTAuNDcsMC4xNi0wLjY1ICAgICBjMCwwLjAyLDAsMC4wNCwwLDAuMDZjMC4zMywwLjY1LDAuNjUsMS4zLDAuOTgsMS45NWMwLjcyLDEuMTYsMiwyLjM3LDMuMDksMy4xOWMwLjU2LDAuNDMsMSwxLjE3LDEuNzMsMS40MSAgICAgYzAtMC4wMSwwLTAuMDMsMC0wLjA1Yy0wLjAyLDAtMC4wMywwLTAuMDUsMGMtMC4xNC0wLjIyLTAuMzYtMC4zMS0wLjU0LTAuNDljLTAuNDMtMC40MS0wLjktMC45My0xLjI1LTEuNDEgICAgIGMtMC45OS0xLjM0LTEuODYtMi44MS0yLjY2LTQuMzNjLTAuMzgtMC43My0wLjcxLTEuNTQtMS4wMy0yLjI4Yy0wLjEyLTAuMjktMC4xMi0wLjcyLTAuMzgtMC44N2MtMC4zNSwwLjU1LTAuODYsMC45OS0xLjEzLDEuNjMgICAgIGMtMC40NCwxLjAzLTAuNDksMi4yOC0wLjY1LDMuNThjLTAuMSwwLjAzLTAuMDYsMC4wMS0wLjExLDAuMDVjLTAuNzYtMC4xOC0xLjAyLTAuOTYtMS4zLTEuNjNjLTAuNzEtMS42OC0wLjg1LTQuNC0wLjIyLTYuMzQgICAgIGMwLjE2LTAuNSwwLjg5LTIuMDgsMC41OS0yLjU1Yy0wLjE0LTAuNDYtMC42LTAuNzMtMC44Ni0xLjA4Yy0wLjMyLTAuNDQtMC42NS0xLjAxLTAuODctMS41MmMtMC41OC0xLjMxLTAuODUtMi43OS0xLjQ2LTQuMTIgICAgIGMtMC4zLTAuNjMtMC43OS0xLjI3LTEuMi0xLjg0Yy0wLjQ0LTAuNjMtMC45NS0xLjA5LTEuMy0xLjg0Yy0wLjEyLTAuMjctMC4yOS0wLjctMC4xLTAuOThjMC4wNS0wLjE4LDAuMTQtMC4yNiwwLjMyLTAuMzIgICAgIGMwLjMyLTAuMjUsMS4xOSwwLjA4LDEuNTIsMC4yMWMwLjg3LDAuMzYsMS41OSwwLjcxLDIuMzMsMS4yYzAuMzUsMC4yMywwLjcxLDAuNjgsMS4xNCwwLjgxYzAuMTYsMCwwLjMyLDAsMC40OCwwICAgICBjMC43NywwLjE3LDEuNjIsMC4wNSwyLjM0LDAuMjdjMS4yNiwwLjM4LDIuMzgsMC45OCwzLjQxLDEuNjNjMy4xMiwxLjk3LDUuNjgsNC43OCw3LjQzLDguMTNjMC4yOCwwLjU0LDAuNCwxLjA1LDAuNjUsMS42MiAgICAgYzAuNSwxLjE2LDEuMTMsMi4zNCwxLjYyLDMuNDdjMC41LDEuMTMsMC45OCwyLjI2LDEuNjgsMy4yYzAuMzcsMC40OSwxLjgsMC43NiwyLjQ0LDEuMDNjMC40NiwwLjE5LDEuMiwwLjM5LDEuNjMsMC42NSAgICAgYzAuODIsMC40OSwxLjYxLDEuMDgsMi4zOCwxLjYzQzMxLjQzLDUxLjI0LDMyLjYxLDUxLjgzLDMyLjY3LDUyLjMyeiIvPiYjeGE7CQk8L2c+JiN4YTsJCTxnIGlkPSJzaGFwZTM2NDAtOSIgdHJhbnNmb3JtPSJ0cmFuc2xhdGUoMTguMDU0MiwtMzMuMzU2NSkiPiYjeGE7CQkJPHRpdGxlIGlkPSJ0aXRsZTEwMjA5NiI+U2hlZXQuMzY0MDwvdGl0bGU+JiN4YTsJCQk8ZyBpZD0ic2hhZG93MzY0MC0xMCIgdHJhbnNmb3JtPSJ0cmFuc2xhdGUoMC4zNDU2LDEuOTcyOCkiPiYjeGE7CQkJCTxnIGlkPSJwYXRoMTAyMDk4IiBpbmtzY2FwZTpjb25uZWN0b3ItY3VydmF0dXJlPSIwIiBzdHlsZT0iZmlsdGVyOnVybCgjZmlsdGVyXzIpOyI+JiN4YTsJCQkJCTxwYXRoIHN0eWxlPSJvcGFjaXR5OjAuMjI7ZmlsbDojNUI5QkQ1OyIgZD0iTTAuOTgsNTcuOEMwLjU4LDU3Ljc5LDAuMyw1Ny44NCwwLDU3LjljMCwwLjAyLDAsMC4wNCwwLDAuMDYgICAgICAgYzAuMDIsMCwwLjA0LDAsMC4wNSwwYzAuMTksMC4zOSwwLjUzLDAuNjQsMC43NiwwLjk3YzAuMTgsMC4zOCwwLjM2LDAuNzYsMC41NSwxLjE0YzAuMDEtMC4wMiwwLjAzLTAuMDMsMC4wNS0wLjA1ICAgICAgIGMwLjMzLTAuMjQsMC40OS0wLjYyLDAuNDktMS4xOWMtMC4xNC0wLjE1LTAuMTYtMC4zMi0wLjI3LTAuNDlDMS40Nyw1OC4xMSwxLjE3LDU3Ljk4LDAuOTgsNTcuOHoiLz4mI3hhOwkJCQk8L2c+JiN4YTsJCQk8L2c+JiN4YTsJCQk8cGF0aCBpZD0icGF0aDEwMjEwMSIgaW5rc2NhcGU6Y29ubmVjdG9yLWN1cnZhdHVyZT0iMCIgc3R5bGU9ImZpbGw6I0ZGRkZGRjsiIGQ9Ik0wLjk4LDU3LjhDMC41OCw1Ny43OSwwLjMsNTcuODQsMCw1Ny45ICAgICBjMCwwLjAyLDAsMC4wNCwwLDAuMDZjMC4wMiwwLDAuMDQsMCwwLjA1LDBjMC4xOSwwLjM5LDAuNTMsMC42NCwwLjc2LDAuOTdjMC4xOCwwLjM4LDAuMzYsMC43NiwwLjU1LDEuMTQgICAgIGMwLjAxLTAuMDIsMC4wMy0wLjAzLDAuMDUtMC4wNWMwLjMzLTAuMjQsMC40OS0wLjYyLDAuNDktMS4xOWMtMC4xNC0wLjE1LTAuMTYtMC4zMi0wLjI3LTAuNDlDMS40Nyw1OC4xMSwxLjE3LDU3Ljk4LDAuOTgsNTcuOHogICAgICIvPiYjeGE7CQk8L2c+JiN4YTsJPC9nPiYjeGE7PC9nPiYjeGE7PC9zdmc+;rounded=0;fontFamily=Helvetica;fontSize=12;strokeColor=#007FFF;fillColor=#E6E6E6;opacity=80;" vertex="1" parent="1">
          <mxGeometry x="140" y="594" width="53" height="60" as="geometry" />
        </mxCell>
        <mxCell id="ZaQ2WHesoQ1tdpj846Ri-30" value="" style="shape=image;verticalLabelPosition=bottom;labelBackgroundColor=#ffffff;verticalAlign=top;aspect=fixed;imageAspect=0;image=data:image/svg+xml,PHN2ZyB4bWxuczpjYz0iaHR0cDovL2NyZWF0aXZlY29tbW9ucy5vcmcvbnMjIiB4bWxuczpkYz0iaHR0cDovL3B1cmwub3JnL2RjL2VsZW1lbnRzLzEuMS8iIHhtbG5zOmlua3NjYXBlPSJodHRwOi8vd3d3Lmlua3NjYXBlLm9yZy9uYW1lc3BhY2VzL2lua3NjYXBlIiB4bWxuczpyZGY9Imh0dHA6Ly93d3cudzMub3JnLzE5OTkvMDIvMjItcmRmLXN5bnRheC1ucyMiIHhtbG5zOnNvZGlwb2RpPSJodHRwOi8vc29kaXBvZGkuc291cmNlZm9yZ2UubmV0L0RURC9zb2RpcG9kaS0wLmR0ZCIgeG1sbnM6c3ZnPSJodHRwOi8vd3d3LnczLm9yZy8yMDAwL3N2ZyIgeG1sbnM9Imh0dHA6Ly93d3cudzMub3JnLzIwMDAvc3ZnIiB4bWxuczp4bGluaz0iaHR0cDovL3d3dy53My5vcmcvMTk5OS94bGluayIgdmVyc2lvbj0iMS4xIiBpZD0ic3ZnODAxNTgiIGlua3NjYXBlOnZlcnNpb249IjAuOTIuMyAoMjQwNTU0NiwgMjAxOC0wMy0xMSkiIHNvZGlwb2RpOmRvY25hbWU9ImV2ZW50X2h1YnMuc3ZnIiB4PSIwcHgiIHk9IjBweCIgdmlld0JveD0iMCAwIDIzLjQgMjQuMDQiIHN0eWxlPSJlbmFibGUtYmFja2dyb3VuZDpuZXcgMCAwIDIzLjQgMjQuMDQ7IiB4bWw6c3BhY2U9InByZXNlcnZlIj4mI3hhOzxzb2RpcG9kaTpuYW1lZHZpZXcgYm9yZGVyY29sb3I9IiM2NjY2NjYiIGJvcmRlcm9wYWNpdHk9IjEiIGZpdC1tYXJnaW4tYm90dG9tPSIwIiBmaXQtbWFyZ2luLWxlZnQ9IjAiIGZpdC1tYXJnaW4tcmlnaHQ9IjAiIGZpdC1tYXJnaW4tdG9wPSIwIiBncmlkdG9sZXJhbmNlPSIxMCIgZ3VpZGV0b2xlcmFuY2U9IjEwIiBpZD0ibmFtZWR2aWV3ODAxNjAiIGlua3NjYXBlOmN1cnJlbnQtbGF5ZXI9InN2ZzgwMTU4IiBpbmtzY2FwZTpjeD0iMTIuMjIxNzY5IiBpbmtzY2FwZTpjeT0iMTUuMjI5NTkiIGlua3NjYXBlOnBhZ2VvcGFjaXR5PSIwIiBpbmtzY2FwZTpwYWdlc2hhZG93PSIyIiBpbmtzY2FwZTp3aW5kb3ctaGVpZ2h0PSIxMDE3IiBpbmtzY2FwZTp3aW5kb3ctbWF4aW1pemVkPSIxIiBpbmtzY2FwZTp3aW5kb3ctd2lkdGg9IjE5MjAiIGlua3NjYXBlOndpbmRvdy14PSItOCIgaW5rc2NhcGU6d2luZG93LXk9Ii04IiBpbmtzY2FwZTp6b29tPSIxNy45Njc2ODkiIG9iamVjdHRvbGVyYW5jZT0iMTAiIHBhZ2Vjb2xvcj0iI2ZmZmZmZiIgc2hvd2dyaWQ9ImZhbHNlIj4mI3hhOwk8L3NvZGlwb2RpOm5hbWVkdmlldz4mI3hhOzxnIGlkPSJnODAxNTYiIHRyYW5zZm9ybT0idHJhbnNsYXRlKC0wLjc3Mjc3NTk3LC0wLjc3NDk3MykiPiYjeGE7CTx0aXRsZSBpZD0idGl0bGU4MDExMSI+UGFnZS0xPC90aXRsZT4mI3hhOwk8ZyBpZD0iZ3JvdXA0NDYxLTEiIHRyYW5zZm9ybT0idHJhbnNsYXRlKDAuNzcyNzI3LC0wLjc3MjcyNykiPiYjeGE7CQk8dGl0bGUgaWQ9InRpdGxlODAxMTMiPkV2ZW50IGh1YnMuNDQwPC90aXRsZT4mI3hhOwkJPGcgaWQ9InNoYXBlNDQ2Mi0yIiB0cmFuc2Zvcm09InRyYW5zbGF0ZSgxMC41MTU5LC0xMi44MTk5KSI+JiN4YTsJCQk8dGl0bGUgaWQ9InRpdGxlODAxMTUiPlNoZWV0LjQ0NjI8L3RpdGxlPiYjeGE7CQkJPHBhdGggaWQ9InBhdGg4MDExNyIgaW5rc2NhcGU6Y29ubmVjdG9yLWN1cnZhdHVyZT0iMCIgc3R5bGU9ImZpbGw6I0I4RDQzMjsiIGQ9Ik0zLjk2LDI1LjE4YzAsMC4yMy0wLjE4LDAuNDEtMC40MiwwLjQxSDAuNDEgICAgIEMwLjE4LDI1LjU5LDAsMjUuNDEsMCwyNS4xOHYtMi4zMWMwLTAuMjMsMC4xOC0wLjQxLDAuNDEtMC40MWgzLjEzYzAuMjQsMCwwLjQyLDAuMTgsMC40MiwwLjQxTDMuOTYsMjUuMTh6Ii8+JiN4YTsJCTwvZz4mI3hhOwkJPGcgaWQ9InNoYXBlNDQ2My00IiB0cmFuc2Zvcm09InRyYW5zbGF0ZSgxNi4xODc0LC0xMC4zOTc3KSI+JiN4YTsJCQk8dGl0bGUgaWQ9InRpdGxlODAxMjAiPlNoZWV0LjQ0NjM8L3RpdGxlPiYjeGE7CQkJPHBhdGggaWQ9InBhdGg4MDEyMiIgaW5rc2NhcGU6Y29ubmVjdG9yLWN1cnZhdHVyZT0iMCIgc3R5bGU9ImZpbGw6I0I4RDQzMjsiIGQ9Ik0zLjksMjUuMThjMCwwLjIzLTAuMTgsMC40MS0wLjQxLDAuNDFIMC40MSAgICAgQzAuMTgsMjUuNTksMCwyNS40MSwwLDI1LjE4di0yLjMxYzAtMC4yMywwLjE4LTAuNDEsMC40MS0wLjQxaDMuMTNjMC4yNCwwLDAuNDIsMC4xOCwwLjQyLDAuNDF2Mi4zMUgzLjl6Ii8+JiN4YTsJCTwvZz4mI3hhOwkJPGcgaWQ9InNoYXBlNDQ2NC02IiB0cmFuc2Zvcm09InRyYW5zbGF0ZSgxMC41MTU5LC03Ljk3NTUzKSI+JiN4YTsJCQk8dGl0bGUgaWQ9InRpdGxlODAxMjUiPlNoZWV0LjQ0NjQ8L3RpdGxlPiYjeGE7CQkJPHBhdGggaWQ9InBhdGg4MDEyNyIgaW5rc2NhcGU6Y29ubmVjdG9yLWN1cnZhdHVyZT0iMCIgc3R5bGU9ImZpbGw6I0I4RDQzMjsiIGQ9Ik0zLjk2LDI1LjE4YzAsMC4yMy0wLjE4LDAuNDEtMC40MiwwLjQxSDAuNDEgICAgIEMwLjE4LDI1LjU5LDAsMjUuNDEsMCwyNS4xOHYtMi4zMWMwLTAuMjMsMC4xOC0wLjQxLDAuNDEtMC40MWgzLjEzYzAuMjQsMCwwLjQyLDAuMTgsMC40MiwwLjQxTDMuOTYsMjUuMTh6Ii8+JiN4YTsJCTwvZz4mI3hhOwkJPGcgaWQ9InNoYXBlNDQ2NS04IiB0cmFuc2Zvcm09InRyYW5zbGF0ZSg0Ljg0NDQsLTE1LjI0MjEpIj4mI3hhOwkJCTx0aXRsZSBpZD0idGl0bGU4MDEzMCI+U2hlZXQuNDQ2NTwvdGl0bGU+JiN4YTsJCQk8cGF0aCBpZD0icGF0aDgwMTMyIiBpbmtzY2FwZTpjb25uZWN0b3ItY3VydmF0dXJlPSIwIiBzdHlsZT0iZmlsbDojQjhENDMyOyIgZD0iTTQuMDIsMjUuMThjMCwwLjIzLTAuMTgsMC40MS0wLjQyLDAuNDFIMC40MSAgICAgQzAuMTgsMjUuNTksMCwyNS40MSwwLDI1LjE4di0yLjQzYzAtMC4yMywwLjE4LTAuNDEsMC40MS0wLjQxaDMuMTNjMC4zLDAsMC40OCwwLjE4LDAuNDgsMC40MVYyNS4xOHoiLz4mI3hhOwkJPC9nPiYjeGE7CQk8ZyBpZD0ic2hhcGU0NDY2LTEwIiB0cmFuc2Zvcm09InRyYW5zbGF0ZSgwLC0xOC40MzIzKSI+JiN4YTsJCQk8dGl0bGUgaWQ9InRpdGxlODAxMzUiPlNoZWV0LjQ0NjY8L3RpdGxlPiYjeGE7CQkJPHBhdGggaWQ9InBhdGg4MDEzNyIgaW5rc2NhcGU6Y29ubmVjdG9yLWN1cnZhdHVyZT0iMCIgc3R5bGU9ImZpbGw6IzAwNzJDNjsiIGQ9Ik0yMi45MiwxOS45OGgtMC4wNmgtMi4zSDIuODRoLTEuNkgwLjQxICAgICBDMC4xOCwxOS45OCwwLDIwLjE2LDAsMjAuMzl2NC43OWMwLDAuMjMsMC4xOCwwLjQxLDAuNDEsMC40MWgyLjQzYzAuMjMsMCwwLjQxLTAuMTgsMC40MS0wLjQxdi0yLjAxaDE2Ljg0djIuMDEgICAgIGMwLDAuMjMsMC4xNywwLjQxLDAuNDcsMC40MWgyLjNjMC4yNCwwLDAuNDItMC4xOCwwLjQyLTAuNDF2LTIuNDN2LTIuMzZDMjMuMzQsMjAuMTYsMjMuMTYsMTkuOTgsMjIuOTIsMTkuOTh6Ii8+JiN4YTsJCTwvZz4mI3hhOwkJPGcgaWQ9InNoYXBlNDQ2Ny0xMiIgdHJhbnNmb3JtPSJ0cmFuc2xhdGUoMC4xMTgxNTYpIj4mI3hhOwkJCTx0aXRsZSBpZD0idGl0bGU4MDE0MCI+U2hlZXQuNDQ2NzwvdGl0bGU+JiN4YTsJCQk8cGF0aCBpZD0icGF0aDgwMTQyIiBpbmtzY2FwZTpjb25uZWN0b3ItY3VydmF0dXJlPSIwIiBzdHlsZT0iZmlsbDojMDA3MkM2OyIgZD0iTTIyLjgsMjAuMDRoLTIuM2MtMC4yNCwwLTAuNDEsMC4xNy0wLjQxLDAuNDEgICAgIHYxLjk1SDMuMTl2LTIuMDFjMC0wLjIzLTAuMTgtMC40MS0wLjQ3LTAuNDFIMC40MUMwLjE4LDE5Ljk4LDAsMjAuMTYsMCwyMC40NXY0LjczYzAsMC4yMywwLjE4LDAuNDEsMC40MSwwLjQxaDAuODNoMS42aDE3LjcyICAgICBoMi4yNGgwLjA2YzAuMjQsMCwwLjQyLTAuMTgsMC40Mi0wLjQxdi00LjczQzIzLjIyLDIwLjIxLDIzLjA0LDIwLjA0LDIyLjgsMjAuMDR6Ii8+JiN4YTsJCTwvZz4mI3hhOwkJPGcgaWQ9InNoYXBlNDQ2OC0xNCIgdHJhbnNmb3JtPSJ0cmFuc2xhdGUoNC45MDM0NywtMTAuNDU2OCkiPiYjeGE7CQkJPHRpdGxlIGlkPSJ0aXRsZTgwMTQ1Ij5TaGVldC40NDY4PC90aXRsZT4mI3hhOwkJCTxwYXRoIGlkPSJwYXRoODAxNDciIGlua3NjYXBlOmNvbm5lY3Rvci1jdXJ2YXR1cmU9IjAiIHN0eWxlPSJmaWxsOiNCOEQ0MzI7IiBkPSJNMy45NiwyNS4xOGMwLDAuMjMtMC4xOCwwLjQxLTAuNDIsMC40MUgwLjQxICAgICBDMC4xOCwyNS41OSwwLDI1LjQxLDAsMjUuMTh2LTIuMzFjMC0wLjIzLDAuMTgtMC40MSwwLjQxLTAuNDFoMy4xM2MwLjI0LDAsMC40MiwwLjE4LDAuNDIsMC40MUwzLjk2LDI1LjE4eiIvPiYjeGE7CQk8L2c+JiN4YTsJCTxnIGlkPSJzaGFwZTQ0NjktMTYiIHRyYW5zZm9ybT0idHJhbnNsYXRlKDQuODQ0NCwtNS42MTI0MSkiPiYjeGE7CQkJPHRpdGxlIGlkPSJ0aXRsZTgwMTUwIj5TaGVldC40NDY5PC90aXRsZT4mI3hhOwkJCTxwYXRoIGlkPSJwYXRoODAxNTIiIGlua3NjYXBlOmNvbm5lY3Rvci1jdXJ2YXR1cmU9IjAiIHN0eWxlPSJmaWxsOiNCOEQ0MzI7IiBkPSJNMy45NiwyNS4xOGMwLDAuMjMtMC4xOCwwLjQxLTAuNDIsMC40MUgwLjQxICAgICBDMC4xOCwyNS41OSwwLDI1LjQxLDAsMjUuMTh2LTIuMzFjMC0wLjIzLDAuMTgtMC40MSwwLjQxLTAuNDFoMy4xM2MwLjI0LDAsMC40MiwwLjE4LDAuNDIsMC40MUwzLjk2LDI1LjE4eiIvPiYjeGE7CQk8L2c+JiN4YTsJPC9nPiYjeGE7PC9nPiYjeGE7PC9zdmc+;rounded=0;fontFamily=Helvetica;fontSize=12;strokeColor=#007FFF;fillColor=#E6E6E6;opacity=80;" vertex="1" parent="1">
          <mxGeometry x="330" y="810" width="43" height="44.87" as="geometry" />
        </mxCell>
        <mxCell id="ZaQ2WHesoQ1tdpj846Ri-31" value="" style="shape=image;verticalLabelPosition=bottom;labelBackgroundColor=#ffffff;verticalAlign=top;aspect=fixed;imageAspect=0;image=data:image/svg+xml,PHN2ZyB4bWxuczpkYz0iaHR0cDovL3B1cmwub3JnL2RjL2VsZW1lbnRzLzEuMS8iIHhtbG5zOmNjPSJodHRwOi8vY3JlYXRpdmVjb21tb25zLm9yZy9ucyMiIHhtbG5zOnJkZj0iaHR0cDovL3d3dy53My5vcmcvMTk5OS8wMi8yMi1yZGYtc3ludGF4LW5zIyIgeG1sbnM6c3ZnPSJodHRwOi8vd3d3LnczLm9yZy8yMDAwL3N2ZyIgeG1sbnM9Imh0dHA6Ly93d3cudzMub3JnLzIwMDAvc3ZnIiB4bWxuczpzb2RpcG9kaT0iaHR0cDovL3NvZGlwb2RpLnNvdXJjZWZvcmdlLm5ldC9EVEQvc29kaXBvZGktMC5kdGQiIHhtbG5zOmlua3NjYXBlPSJodHRwOi8vd3d3Lmlua3NjYXBlLm9yZy9uYW1lc3BhY2VzL2lua3NjYXBlIiB2ZXJzaW9uPSIxLjEiIGlkPSJzdmc5ODUyMCIgaW5rc2NhcGU6dmVyc2lvbj0iMC45Mi4zICgyNDA1NTQ2LCAyMDE4LTAzLTExKSIgc29kaXBvZGk6ZG9jbmFtZT0ic3RyZWFtX2FuYWx5dGljcy5zdmciIHg9IjBweCIgeT0iMHB4IiB2aWV3Qm94PSIwIDAgMTIxLjYxIDk0LjM3MDA2OSIgeG1sOnNwYWNlPSJwcmVzZXJ2ZSIgd2lkdGg9IjEyMS42MSIgaGVpZ2h0PSI5NC4zNzAwNzEiPjxtZXRhZGF0YSBpZD0ibWV0YWRhdGEzMDk4Ij48cmRmOlJERj48Y2M6V29yayByZGY6YWJvdXQ9IiI+PGRjOmZvcm1hdD5pbWFnZS9zdmcreG1sPC9kYzpmb3JtYXQ+PGRjOnR5cGUgcmRmOnJlc291cmNlPSJodHRwOi8vcHVybC5vcmcvZGMvZGNtaXR5cGUvU3RpbGxJbWFnZSIvPjxkYzp0aXRsZS8+PC9jYzpXb3JrPjwvcmRmOlJERj48L21ldGFkYXRhPjxkZWZzIGlkPSJkZWZzMzA5NiI+JiN4YTsJJiN4YTsmI3hhOwkmI3hhOyYjeGE7CSYjeGE7JiN4YTsJJiN4YTsmI3hhOwkmI3hhOwkmI3hhOwkmI3hhOyYjeGE7CSYjeGE7CSYjeGE7CSYjeGE7JiN4YTsJCSYjeGE7CSYjeGE7CQkmI3hhOwkmI3hhOwkJJiN4YTsJJiN4YTsJCSYjeGE7CSYjeGE7CQkmI3hhOwkmI3hhOwkJJiN4YTsJJiN4YTsJCQkmI3hhOwkJJiN4YTsJCQkmI3hhOwkJPC9kZWZzPiYjeGE7PGZpbHRlciBpZD0iZmlsdGVyXzIiPiYjeGE7CTxmZUdhdXNzaWFuQmx1ciBpZD0iZmVHYXVzc2lhbkJsdXI5ODQ1OCIgc3RkRGV2aWF0aW9uPSIyIi8+JiN4YTs8L2ZpbHRlcj4mI3hhOzxzb2RpcG9kaTpuYW1lZHZpZXcgYm9yZGVyY29sb3I9IiM2NjY2NjYiIGJvcmRlcm9wYWNpdHk9IjEiIGZpdC1tYXJnaW4tYm90dG9tPSIwIiBmaXQtbWFyZ2luLWxlZnQ9IjAiIGZpdC1tYXJnaW4tcmlnaHQ9IjAiIGZpdC1tYXJnaW4tdG9wPSIwIiBncmlkdG9sZXJhbmNlPSIxMCIgZ3VpZGV0b2xlcmFuY2U9IjEwIiBpZD0ibmFtZWR2aWV3OTg1MjIiIGlua3NjYXBlOmN1cnJlbnQtbGF5ZXI9InN2Zzk4NTIwIiBpbmtzY2FwZTpjeD0iOC40ODMzMDc2IiBpbmtzY2FwZTpjeT0iMzkuNzI2NTgiIGlua3NjYXBlOnBhZ2VvcGFjaXR5PSIwIiBpbmtzY2FwZTpwYWdlc2hhZG93PSIyIiBpbmtzY2FwZTp3aW5kb3ctaGVpZ2h0PSIxMDE3IiBpbmtzY2FwZTp3aW5kb3ctbWF4aW1pemVkPSIxIiBpbmtzY2FwZTp3aW5kb3ctd2lkdGg9IjE5MjAiIGlua3NjYXBlOndpbmRvdy14PSItOCIgaW5rc2NhcGU6d2luZG93LXk9Ii04IiBpbmtzY2FwZTp6b29tPSIzLjg2ODgxNDEiIG9iamVjdHRvbGVyYW5jZT0iMTAiIHBhZ2Vjb2xvcj0iI2ZmZmZmZiIgc2hvd2dyaWQ9ImZhbHNlIj4mI3hhOwk8L3NvZGlwb2RpOm5hbWVkdmlldz4mI3hhOyYjeGE7PHBhdGggaWQ9InBhdGg5ODQ3MSIgaW5rc2NhcGU6Y29ubmVjdG9yLWN1cnZhdHVyZT0iMCIgc3R5bGU9ImZpbGw6IzdhN2E3YSIgZD0ibSAxMDUuMzEsNjMuOTYwMDc1IDIuOTIsLTcuNTMgMTMuMzgsLTQuNjMgdiAtMTAuNyBsIC0xLjQ2LC0wLjQ4IC0xMS45MiwtMy40MSAtMi45MiwtNy41NCA2LjA4LC0xMi40IC03LjU0LC03LjU0IC0xLjQ2LDAuNzMgLTEwLjk0LDUuNTkgLTcuNzgsLTMuMTYgLTQuODcsLTEyLjg5IEggNjcuODYgbCAtMC40OSwxLjQ2IC0zLjY1LDExLjQzIC03LjU0LDIuOTIgLTEyLjg5LC01LjYgLTcuNzgsNy41NCAwLjczLDEuNDYgMy40LDYuMzMgYyA2LjA4LC0zLjQxIDEyLjQxLC00Ljg3IDE5LjIyLC00Ljg3IDkuNDgsMC40OSAxOC4yNCwzLjg5IDI1LjA1LDEwLjIyIDEuNDYsMS4yMSAyLjkyLDIuMTkgNC42MiwzLjg5IDAuNzMsMC43MyAxLjQ2LDEuOTUgMS45NSwyLjY3IDQuNjIsOC4wMyAyLjY3LDE4LjI1IC00Ljg3LDI0LjMzIC01LjU5LDQuNjIgLTEzLjM3LDUuMzUgLTE5LjIxLDIuNjcgLTAuNzMsLTAuNDkgLTEuMjIsLTAuNDkgLTEuNDYsLTAuNzMgLTEuNDYsLTAuNzMgLTIuOTIsLTEuOTQgLTQuMTQsLTIuOTIgLTAuNDgsMCAtMC43MywtMC40OCAtMS40NiwtMC40OCAtMS40NSwwIC0yLjkxLDAuNzMgLTQuMTMsMS45NCBsIC0wLjQ5LDAuNDkgYyAtNC42Miw0LjYyIC05LjcyLDguMDIgLTE1LjU2LDkuNzMgbCAtMi4xOSw0LjYyIDcuMyw3LjI5IDAuNDgsMC40OSAxLjQ2LC0wLjczIDEwLjk1LC01LjU5IDcuNTQsMi45MiA0LjEzLDEyLjg5IGggMTAuOTQgbCAwLjQ5LC0xLjQ2IDMuODksLTExLjQzIDcuNTQsLTIuOTIgMTIuODksNS41OSA3LjMsLTguMDIgLTAuNzMsLTEuNDYgeiIvPiYjeGE7JiN4YTs8cGF0aCBpZD0icGF0aDk4NDc5IiBpbmtzY2FwZTpjb25uZWN0b3ItY3VydmF0dXJlPSIwIiBzdHlsZT0iZmlsbDojNDhjOGVmIiBkPSJtIDQwLjEzLDQ0Ljk5MDA3NSBjIC04LjI3LDguNzYgLTIxLjY0LDguNzYgLTI5LjQzLC0wLjQ4IC0wLjczLC0xLjIyIC0yLjY3LC0xLjIyIC0zLjQsMCAtMC40OSwwLjQ4IC0wLjczLDEuMjEgLTAuNzMsMS45NCAwLDAuNzMgMC40OSwxLjQ2IDAuNzMsMS45NSA5LjczLDEwLjk0IDI2LjAyLDExLjE5IDM2LjQ4LDAuNDkgOC4yNywtOC4yNyAyMS4xNiwtOC41MiAyOS4xOSwwLjcyIDEuMjEsMS4yMiAyLjY3LDEuMjIgMy40LDAgMC40OSwtMC40OCAwLjczLC0xLjIxIDAuNzMsLTEuOTQgMCwtMC43MyAtMC40OCwtMS40NiAtMC43MywtMS45NSAtOS43MywtMTAuOTQgLTI2LjAyLC0xMS4xOCAtMzYuMjQsLTAuNzMgeiIvPiYjeGE7JiN4YTs8cGF0aCBpZD0icGF0aDk4NDg3IiBpbmtzY2FwZTpjb25uZWN0b3ItY3VydmF0dXJlPSIwIiBzdHlsZT0iZmlsbDojMDBhYmVjIiBkPSJtIDU4LjM3LDQ5LjYyMDA3NSBjIC00LjYyLDAgLTguMjcsMS40NiAtMTEuNjcsNC44NiBsIC0wLjQ5LDAuNDkgLTAuNDksMC40OSBjIC01LjU5LDYuMDggLTEzLjM3LDkgLTIxLjE2LDguNzUgLTguMDIsMCAtMTUuMDcsLTMuODkgLTIwLjkxLC05LjczIC0xLjIyLC0xLjIxIC0yLjY4LC0xLjIxIC0zLjQxLDAgLTAuMjQsMCAtMC4yNCwwLjQ5IC0wLjI0LDEuMjIgMCwwLjczIDAuNzMsMS45NSAxLjIyLDIuMTkgNi4zMiw3LjMgMTUuMDgsMTEuNDMgMjQuMzIsMTEuNDMgOSwwLjQ5IDE3Ljc1LC0zLjQgMjQuNTYsLTEwLjcgbCAwLjQ5LC0wLjQ5IDAuNDgsLTAuNDggYyAyLjE5LC0yLjE5IDQuODcsLTMuNDEgOC4wMywtMy40MSAyLjkyLDAgNS41OSwxLjQ2IDguMDMsMy44OSAxLjIxLDEuMjIgMi42NywxLjIyIDMuNCwwIDAuNDksLTAuNDggMC43MywtMS4yMSAwLjczLC0xLjk0IDAsLTAuNzMgLTAuNDksLTEuNDYgLTAuNzMsLTEuOTUgLTMuNCwtMi42NyAtNy41NCwtNC42MiAtMTIuMTYsLTQuNjIgeiIvPiYjeGE7JiN4YTs8cGF0aCBpZD0icGF0aDk4NDk1IiBpbmtzY2FwZTpjb25uZWN0b3ItY3VydmF0dXJlPSIwIiBzdHlsZT0iZmlsbDojODRkNmVmIiBkPSJtIDM3Ljk0LDM5LjY0MDA3NSBjIDUuNTksLTYuMDggMTMuMzgsLTkgMjEuMTYsLTkgNy43OCwwIDE1LjA4LDMuODkgMjAuNDMsOS43MyAxLjIyLDEuMjIgMi42OCwxLjIyIDMuNDEsMCAwLjQ4LC0wLjQ5IDAuNzIsLTEuMjIgMC43MiwtMS45NSAwLC0wLjczIC0wLjQ4LC0xLjQ2IC0wLjcyLC0xLjk0IC02LjMzLC03LjMgLTE1LjA4LC0xMS40MyAtMjQuMzMsLTExLjQzIC05LjI0LDAgLTE3Ljc1LDMuNCAtMjQuNTYsMTAuNyBsIC0wLjQ5LDAuNDggLTAuNDgsMC40OSBjIC0yLjE5LDIuMTkgLTQuODcsMy40MSAtOC4wMywzLjQxIC0zLjE2LDAgLTUuNTksLTEuNDYgLTguMDMsLTMuOSAtMS4yMSwtMS4yMSAtMi42NywtMS4yMSAtMy40LDAgLTAuNDksMC40OSAtMC43MywxLjIyIC0wLjczLDEuOTUgMCwwLjczIDAuNDksMS40NiAwLjczLDEuOTUgMi45MiwzLjQgNy4zLDUuMzUgMTEuNDMsNS4zNSA0LjYyLDAgOC4yNywtMS40NiAxMS42NywtNC44NyBsIDAuNDksLTAuNDggeiIvPiYjeGE7JiN4YTs8cGF0aCBkPSJtIDM5Ljg4OTY2LDI1Ljc4IGMgNi4wOCwtMy40IDEyLjQsLTQuODYgMTkuMjEsLTQuODYgOS40OSwwLjQ4IDE4LjI0LDMuODkgMjUuMDUsMTAuMjEgMS4yMiwwLjk3IDIuMTksMS43IDMuNDEsMi42OCBsIDIwLjE4LC0yMC4xOSAtNC4xMywtNC4xMyAtMS40NiwwLjcyIC0xMC45NCw1LjYgLTcuNTQsLTIuOTIgLTQuODcsLTEyLjg5IGggLTEwLjk0IGwgLTAuNDksMS40NiAtMy42NSwxMS40MyAtNy41NCwyLjkyIC0xMi44OSwtNS42IC03Ljc4LDcuNTQgMC43MywxLjQ2IHoiIHN0eWxlPSJmaWxsOiNmMWYxZjE7ZmlsbC1vcGFjaXR5OjAuMiIgaW5rc2NhcGU6Y29ubmVjdG9yLWN1cnZhdHVyZT0iMCIgaWQ9InBhdGg5ODUxMyIvPiYjeGE7PC9zdmc+;rounded=0;fontFamily=Helvetica;fontSize=12;strokeColor=#007FFF;fillColor=#E6E6E6;opacity=80;" vertex="1" parent="1">
          <mxGeometry x="219" y="810" width="61.74" height="47.57" as="geometry" />
        </mxCell>
        <mxCell id="ZaQ2WHesoQ1tdpj846Ri-32" value="" style="shape=image;verticalLabelPosition=bottom;labelBackgroundColor=#ffffff;verticalAlign=top;aspect=fixed;imageAspect=0;image=data:image/svg+xml,PHN2ZyB4bWxuczpkYz0iaHR0cDovL3B1cmwub3JnL2RjL2VsZW1lbnRzLzEuMS8iIHhtbG5zOmNjPSJodHRwOi8vY3JlYXRpdmVjb21tb25zLm9yZy9ucyMiIHhtbG5zOnJkZj0iaHR0cDovL3d3dy53My5vcmcvMTk5OS8wMi8yMi1yZGYtc3ludGF4LW5zIyIgeG1sbnM6c3ZnPSJodHRwOi8vd3d3LnczLm9yZy8yMDAwL3N2ZyIgeG1sbnM9Imh0dHA6Ly93d3cudzMub3JnLzIwMDAvc3ZnIiB4bWxuczpzb2RpcG9kaT0iaHR0cDovL3NvZGlwb2RpLnNvdXJjZWZvcmdlLm5ldC9EVEQvc29kaXBvZGktMC5kdGQiIHhtbG5zOmlua3NjYXBlPSJodHRwOi8vd3d3Lmlua3NjYXBlLm9yZy9uYW1lc3BhY2VzL2lua3NjYXBlIiB2ZXJzaW9uPSIxLjEiIGlkPSJzdmc5MTExMCIgaW5rc2NhcGU6dmVyc2lvbj0iMC45Mi4zICgyNDA1NTQ2LCAyMDE4LTAzLTExKSIgc29kaXBvZGk6ZG9jbmFtZT0icG93ZXJfYmkuc3ZnIiB4PSIwcHgiIHk9IjBweCIgdmlld0JveD0iMCAwIDUwLjg1IDM4LjA3IiB4bWw6c3BhY2U9InByZXNlcnZlIiB3aWR0aD0iNTAuODQ5OTk4IiBoZWlnaHQ9IjM4LjA3Ij48bWV0YWRhdGEgaWQ9Im1ldGFkYXRhMTgwNjYiPjxyZGY6UkRGPjxjYzpXb3JrIHJkZjphYm91dD0iIj48ZGM6Zm9ybWF0PmltYWdlL3N2Zyt4bWw8L2RjOmZvcm1hdD48ZGM6dHlwZSByZGY6cmVzb3VyY2U9Imh0dHA6Ly9wdXJsLm9yZy9kYy9kY21pdHlwZS9TdGlsbEltYWdlIi8+PGRjOnRpdGxlLz48L2NjOldvcms+PC9yZGY6UkRGPjwvbWV0YWRhdGE+PGRlZnMgaWQ9ImRlZnMxODA2NCIvPiYjeGE7PGZpbHRlciBpZD0iZmlsdGVyXzIiPiYjeGE7CTxmZUdhdXNzaWFuQmx1ciBpZD0iZmVHYXVzc2lhbkJsdXI5MTA0MyIgc3RkRGV2aWF0aW9uPSIyIi8+JiN4YTs8L2ZpbHRlcj4mI3hhOzxzb2RpcG9kaTpuYW1lZHZpZXcgYm9yZGVyY29sb3I9IiM2NjY2NjYiIGJvcmRlcm9wYWNpdHk9IjEiIGZpdC1tYXJnaW4tYm90dG9tPSIwIiBmaXQtbWFyZ2luLWxlZnQ9IjAiIGZpdC1tYXJnaW4tcmlnaHQ9IjAiIGZpdC1tYXJnaW4tdG9wPSIwIiBncmlkdG9sZXJhbmNlPSIxMCIgZ3VpZGV0b2xlcmFuY2U9IjEwIiBpZD0ibmFtZWR2aWV3OTExMTIiIGlua3NjYXBlOmN1cnJlbnQtbGF5ZXI9InN2ZzkxMTEwIiBpbmtzY2FwZTpjeD0iLTMxLjA3MjI0OCIgaW5rc2NhcGU6Y3k9IjE4LjI0MDY4NiIgaW5rc2NhcGU6cGFnZW9wYWNpdHk9IjAiIGlua3NjYXBlOnBhZ2VzaGFkb3c9IjIiIGlua3NjYXBlOndpbmRvdy1oZWlnaHQ9IjEwMTciIGlua3NjYXBlOndpbmRvdy1tYXhpbWl6ZWQ9IjEiIGlua3NjYXBlOndpbmRvdy13aWR0aD0iMTkyMCIgaW5rc2NhcGU6d2luZG93LXg9Ii04IiBpbmtzY2FwZTp3aW5kb3cteT0iLTgiIGlua3NjYXBlOnpvb209IjEwLjA5NTE0NiIgb2JqZWN0dG9sZXJhbmNlPSIxMCIgcGFnZWNvbG9yPSIjZmZmZmZmIiBzaG93Z3JpZD0iZmFsc2UiPiYjeGE7CTwvc29kaXBvZGk6bmFtZWR2aWV3PiYjeGE7JiN4YTsmI3hhOzxwYXRoIGlkPSJwYXRoOTEwNTgiIGlua3NjYXBlOmNvbm5lY3Rvci1jdXJ2YXR1cmU9IjAiIHN0eWxlPSJmaWxsOiNlZGJkMTEiIGQ9Ik0gNDQuODUsMzIuOTUgSCA0My44MyBWIDMwLjkgaCAxLjAyIGMgMi4xOCwwIDMuOTUsLTEuNzcgMy45NSwtMy45NSBWIDYgQyA0OC44LDMuODIgNDcuMDMsMi4wNSA0NC44NSwyLjA1IEggNiBDIDMuODIsMi4wNSAyLjA1LDMuODIgMi4wNSw2IHYgMjAuOTUgYyAwLjAxLDIuMTggMS43NywzLjk0IDMuOTUsMy45NCBoIDEuMDIgdiAyLjA1IEggNiBjIC0zLjMxLDAgLTUuOTksLTIuNjggLTYsLTUuOTkgViA2IEMgMCwyLjY5IDIuNjksMCA2LDAgaCAzOC44NSBjIDMuMzEsMCA2LDIuNjkgNiw2IHYgMjAuOTUgYyAtMC4wMSwzLjMxIC0yLjY5LDUuOTkgLTYsNS45OSB6Ii8+JiN4YTsmI3hhOyYjeGE7PHBhdGggaWQ9InBhdGg5MTA2OCIgaW5rc2NhcGU6Y29ubmVjdG9yLWN1cnZhdHVyZT0iMCIgc3R5bGU9ImZpbGw6I2VkYmQxMSIgZD0ibSAxMi4yOSwyNi4wOCBjIDEuNTQsMCAyLjc5LDEuMjQgMi43OSwyLjc4IDAsMCAwLDAuMDEgMCwwLjAxIHYgNi40MSBjIDAsMS41NCAtMS4yNCwyLjc5IC0yLjc4LDIuNzkgMCwwIC0wLjAxLDAgLTAuMDEsMCAtMS41NCwwIC0yLjc4LC0xLjI1IC0yLjc4LC0yLjc5IDAsMCAwLDAgMCwwIHYgLTYuNDEgYyAwLC0xLjU0IDEuMjQsLTIuNzkgMi43OCwtMi43OSAwLDAgMCwwIDAsMCB6Ii8+JiN4YTsmI3hhOyYjeGE7PHBhdGggaWQ9InBhdGg5MTA3OCIgaW5rc2NhcGU6Y29ubmVjdG9yLWN1cnZhdHVyZT0iMCIgc3R5bGU9ImZpbGw6I2VkYmQxMSIgZD0ibSAyMS4wNSwzOC4wNiBjIC0xLjUzLDAgLTIuNzgsLTEuMjUgLTIuNzgsLTIuNzggViAxOC44MSBjIDAsLTEuNTQgMS4yNSwtMi43OCAyLjc5LC0yLjc4IDEuNTQsMCAyLjc4LDEuMjUgMi43OCwyLjc4IHYgMTYuNDcgYyAwLDEuNTQgLTEuMjQsMi43OSAtMi43OCwyLjc5IDAsMCAtMC4wMSwwIC0wLjAxLDAgeiIvPiYjeGE7JiN4YTsmI3hhOyYjeGE7PHBhdGggaWQ9InBhdGg5MTA5MCIgaW5rc2NhcGU6Y29ubmVjdG9yLWN1cnZhdHVyZT0iMCIgc3R5bGU9ImZpbGw6I2VkYmQxMSIgZD0ibSAzOC41NSwzNy45OSBjIC0xLjU0LDAgLTIuNzgsLTEuMjUgLTIuNzgsLTIuNzkgMCwwIDAsMCAwLDAgViAxMS44NyBjIDAsLTEuNTQgMS4yNSwtMi43OCAyLjc5LC0yLjc4IDEuNTQsMCAyLjc4LDEuMjUgMi43OCwyLjc4IFYgMzUuMiBjIDAsMS41NCAtMS4yNCwyLjc5IC0yLjc4LDIuNzkgMCwwIC0wLjAxLDAgLTAuMDEsMCB6Ii8+JiN4YTsmI3hhOyYjeGE7JiN4YTs8cGF0aCBpZD0icGF0aDkxMTAyIiBpbmtzY2FwZTpjb25uZWN0b3ItY3VydmF0dXJlPSIwIiBzdHlsZT0iZmlsbDojZWRiZDExIiBkPSJtIDI5LjgsMzguMDcgYyAtMS41NCwwIC0yLjc4LC0xLjI1IC0yLjc4LC0yLjc5IDAsMCAwLDAgMCwwIFYgMjMuMDQgYyAwLC0xLjU0IDEuMjUsLTIuNzkgMi43OCwtMi43OSAxLjU0LDAgMi43OSwxLjI1IDIuNzksMi43OSB2IDAgMTIuMjQgYyAwLDEuNTQgLTEuMjQsMi43OSAtMi43OCwyLjc5IDAsMCAtMC4wMSwwIC0wLjAxLDAgeiIvPiYjeGE7JiN4YTs8L3N2Zz4=;rounded=0;fontFamily=Helvetica;fontSize=12;strokeColor=#007FFF;fillColor=#E6E6E6;opacity=80;" vertex="1" parent="1">
          <mxGeometry x="180" y="880" width="51" height="38" as="geometry" />
        </mxCell>
        <mxCell id="ZaQ2WHesoQ1tdpj846Ri-33" value="" style="shape=image;verticalLabelPosition=bottom;labelBackgroundColor=#ffffff;verticalAlign=top;aspect=fixed;imageAspect=0;image=data:image/svg+xml,PHN2ZyB4bWxuczpkYz0iaHR0cDovL3B1cmwub3JnL2RjL2VsZW1lbnRzLzEuMS8iIHhtbG5zOmNjPSJodHRwOi8vY3JlYXRpdmVjb21tb25zLm9yZy9ucyMiIHhtbG5zOnJkZj0iaHR0cDovL3d3dy53My5vcmcvMTk5OS8wMi8yMi1yZGYtc3ludGF4LW5zIyIgeG1sbnM6c3ZnPSJodHRwOi8vd3d3LnczLm9yZy8yMDAwL3N2ZyIgeG1sbnM9Imh0dHA6Ly93d3cudzMub3JnLzIwMDAvc3ZnIiB4bWxuczpzb2RpcG9kaT0iaHR0cDovL3NvZGlwb2RpLnNvdXJjZWZvcmdlLm5ldC9EVEQvc29kaXBvZGktMC5kdGQiIHhtbG5zOmlua3NjYXBlPSJodHRwOi8vd3d3Lmlua3NjYXBlLm9yZy9uYW1lc3BhY2VzL2lua3NjYXBlIiB2ZXJzaW9uPSIxLjEiIGlkPSJzdmcxMDU0MjgiIGlua3NjYXBlOnZlcnNpb249IjAuOTIuMyAoMjQwNTU0NiwgMjAxOC0wMy0xMSkiIHNvZGlwb2RpOmRvY25hbWU9InNxbF9kYXRhX3dhcmVob3VzZS5zdmciIHg9IjBweCIgeT0iMHB4IiB2aWV3Qm94PSIwIDAgNTguMDQgNTYuNDQiIHhtbDpzcGFjZT0icHJlc2VydmUiIHdpZHRoPSI1OC4wNDAwMDEiIGhlaWdodD0iNTYuNDM5OTk5Ij48bWV0YWRhdGEgaWQ9Im1ldGFkYXRhMTU3OCI+PHJkZjpSREY+PGNjOldvcmsgcmRmOmFib3V0PSIiPjxkYzpmb3JtYXQ+aW1hZ2Uvc3ZnK3htbDwvZGM6Zm9ybWF0PjxkYzp0eXBlIHJkZjpyZXNvdXJjZT0iaHR0cDovL3B1cmwub3JnL2RjL2RjbWl0eXBlL1N0aWxsSW1hZ2UiLz48ZGM6dGl0bGUvPjwvY2M6V29yaz48L3JkZjpSREY+PC9tZXRhZGF0YT48ZGVmcyBpZD0iZGVmczE1NzYiPiYjeGE7CSYjeGE7JiN4YTsJJiN4YTsmI3hhOwkmI3hhOyYjeGE7CSYjeGE7JiN4YTsJJiN4YTsmI3hhOwkmI3hhOyYjeGE7CSYjeGE7JiN4YTsJJiN4YTsmI3hhOwkmI3hhOyYjeGE7CSYjeGE7JiN4YTsJJiN4YTsmI3hhOwkmI3hhOyYjeGE7CSYjeGE7JiN4YTsJJiN4YTsmI3hhOwkmI3hhOyYjeGE7CSYjeGE7JiN4YTsJJiN4YTsmI3hhOwkmI3hhOyYjeGE7CSYjeGE7JiN4YTsJJiN4YTsmI3hhOwkmI3hhOyYjeGE7CSYjeGE7JiN4YTsJJiN4YTsmI3hhOwkmI3hhOyYjeGE7CSYjeGE7JiN4YTsJJiN4YTsmI3hhOwkmI3hhOyYjeGE7CSYjeGE7JiN4YTsJJiN4YTsmI3hhOwkmI3hhOyYjeGE7CSYjeGE7CSYjeGE7CSYjeGE7JiN4YTsJJiN4YTsJJiN4YTsJJiN4YTsmI3hhOwkmI3hhOwkmI3hhOwkmI3hhOyYjeGE7CQkmI3hhOwkmI3hhOwkJJiN4YTsJJiN4YTsJCSYjeGE7CSYjeGE7CQkmI3hhOwkmI3hhOwkJJiN4YTsJJiN4YTsJCSYjeGE7CSYjeGE7CQkmI3hhOwkmI3hhOwkJJiN4YTsJJiN4YTsJCQkmI3hhOwkJJiN4YTsJCQkmI3hhOwkJPC9kZWZzPiYjeGE7PGZpbHRlciBpZD0iZmlsdGVyXzIiPiYjeGE7CTxmZUdhdXNzaWFuQmx1ciBpZD0iZmVHYXVzc2lhbkJsdXIxMDUxNDQiIHN0ZERldmlhdGlvbj0iMiIvPiYjeGE7PC9maWx0ZXI+JiN4YTs8c29kaXBvZGk6bmFtZWR2aWV3IGJvcmRlcmNvbG9yPSIjNjY2NjY2IiBib3JkZXJvcGFjaXR5PSIxIiBmaXQtbWFyZ2luLWJvdHRvbT0iMCIgZml0LW1hcmdpbi1sZWZ0PSIwIiBmaXQtbWFyZ2luLXJpZ2h0PSIwIiBmaXQtbWFyZ2luLXRvcD0iMCIgZ3JpZHRvbGVyYW5jZT0iMTAiIGd1aWRldG9sZXJhbmNlPSIxMCIgaWQ9Im5hbWVkdmlldzEwNTQzMCIgaW5rc2NhcGU6Y3VycmVudC1sYXllcj0ic3ZnMTA1NDI4IiBpbmtzY2FwZTpjeD0iMTkuOTc2MTQ1IiBpbmtzY2FwZTpjeT0iMzQuODU0NDAyIiBpbmtzY2FwZTpwYWdlb3BhY2l0eT0iMCIgaW5rc2NhcGU6cGFnZXNoYWRvdz0iMiIgaW5rc2NhcGU6d2luZG93LWhlaWdodD0iMTAxNyIgaW5rc2NhcGU6d2luZG93LW1heGltaXplZD0iMSIgaW5rc2NhcGU6d2luZG93LXdpZHRoPSIxOTIwIiBpbmtzY2FwZTp3aW5kb3cteD0iLTgiIGlua3NjYXBlOndpbmRvdy15PSItOCIgaW5rc2NhcGU6em9vbT0iNy4zMDU0NzM3IiBvYmplY3R0b2xlcmFuY2U9IjEwIiBwYWdlY29sb3I9IiNmZmZmZmYiIHNob3dncmlkPSJmYWxzZSI+JiN4YTsJPC9zb2RpcG9kaTpuYW1lZHZpZXc+JiN4YTsmI3hhOzxyZWN0IGlkPSJyZWN0MTA1MTU5IiB4PSIxMy45Nzk5OTYiIHk9IjE3LjcwMDAwMSIgc3R5bGU9ImZpbGw6IzdmYmI0MiIgd2lkdGg9IjUuNTU5OTk5OSIgaGVpZ2h0PSI1LjU1OTk5OTkiLz4mI3hhOyYjeGE7PHJlY3QgaWQ9InJlY3QxMDUxNjciIHg9IjkuNTY5OTk5NyIgeT0iMzIuNzciIHN0eWxlPSJmaWxsOiM3ZmJiNDIiIHdpZHRoPSI1LjU1OTk5OTkiIGhlaWdodD0iNS41NTk5OTk5Ii8+JiN4YTsmI3hhOzxyZWN0IGlkPSJyZWN0MTA1MTc1IiB4PSIxNy40Nzk5OTYiIHk9IjMyLjc3IiBzdHlsZT0iZmlsbDojN2ZiYjQyIiB3aWR0aD0iNS41NTk5OTk5IiBoZWlnaHQ9IjUuNTU5OTk5OSIvPiYjeGE7JiN4YTs8cmVjdCBpZD0icmVjdDEwNTE4MyIgeD0iMjUuMzA5OTk4IiB5PSIzMi43NyIgc3R5bGU9ImZpbGw6IzdmYmI0MiIgd2lkdGg9IjUuNTU5OTk5OSIgaGVpZ2h0PSI1LjU1OTk5OTkiLz4mI3hhOyYjeGE7PHJlY3QgaWQ9InJlY3QxMDUxOTEiIHg9IjkuNTY5OTk5NyIgeT0iMjUuMjMiIHN0eWxlPSJmaWxsOiM3ZmJiNDIiIHdpZHRoPSI1LjU1OTk5OTkiIGhlaWdodD0iNS41NTk5OTk5Ii8+JiN4YTsmI3hhOzxyZWN0IGlkPSJyZWN0MTA1MTk5IiB4PSIxNy40Nzk5OTYiIHk9IjI1LjIzIiBzdHlsZT0iZmlsbDojN2ZiYjQyIiB3aWR0aD0iNS41NTk5OTk5IiBoZWlnaHQ9IjUuNTU5OTk5OSIvPiYjeGE7JiN4YTs8cGF0aCBpZD0icGF0aDEwNTIwNyIgaW5rc2NhcGU6Y29ubmVjdG9yLWN1cnZhdHVyZT0iMCIgc3R5bGU9ImZpbGw6IzM5OTljNiIgZD0iTSAyMS44OCwwIDAsMTEuNjMgdiAzLjM5IEggNC40NyBWIDM4LjUxIEggOC4yIFYgMTUuMDIgaCAyNy4yMSB2IDIxLjk5IGggNC4xMSBWIDE1LjAyIGggNC4wOSB2IC0zLjM5IHoiLz4mI3hhOyYjeGE7PHBhdGggaWQ9InBhdGgxMDUyMTUiIGlua3NjYXBlOmNvbm5lY3Rvci1jdXJ2YXR1cmU9IjAiIHN0eWxlPSJmaWxsOiNiOGQ0MzM7ZmlsbC1vcGFjaXR5OjAuOCIgZD0iTSAxOS41NCwyMy4yNiBIIDE4LjkgViAxOC40MiBIIDEzLjk4IFYgMTcuNyBoIDUuNTYgeiIvPiYjeGE7JiN4YTs8cGF0aCBpZD0icGF0aDEwNTIyMyIgaW5rc2NhcGU6Y29ubmVjdG9yLWN1cnZhdHVyZT0iMCIgc3R5bGU9ImZpbGw6I2I4ZDQzMztmaWxsLW9wYWNpdHk6MC41IiBkPSJtIDEzLjk4LDE3LjcgaCAwLjY0IHYgNC44NiBoIDQuOTIgdiAwLjcgaCAtNS41NiB6Ii8+JiN4YTsmI3hhOzxwYXRoIGlkPSJwYXRoMTA1MjMxIiBpbmtzY2FwZTpjb25uZWN0b3ItY3VydmF0dXJlPSIwIiBzdHlsZT0iZmlsbDojYjhkNDMzO2ZpbGwtb3BhY2l0eTowLjgiIGQ9Ik0gMTUuMTMsMzAuNzkgSCAxNC41IFYgMjUuOTUgSCA5LjU3IHYgLTAuNzIgaCA1LjU2IHoiLz4mI3hhOyYjeGE7PHBhdGggaWQ9InBhdGgxMDUyMzkiIGlua3NjYXBlOmNvbm5lY3Rvci1jdXJ2YXR1cmU9IjAiIHN0eWxlPSJmaWxsOiNiOGQ0MzM7ZmlsbC1vcGFjaXR5OjAuNSIgZD0ibSA5LjU3LDI1LjIzIGggMC42NCB2IDQuODQgaCA0LjkyIHYgMC43MiBIIDkuNTcgWiIvPiYjeGE7JiN4YTs8cGF0aCBpZD0icGF0aDEwNTI0NyIgaW5rc2NhcGU6Y29ubmVjdG9yLWN1cnZhdHVyZT0iMCIgc3R5bGU9ImZpbGw6I2I4ZDQzMztmaWxsLW9wYWNpdHk6MC44IiBkPSJNIDIzLjA3LDMwLjc5IEggMjIuNCB2IC00Ljg0IGggLTQuOTIgdiAtMC43MiBoIDUuNTkgeiIvPiYjeGE7JiN4YTs8cGF0aCBpZD0icGF0aDEwNTI1NSIgaW5rc2NhcGU6Y29ubmVjdG9yLWN1cnZhdHVyZT0iMCIgc3R5bGU9ImZpbGw6I2I4ZDQzMztmaWxsLW9wYWNpdHk6MC41IiBkPSJtIDE3LjQ4LDI1LjIzIGggMC42NyB2IDQuODQgaCA0LjkyIHYgMC43MiBoIC01LjU5IHoiLz4mI3hhOyYjeGE7PHBhdGggaWQ9InBhdGgxMDUyNjMiIGlua3NjYXBlOmNvbm5lY3Rvci1jdXJ2YXR1cmU9IjAiIHN0eWxlPSJmaWxsOiNiOGQ0MzM7ZmlsbC1vcGFjaXR5OjAuOCIgZD0iTSAxNS4xMywzOC4zMiBIIDE0LjUgViAzMy40NiBIIDkuNTcgdiAtMC43IGggNS41NiB6Ii8+JiN4YTsmI3hhOzxwYXRoIGlkPSJwYXRoMTA1MjcxIiBpbmtzY2FwZTpjb25uZWN0b3ItY3VydmF0dXJlPSIwIiBzdHlsZT0iZmlsbDojYjhkNDMzO2ZpbGwtb3BhY2l0eTowLjUiIGQ9Im0gOS41NywzMi43NiBoIDAuNjQgdiA0Ljg0IGggNC45MiB2IDAuNzIgSCA5LjU3IFoiLz4mI3hhOyYjeGE7PHBhdGggaWQ9InBhdGgxMDUyNzkiIGlua3NjYXBlOmNvbm5lY3Rvci1jdXJ2YXR1cmU9IjAiIHN0eWxlPSJmaWxsOiNiOGQ0MzM7ZmlsbC1vcGFjaXR5OjAuOCIgZD0iTSAyMy4wNywzOC4zMiBIIDIyLjQgdiAtNC44NiBoIC00LjkyIHYgLTAuNyBoIDUuNTkgeiIvPiYjeGE7JiN4YTs8cGF0aCBpZD0icGF0aDEwNTI4NyIgaW5rc2NhcGU6Y29ubmVjdG9yLWN1cnZhdHVyZT0iMCIgc3R5bGU9ImZpbGw6I2I4ZDQzMztmaWxsLW9wYWNpdHk6MC41IiBkPSJtIDE3LjQ4LDMyLjc2IGggMC42NyB2IDQuODQgaCA0LjkyIHYgMC43MiBoIC01LjU5IHoiLz4mI3hhOyYjeGE7PHBhdGggaWQ9InBhdGgxMDUyOTUiIGlua3NjYXBlOmNvbm5lY3Rvci1jdXJ2YXR1cmU9IjAiIHN0eWxlPSJmaWxsOiNiOGQ0MzM7ZmlsbC1vcGFjaXR5OjAuOCIgZD0ibSAzMC44NywzOC4zMiBoIC0wLjY0IHYgLTQuODYgaCAtNC45MiB2IC0wLjcgaCA1LjU2IHoiLz4mI3hhOyYjeGE7PHBhdGggaWQ9InBhdGgxMDUzMDMiIGlua3NjYXBlOmNvbm5lY3Rvci1jdXJ2YXR1cmU9IjAiIHN0eWxlPSJmaWxsOiNiOGQ0MzM7ZmlsbC1vcGFjaXR5OjAuNSIgZD0ibSAyNS4zMSwzMi43NiBoIDAuNjQgdiA0Ljg0IGggNC45MiB2IDAuNzIgaCAtNS41NiB6Ii8+JiN4YTsmI3hhOzxwYXRoIGlkPSJwYXRoMTA1MzExIiBpbmtzY2FwZTpjb25uZWN0b3ItY3VydmF0dXJlPSIwIiBzdHlsZT0iZmlsbDojYjhkNDMzO2ZpbGwtb3BhY2l0eTowLjgiIGQ9Im0gMTQuOCwyMy4yNiBoIC0wLjgyIHYgLTAuNjQgbCA0LjgxLC00LjkyIGggMC43NSB2IDAuNTYgeiIvPiYjeGE7JiN4YTs8cGF0aCBpZD0icGF0aDEwNTMxOSIgaW5rc2NhcGU6Y29ubmVjdG9yLWN1cnZhdHVyZT0iMCIgc3R5bGU9ImZpbGw6I2I4ZDQzMztmaWxsLW9wYWNpdHk6MC44IiBkPSJtIDE4LjMsMzAuNzkgaCAtMC44MiB2IC0wLjY0IGwgNC44NiwtNC45MiBoIDAuNzMgdiAwLjU2IHoiLz4mI3hhOyYjeGE7PHBhdGggaWQ9InBhdGgxMDUzMjciIGlua3NjYXBlOmNvbm5lY3Rvci1jdXJ2YXR1cmU9IjAiIHN0eWxlPSJmaWxsOiNiOGQ0MzM7ZmlsbC1vcGFjaXR5OjAuOCIgZD0iTSAxMC4zOSwzMC43OSBIIDkuNTcgdiAtMC42NCBsIDQuODEsLTQuOTIgaCAwLjc1IHYgMC41NiB6Ii8+JiN4YTsmI3hhOzxwYXRoIGlkPSJwYXRoMTA1MzM1IiBpbmtzY2FwZTpjb25uZWN0b3ItY3VydmF0dXJlPSIwIiBzdHlsZT0iZmlsbDojYjhkNDMzO2ZpbGwtb3BhY2l0eTowLjgiIGQ9Ik0gMTAuMzksMzguMzIgSCA5LjU3IHYgLTAuNjQgbCA0LjgxLC00LjkyIGggMC43NSB2IDAuNTYgeiIvPiYjeGE7JiN4YTs8cGF0aCBpZD0icGF0aDEwNTM0MyIgaW5rc2NhcGU6Y29ubmVjdG9yLWN1cnZhdHVyZT0iMCIgc3R5bGU9ImZpbGw6I2I4ZDQzMztmaWxsLW9wYWNpdHk6MC44IiBkPSJtIDE4LjMsMzguMzIgaCAtMC44MiB2IC0wLjY0IGwgNC44NiwtNC45MiBoIDAuNzMgdiAwLjU2IHoiLz4mI3hhOyYjeGE7PHBhdGggaWQ9InBhdGgxMDUzNTEiIGlua3NjYXBlOmNvbm5lY3Rvci1jdXJ2YXR1cmU9IjAiIHN0eWxlPSJmaWxsOiNiOGQ0MzM7ZmlsbC1vcGFjaXR5OjAuOCIgZD0ibSAyNi4xMywzOC4zMiBoIC0wLjgyIHYgLTAuNjQgbCA0LjgxLC00LjkyIGggMC43NSB2IDAuNTYgeiIvPiYjeGE7JiN4YTs8cGF0aCBpZD0icGF0aDEwNTM2MSIgaW5rc2NhcGU6Y29ubmVjdG9yLWN1cnZhdHVyZT0iMCIgc3R5bGU9ImZpbGw6IzM5OTljNiIgZD0ibSAzMi45MiwyNy42OSB2IDI0LjE4IGMgMCwyLjQ5IDUuNjMsNC41NSAxMi41Niw0LjU1IFYgMjcuNjkgWiIvPiYjeGE7JiN4YTs8cGF0aCBpZD0icGF0aDEwNTM2OSIgaW5rc2NhcGU6Y29ubmVjdG9yLWN1cnZhdHVyZT0iMCIgc3R5bGU9ImZpbGw6IzVhYjRkOSIgZD0ibSA0NS4yOSw1Ni40NCBoIDAuMTkgYyA2Ljk0LDAgMTIuNTYsLTIuMDYgMTIuNTYsLTQuNTUgViAyNy42OSBIIDQ1LjI5IFoiLz4mI3hhOyYjeGE7PHBhdGggaWQ9InBhdGgxMDUzNzciIGlua3NjYXBlOmNvbm5lY3Rvci1jdXJ2YXR1cmU9IjAiIHN0eWxlPSJmaWxsOiNmZmZmZmYiIGQ9Im0gNTguMDQsMjcuNjkgYyAwLDIuNDkgLTUuNjMsNC41NSAtMTIuNTYsNC41NSAtNi45MywwIC0xMi41NiwtMi4wNCAtMTIuNTYsLTQuNTUgMCwtMi41IDUuNjMsLTQuNTQgMTIuNTYsLTQuNTQgNi45MywwIDEyLjU2LDIuMDEgMTIuNTYsNC41NCB6Ii8+JiN4YTsmI3hhOzxwYXRoIGlkPSJwYXRoMTA1Mzg1IiBpbmtzY2FwZTpjb25uZWN0b3ItY3VydmF0dXJlPSIwIiBzdHlsZT0iZmlsbDojN2ZiYjQyIiBkPSJtIDU1LjQ3LDI3LjQzIGMgMCwxLjYzIC00LjQ2LDMuMDIgLTkuOTksMy4wMiAtNS41MiwwIC05Ljk5LC0xLjM0IC05Ljk5LC0zLjAyIDAsLTEuNjQgNC40NywtMy4wMiA5Ljk5LC0zLjAyIDUuNTMsMCA5Ljk5LDEuMzUgOS45OSwzLjAyIHoiLz4mI3hhOyYjeGE7PHBhdGggaWQ9InBhdGgxMDUzOTMiIGlua3NjYXBlOmNvbm5lY3Rvci1jdXJ2YXR1cmU9IjAiIHN0eWxlPSJmaWxsOiNiOGQ0MzMiIGQ9Im0gNTMuMzksMjkuMjYgYyAxLjMxLC0wLjUzIDIuMDgsLTEuMTUgMi4wOCwtMS44MiAwLC0xLjY0IC00LjQ2LC0zLjAyIC05Ljk5LC0zLjAyIC01LjUyLDAgLTkuOTksMS4zNCAtOS45OSwzLjAyIDAsMC43MSAwLjc4LDEuMzQgMi4wOSwxLjgyIDEuODIsLTAuNzIgNC43LC0xLjE1IDcuOSwtMS4xNSAzLjIxLC0wLjA1IDYuMDcsMC40MyA3LjkxLDEuMTUgeiIvPiYjeGE7PHBhdGggZD0ibSAzNi4wNDMyMiw0NS4wMzQ5MyB2IC0xLjcyIGMgMC4zLDAuMjcgMC42NCwwLjQ1IDEuMDIsMC41OSAwLjM3LDAuMTEgMC43NCwwLjE5IDEuMDcsMC4xOSAwLjIyLDAgMC40LC0wLjAzIDAuNTYsLTAuMDggMC4xNSwtMC4wMyAwLjMsLTAuMDcgMC40LC0wLjE1IDAuMTEsLTAuMDggMC4xOSwtMC4xNiAwLjIyLC0wLjI3IDAuMDMsLTAuMTEgMC4wOCwtMC4xOCAwLjA4LC0wLjI5IDAsLTAuMTYgLTAuMDMsLTAuMyAtMC4xMSwtMC40MSAtMC4wOCwtMC4xMSAtMC4xOSwtMC4yMiAtMC4zNCwtMC4zNCAtMC4xNiwtMC4xMSAtMC4zNCwtMC4xOSAtMC41MywtMC4zIC0wLjE5LC0wLjA3IC0wLjQxLC0wLjE4IC0wLjY3LC0wLjI5IC0wLjU5LC0wLjI3IC0xLjA0LC0wLjU2IC0xLjM0LC0wLjg5IC0wLjI5LC0wLjM3IC0wLjQ1LC0wLjc4IC0wLjQ1LC0xLjMxIDAsLTAuNCAwLjA4LC0wLjc0IDAuMjIsLTEuMDEgMC4xNSwtMC4yOSAwLjM3LC0wLjUzIDAuNjQsLTAuNzEgMC4yNiwtMC4xOSAwLjU5LC0wLjM1IDAuOTYsLTAuNDEgMC4zNywtMC4wOCAwLjc1LC0wLjExIDEuMTUsLTAuMTEgMC40MSwwIDAuNzUsMC4wMyAxLjA1LDAuMDggMC4yOSwwLjAzIDAuNTksMC4xMSAwLjg1LDAuMjIgdiAxLjYgYyAtMC4xMSwtMC4wOCAtMC4yNiwtMC4xNSAtMC40LC0wLjIyIC0wLjE0LC0wLjA2IC0wLjMsLTAuMSAtMC40NSwtMC4xNSAtMC4xNiwtMC4wMyAtMC4zNSwtMC4wOCAtMC40OSwtMC4xMSAtMC4xNSwtMC4wMyAtMC4yOSwtMC4wMyAtMC40NSwtMC4wMyAtMC4xOSwwIC0wLjM3LDAgLTAuNTMsMC4wMyAtMC4xNSwwLjAzIC0wLjI5LDAuMDggLTAuNCwwLjE2IC0wLjExLDAuMDcgLTAuMTksMC4xNSAtMC4yNywwLjIxIC0wLjA3LDAuMTEgLTAuMDcsMC4xOSAtMC4wNywwLjMgMCwwLjExIDAuMDMsMC4yMiAwLjEsMC4zNCAwLjA4LDAuMTEgMC4xNiwwLjE5IDAuMywwLjMgMC4xMSwwLjA3IDAuMjYsMC4xOCAwLjQ1LDAuMjYgMC4xOSwwLjA4IDAuMzgsMC4xOSAwLjU5LDAuMjcgMC4zLDAuMSAwLjU5LDAuMjYgMC44MywwLjQgMC4yNiwwLjE2IDAuNDUsMC4zIDAuNjQsMC40OCAwLjE4LDAuMTkgMC4yOSwwLjM4IDAuNCwwLjY0IDAuMDgsMC4yMiAwLjE2LDAuNDggMC4xNiwwLjgzIDAsMC40IC0wLjA4LDAuNzcgLTAuMjIsMS4wNyAtMC4xNiwwLjMgLTAuMzgsMC41MyAtMC42NywwLjcyIC0wLjI3LDAuMTggLTAuNTksMC4yOSAtMC45NywwLjM3IC0wLjM3LDAuMDggLTAuNzQsMC4xMSAtMS4xNSwwLjExIC0wLjQsMCAtMC44MiwtMC4wMyAtMS4yLC0wLjExIC0wLjM5LDAgLTAuNzEsLTAuMTIgLTAuOTgsLTAuMjYgeiIgc3R5bGU9ImZpbGw6I2ZmZmZmZiIgaW5rc2NhcGU6Y29ubmVjdG9yLWN1cnZhdHVyZT0iMCIgaWQ9InBhdGgxMDU0MDMiLz4mI3hhOzxwYXRoIGQ9Im0gNDUuNjk2NTYsNDUuNDc2NiBjIC0xLjA3LDAgLTEuOTgsLTAuMzcgLTIuNjgsLTEuMDcgLTAuNjcsLTAuNzIgLTEuMDQsLTEuNjMgLTEuMDQsLTIuOCAwLC0xLjIgMC4zNCwtMi4xNiAxLjA0LC0yLjkxIDAuNzIsLTAuNzUgMS42MSwtMS4xMiAyLjc2LC0xLjEyIDEuMDcsMCAxLjk3LDAuMzcgMi42NCwxLjA3IDAuNjcsMC43IDEuMDIsMS42NCAxLjAyLDIuODMgMCwxLjIgLTAuMzUsMi4xNyAtMS4wNSwyLjkyIC0wLjAzLDAuMDMgLTAuMDMsMC4wMyAtMC4wOCwwLjA3IC0wLjAzLDAuMDMgLTAuMDMsMC4wMyAtMC4wNywwLjA4IGwgMS45NCwxLjg3IGggLTIuNDMgbCAtMS4wMSwtMS4wNCBjIC0wLjI1LDAuMDYgLTAuNjIsMC4xIC0xLjA0LDAuMSB6IG0gMC4wOCwtNi40MSBjIC0wLjU5LDAgLTEuMDgsMC4yMiAtMS40NSwwLjY3IC0wLjM3LDAuNDUgLTAuNTMsMS4wNCAtMC41MywxLjc5IDAsMC43NSAwLjE5LDEuMzQgMC41MywxLjc5IDAuMzcsMC40NSAwLjgzLDAuNjcgMS4zOSwwLjY3IDAuNTksMCAxLjA0LC0wLjIyIDEuNDEsLTAuNjQgMC4zNCwtMC40NSAwLjUzLC0xLjA0IDAuNTMsLTEuNzkgMCwtMC43OCAtMC4xOSwtMS40MSAtMC41MywtMS44NyAtMC4zMSwtMC40IC0wLjc2LC0wLjYyIC0xLjM1LC0wLjYyIHoiIHN0eWxlPSJmaWxsOiNmZmZmZmYiIGlua3NjYXBlOmNvbm5lY3Rvci1jdXJ2YXR1cmU9IjAiIGlkPSJwYXRoMTA1NDExIi8+JiN4YTs8cGF0aCBkPSJtIDU1LjI3OTIyLDQ1LjMyNzExIGggLTQuNTQgdiAtNy42NCBoIDEuNzEgdiA2LjIyIGggMi44MyB6IiBzdHlsZT0iZmlsbDojZmZmZmZmIiBpbmtzY2FwZTpjb25uZWN0b3ItY3VydmF0dXJlPSIwIiBpZD0icGF0aDEwNTQxOSIvPiYjeGE7PC9zdmc+;rounded=0;fontFamily=Helvetica;fontSize=12;strokeColor=#007FFF;fillColor=#E6E6E6;opacity=80;" vertex="1" parent="1">
          <mxGeometry x="132" y="806" width="58" height="56" as="geometry" />
        </mxCell>
        <mxCell id="ZaQ2WHesoQ1tdpj846Ri-34" value="" style="aspect=fixed;html=1;points=[];align=center;image;fontSize=12;image=img/lib/azure2/databases/Data_Factory.svg;rounded=0;fontFamily=Helvetica;strokeColor=#007FFF;fillColor=#E6E6E6;opacity=80;" vertex="1" parent="1">
          <mxGeometry x="330" y="876.5" width="45" height="45" as="geometry" />
        </mxCell>
        <mxCell id="ZaQ2WHesoQ1tdpj846Ri-35" value="" style="whiteSpace=wrap;html=1;rounded=0;fontSize=14;opacity=80;dashed=1;strokeColor=#007FFF;fillColor=#E6E6E6;" vertex="1" parent="1">
          <mxGeometry x="306" y="980" width="90" height="180" as="geometry" />
        </mxCell>
        <mxCell id="ZaQ2WHesoQ1tdpj846Ri-36" value="" style="whiteSpace=wrap;html=1;rounded=0;fontSize=14;fillColor=#ffffff;opacity=80;dashed=1;strokeColor=#007FFF;" vertex="1" parent="1">
          <mxGeometry x="116" y="980" width="190" height="180" as="geometry" />
        </mxCell>
        <mxCell id="ZaQ2WHesoQ1tdpj846Ri-37" value="IaaS" style="text;html=1;resizable=0;autosize=1;align=center;verticalAlign=middle;points=[];fillColor=#dae8fc;rounded=0;fontSize=14;opacity=80;fontFamily=Lucida Console;" vertex="1" parent="1">
          <mxGeometry x="171" y="990" width="50" height="20" as="geometry" />
        </mxCell>
        <mxCell id="ZaQ2WHesoQ1tdpj846Ri-38" value="Integration" style="text;html=1;resizable=0;autosize=1;align=center;verticalAlign=middle;points=[];fillColor=none;strokeColor=none;rounded=0;fontFamily=Helvetica;fontSize=12;opacity=80;" vertex="1" parent="1">
          <mxGeometry x="313.25" y="990" width="70" height="20" as="geometry" />
        </mxCell>
        <mxCell id="ZaQ2WHesoQ1tdpj846Ri-41" value="" style="shape=image;verticalLabelPosition=bottom;labelBackgroundColor=#ffffff;verticalAlign=top;aspect=fixed;imageAspect=0;image=data:image/svg+xml,PHN2ZyB4bWxuczpjYz0iaHR0cDovL2NyZWF0aXZlY29tbW9ucy5vcmcvbnMjIiB4bWxuczpkYz0iaHR0cDovL3B1cmwub3JnL2RjL2VsZW1lbnRzLzEuMS8iIHhtbG5zOmlua3NjYXBlPSJodHRwOi8vd3d3Lmlua3NjYXBlLm9yZy9uYW1lc3BhY2VzL2lua3NjYXBlIiB4bWxuczpyZGY9Imh0dHA6Ly93d3cudzMub3JnLzE5OTkvMDIvMjItcmRmLXN5bnRheC1ucyMiIHhtbG5zOnNvZGlwb2RpPSJodHRwOi8vc29kaXBvZGkuc291cmNlZm9yZ2UubmV0L0RURC9zb2RpcG9kaS0wLmR0ZCIgeG1sbnM6c3ZnPSJodHRwOi8vd3d3LnczLm9yZy8yMDAwL3N2ZyIgeG1sbnM9Imh0dHA6Ly93d3cudzMub3JnLzIwMDAvc3ZnIiB4bWxuczp4bGluaz0iaHR0cDovL3d3dy53My5vcmcvMTk5OS94bGluayIgdmVyc2lvbj0iMS4xIiBpZD0ic3ZnMjU0NjQyIiBpbmtzY2FwZTp2ZXJzaW9uPSIwLjkyLjMgKDI0MDU1NDYsIDIwMTgtMDMtMTEpIiBzb2RpcG9kaTpkb2NuYW1lPSJzYXBfc180X2hhbmEuc3ZnIiB4PSIwcHgiIHk9IjBweCIgdmlld0JveD0iMCAwIDE0MS40NSAyNS4xNSIgc3R5bGU9ImVuYWJsZS1iYWNrZ3JvdW5kOm5ldyAwIDAgMTQxLjQ1IDI1LjE1OyIgeG1sOnNwYWNlPSJwcmVzZXJ2ZSI+JiN4YTs8c29kaXBvZGk6bmFtZWR2aWV3IGJvcmRlcmNvbG9yPSIjNjY2NjY2IiBib3JkZXJvcGFjaXR5PSIxIiBmaXQtbWFyZ2luLWJvdHRvbT0iMCIgZml0LW1hcmdpbi1sZWZ0PSIwIiBmaXQtbWFyZ2luLXJpZ2h0PSIwIiBmaXQtbWFyZ2luLXRvcD0iMCIgZ3JpZHRvbGVyYW5jZT0iMTAiIGd1aWRldG9sZXJhbmNlPSIxMCIgaWQ9Im5hbWVkdmlldzI1NDY0NCIgaW5rc2NhcGU6Y3VycmVudC1sYXllcj0ic3ZnMjU0NjQyIiBpbmtzY2FwZTpjeD0iOTQuMjk5MDE2IiBpbmtzY2FwZTpjeT0iMTYuNzY4ODQzIiBpbmtzY2FwZTpwYWdlb3BhY2l0eT0iMCIgaW5rc2NhcGU6cGFnZXNoYWRvdz0iMiIgaW5rc2NhcGU6d2luZG93LWhlaWdodD0iMTAxNyIgaW5rc2NhcGU6d2luZG93LW1heGltaXplZD0iMSIgaW5rc2NhcGU6d2luZG93LXdpZHRoPSIxOTIwIiBpbmtzY2FwZTp3aW5kb3cteD0iLTgiIGlua3NjYXBlOndpbmRvdy15PSItOCIgaW5rc2NhcGU6em9vbT0iOS4wNTY5OTg2IiBvYmplY3R0b2xlcmFuY2U9IjEwIiBwYWdlY29sb3I9IiNmZmZmZmYiIHNob3dncmlkPSJmYWxzZSI+JiN4YTsJPC9zb2RpcG9kaTpuYW1lZHZpZXc+JiN4YTs8ZyBpZD0iZzI1NDY0MCIgdHJhbnNmb3JtPSJ0cmFuc2xhdGUoLTMuMDU4NDcsLTMuMDYxNTc0NSkiPiYjeGE7CTx0aXRsZSBpZD0idGl0bGUyNTQ2MTQiPlBhZ2UtMTwvdGl0bGU+JiN4YTsJPGcgaWQ9Imdyb3VwNTgwNS0xIiB0cmFuc2Zvcm09InRyYW5zbGF0ZSgzLjA1ODQ3LC0zLjA1ODQ3KSI+JiN4YTsJCTx0aXRsZSBpZD0idGl0bGUyNTQ2MTYiPlNBUCBTLzQgSEFOQTwvdGl0bGU+JiN4YTsJCTxnIGlkPSJzaGFwZTU4MDYtMiIgdHJhbnNmb3JtPSJ0cmFuc2xhdGUoNDYuMjc4MiwtNC4zODA1MykiPiYjeGE7CQkJPHRpdGxlIGlkPSJ0aXRsZTI1NDYxOCI+U2hlZXQuNTgwNjwvdGl0bGU+JiN4YTsJCQk8cGF0aCBpZD0icGF0aDI1NDYyMCIgaW5rc2NhcGU6Y29ubmVjdG9yLWN1cnZhdHVyZT0iMCIgc3R5bGU9ImZpbGw6IzAwOEZEMzsiIGQ9Ik0zOS4zNSwzMC43OFYxNS4yM2gzLjR2Ni4wMWg2LjA3VjE1LjNoMy4zOSAgICAgdjE1LjU1aC0zLjM5VjI0LjJoLTYuMDd2Ni42NWgtMy40VjMwLjc4eiBNNTIuNzEsMzAuNzhsNS41MS0xNS41NWgzLjI1bDUuNTEsMTUuNTVoLTMuNDZsLTEuMTMtMy40N2gtNS4zbC0xLjIsMy40N0g1Mi43MXogICAgICBNNTcuODcsMjQuODRoMy42N2wtMS43Ny01LjNINTkuN0w1Ny44NywyNC44NHogTTY3LjMzLDMwLjc4VjE1LjIzaDMuMzlsNi41LDkuODloMC4wOHYtOS44OWgzLjF2MTUuNTVoLTMuMWwtNi43OS05Ljk3aC0wLjA3ICAgICB2OS45N0w2Ny4zMywzMC43OHogTTgwLjksMzAuNzhsNS41MS0xNS41NWgzLjI1bDUuNTEsMTUuNTVoLTMuNDZsLTEuMTMtMy40N2gtNS4zbC0xLjIsMy40N0g4MC45eiBNODYuMDYsMjQuODRoMy42N2wtMS43Ny01LjMgICAgIGgtMC4wN0w4Ni4wNiwyNC44NHogTTAsMjcuMzhsMi42MS0xLjU1YzAuODUsMS43LDIuNDEsMi42OCw0LjI0LDIuNjhjMS41NiwwLDIuNjktMC41NiwyLjY5LTEuNzZzLTEuMTMtMS43LTMuMTgtMi4yNiAgICAgQzMuNiwyMy43MSwwLjcxLDIzLDAuNzEsMTkuNzVjMC0yLjg5LDIuMjYtNC42Niw1LjY1LTQuNjZjMy4xOCwwLDUuMDksMS41NSw2LjIyLDMuMThsLTIuNDEsMS44NCAgICAgYy0wLjg0LTEuMzUtMi4zMy0yLjE5LTMuODEtMi4xOVM0LjEsMTguNTUsNC4xLDE5LjQ3YzAsMS4yNywxLjEzLDEuNywzLjE4LDIuMjZjMi43NSwwLjcxLDUuNjUsMS42Myw1LjY1LDQuODEgICAgIGMwLDIuNDctMS45MSw0LjczLTYuMjIsNC43M0MzLjMyLDMxLjIsMS4yLDI5LjU3LDAsMjcuMzh6IE0xMi43OSwzMC45Mmw4LjEyLTE1LjU1aDMuNDdsLTguMTMsMTUuNTVIMTIuNzl6IE0yOS4xMSwzMC45MnYtMy4wNCAgICAgaC03LjU2di0yLjQ3bDcuMDYtMTAuMDRoMy43NXY5LjgyaDIuNjF2Mi42OWgtMi42MXYzLjA0SDI5LjExeiBNMjUuMDgsMjUuMTloNC4wM3YtNS43MmgtMC4wN0wyNS4wOCwyNS4xOXoiLz4mI3hhOwkJPC9nPiYjeGE7CQk8ZyBpZD0iZ3JvdXA1ODA3LTQiPiYjeGE7CQkJPHRpdGxlIGlkPSJ0aXRsZTI1NDYyMyI+U2hlZXQuNTgwNzwvdGl0bGU+JiN4YTsJCQk8ZyBpZD0iZ3JvdXA1ODA4LTUiPiYjeGE7CQkJCTx0aXRsZSBpZD0idGl0bGUyNTQ2MjUiPlNoZWV0LjU4MDg8L3RpdGxlPiYjeGE7CQkJCTxnIGlkPSJzaGFwZTU4MDktNiI+JiN4YTsJCQkJCTx0aXRsZSBpZD0idGl0bGUyNTQ2MjciPlNoZWV0LjU4MDk8L3RpdGxlPiYjeGE7CQkJCQkmI3hhOwkJCQkJCTxsaW5lYXJHcmFkaWVudCBpZD0icGF0aDI1NDYyOV8xXyIgZ3JhZGllbnRVbml0cz0idXNlclNwYWNlT25Vc2UiIHgxPSItNjkuNDY2NiIgeTE9Ii0xNTMuNzUiIHgyPSItMzMuNjk4MiIgeTI9Ii0xNTMuNzUiIGdyYWRpZW50VHJhbnNmb3JtPSJtYXRyaXgoMS40MjIyIDAgMCAtMC43MDMxIDk4Ljc5NTcgLTg5LjQxMTgpIj4mI3hhOwkJCQkJCTxzdG9wIG9mZnNldD0iMCIgc3R5bGU9InN0b3AtY29sb3I6IzAwQjhGMSIvPiYjeGE7CQkJCQkJPHN0b3Agb2Zmc2V0PSIwLjAxNSIgc3R5bGU9InN0b3AtY29sb3I6IzAxQjZGMCIvPiYjeGE7CQkJCQkJPHN0b3Agb2Zmc2V0PSIwLjMxIiBzdHlsZT0ic3RvcC1jb2xvcjojMEQ5MEQ5Ii8+JiN4YTsJCQkJCQk8c3RvcCBvZmZzZXQ9IjAuNTgiIHN0eWxlPSJzdG9wLWNvbG9yOiMxNzc1QzgiLz4mI3hhOwkJCQkJCTxzdG9wIG9mZnNldD0iMC44MTUiIHN0eWxlPSJzdG9wLWNvbG9yOiMxQzY1QkYiLz4mI3hhOwkJCQkJCTxzdG9wIG9mZnNldD0iMSIgc3R5bGU9InN0b3AtY29sb3I6IzFFNUZCQiIvPiYjeGE7CQkJCQk8L2xpbmVhckdyYWRpZW50PiYjeGE7CQkJCQk8cGF0aCBpZD0icGF0aDI1NDYyOSIgaW5rc2NhcGU6Y29ubmVjdG9yLWN1cnZhdHVyZT0iMCIgc3R5bGU9ImZpbGw6dXJsKCNwYXRoMjU0NjI5XzFfKTsiIGQ9Ik0wLDMxLjI3aDI1LjcyTDUwLjg3LDYuMTJIMCAgICAgICBWMzEuMjd6Ii8+JiN4YTsJCQkJPC9nPiYjeGE7CQkJPC9nPiYjeGE7CQkJPGcgaWQ9InNoYXBlNTgxMC0xMCIgdHJhbnNmb3JtPSJ0cmFuc2xhdGUoMC43MDY1MzgsLTQuNTkyNDkpIj4mI3hhOwkJCQk8dGl0bGUgaWQ9InRpdGxlMjU0NjMzIj5TaGVldC41ODEwPC90aXRsZT4mI3hhOwkJCQk8cGF0aCBpZD0icGF0aDI1NDYzNSIgaW5rc2NhcGU6Y29ubmVjdG9yLWN1cnZhdHVyZT0iMCIgc3R5bGU9ImZpbGw6I0ZGRkZGRjsiIGQ9Ik0yOS40NiwxNS40NGgtNS4wMXYxMS45NGwtNC4zMS0xMS45NGgtNC4zMSAgICAgIGwtMy44Miw5Ljk3Yy0wLjQyLTIuNTUtMi45Ny0zLjQtNS4wMi00LjAzYy0xLjM0LTAuNDMtMi43NS0xLjA2LTIuNzUtMS43N2MwLTAuNTYsMC43OC0xLjEzLDIuMjYtMS4wNiAgICAgIGMwLjk5LDAuMDcsMS45MSwwLjE0LDMuNjcsMC45OWwxLjc3LTMuMDRjLTEuNjItMC44NC0zLjgxLTEuMzQtNS42NS0xLjM0Yy0yLjEyLDAtMy44OSwwLjcxLTUuMDIsMS44NCAgICAgIEMwLjQyLDE3Ljc3LDAsMTguODMsMCwxOS44OWMwLDEuNTYsMC41NywyLjYyLDEuNywzLjQ3YzAuOTgsMC43LDIuMjYsMS4yLDMuMzksMS41NWMxLjQxLDAuNDIsMi41NCwwLjc4LDIuNTQsMS42MyAgICAgIGMwLDAuMjgtMC4xNCwwLjU2LTAuMzUsMC43N2MtMC4zNiwwLjM2LTAuODUsMC41LTEuNjMsMC41Yy0xLjQxLDAtMi40Ny0wLjIxLTQuMTctMS4yTDAsMjkuNzljMS43LDAuOTEsMy42NywxLjQ4LDUuNjUsMS40OCAgICAgIGgwLjI4YzEuNzcsMCwzLjE4LTAuNTcsNC4zMS0xLjQxYzAuMDgtMC4wNywwLjE1LTAuMDcsMC4yMi0wLjE0bC0wLjU3LDEuMjdoNC41MmwwLjc4LTIuMzNjMC43OCwwLjI4LDEuNywwLjQyLDIuNjksMC40MiAgICAgIGMwLjkxLDAsMS44My0wLjE0LDIuNjEtMC40MmwwLjcxLDIuMzNoNy40MXYtNC44MWgxLjYzYzMuODksMCw2LjIyLTEuOTgsNi4yMi01LjNDMzYuNTMsMTcuMTQsMzQuMjcsMTUuNDQsMjkuNDYsMTUuNDR6ICAgICAgIE0xNy44OCwyNS42MmMtMC41NywwLTEuMTQtMC4wNy0xLjYzLTAuMjlsMS41NS01LjAxbDEuNTYsNS4wMUMxOS4wMSwyNS41NSwxOC41MSwyNS42MiwxNy44OCwyNS42MnogTTI5Ljc1LDIyLjcyaC0xLjE0di00LjAzICAgICAgaDEuMTRjMS40OCwwLDIuNjEsMC41LDIuNjEsMS45OEMzMi40MywyMi4zLDMxLjIzLDIyLjcyLDI5Ljc1LDIyLjcyeiIvPiYjeGE7CQkJPC9nPiYjeGE7CQk8L2c+JiN4YTsJPC9nPiYjeGE7PC9nPiYjeGE7PC9zdmc+;" vertex="1" parent="1">
          <mxGeometry x="139" y="1057.5" width="141" height="25" as="geometry" />
        </mxCell>
        <mxCell id="ZaQ2WHesoQ1tdpj846Ri-42" value="" style="shape=image;verticalLabelPosition=bottom;labelBackgroundColor=#ffffff;verticalAlign=top;aspect=fixed;imageAspect=0;image=https://erpyourself.net/img-sap/b/bapi-sap-transaktion-thumb.png;" vertex="1" parent="1">
          <mxGeometry x="328.25" y="1082.5" width="40" height="40" as="geometry" />
        </mxCell>
        <mxCell id="ZaQ2WHesoQ1tdpj846Ri-43" value="" style="shape=image;verticalLabelPosition=bottom;labelBackgroundColor=#ffffff;verticalAlign=top;aspect=fixed;imageAspect=0;image=https://www.doktorerp.de/wp-content/uploads/2018/04/sap-idoc-beitragsbild.png;" vertex="1" parent="1">
          <mxGeometry x="313.98" y="1020" width="72.53" height="49" as="geometry" />
        </mxCell>
      </root>
    </mxGraphModel>
  </diagram>
</mxfile>
